<svg width="48" height="48" viewBox="0 0 48 48" fill="none" xmlns="http://www.w3.org/2000/svg">
<circle cx="24" cy="24" r="23.5" stroke="#fff" stroke-opacity="0.8"/>
<path d="M29 14H19C16.2386 14 14 16.2386 14 19V29C14 31.7614 16.2386 34 19 34H29C31.7614 34 34 31.7614 34 29V19C34 16.2386 31.7614 14 29 14Z" stroke="#fff" stroke-opacity="0.8" stroke-width="2" stroke-linecap="round" stroke-linejoin="round"/>
<path d="M28.0002 23.3703C28.1236 24.2025 27.9815 25.0525 27.594 25.7993C27.2065 26.5461 26.5933 27.1517 25.8418 27.53C25.0903 27.9082 24.2386 28.0399 23.408 27.9062C22.5773 27.7726 21.81 27.3804 21.215 26.7855C20.6201 26.1905 20.2279 25.4232 20.0943 24.5925C19.9606 23.7619 20.0923 22.9102 20.4705 22.1587C20.8488 21.4072 21.4544 20.794 22.2012 20.4065C22.948 20.019 23.7979 19.8769 24.6302 20.0003C25.4791 20.1262 26.265 20.5218 26.8719 21.1286C27.4787 21.7355 27.8743 22.5214 28.0002 23.3703Z" stroke="#fff" stroke-opacity="0.8" stroke-width="2" stroke-linecap="round" stroke-linejoin="round"/>
<path d="M29.5 18.5H29.51" stroke="#fff" stroke-opacity="0.8" stroke-width="2" stroke-linecap="round" stroke-linejoin="round"/>
</svg>
