<svg width="48" height="48" viewBox="0 0 48 48" fill="none" xmlns="http://www.w3.org/2000/svg">
<path d="M27 18C28.5913 18 30.1174 18.6321 31.2426 19.7574C32.3679 20.8826 33 22.4087 33 24V31H29V24C29 23.4696 28.7893 22.9609 28.4142 22.5858C28.0391 22.2107 27.5304 22 27 22C26.4696 22 25.9609 22.2107 25.5858 22.5858C25.2107 22.9609 25 23.4696 25 24V31H21V24C21 22.4087 21.6321 20.8826 22.7574 19.7574C23.8826 18.6321 25.4087 18 27 18Z" fill="#fff" fill-opacity="0.8"/>
<path d="M19 19H15V31H19V19Z" fill="#fff" fill-opacity="0.8"/>
<path d="M17 17C18.1046 17 19 16.1046 19 15C19 13.8954 18.1046 13 17 13C15.8954 13 15 13.8954 15 15C15 16.1046 15.8954 17 17 17Z" fill="#fff" fill-opacity="0.8"/>
<circle cx="24" cy="24" r="23.5" stroke="#fff" stroke-opacity="0.8"/>
</svg>
