<?xml version="1.0" encoding="utf-8"?>
<!-- Generator: Adobe Illustrator 24.1.2, SVG Export Plug-In . SVG Version: 6.00 Build 0)  -->
<svg version="1.1" id="Layer_1" xmlns="http://www.w3.org/2000/svg" xmlns:xlink="http://www.w3.org/1999/xlink" x="0px" y="0px"
	 viewBox="0 0 36 36" style="enable-background:new 0 0 36 36;" xml:space="preserve">
<style type="text/css">
	.st0{fill-rule:evenodd;clip-rule:evenodd;fill:#FCAB40;}
	.st1{fill:#FDCB58;}
	.st2{fill:#CCD6DD;}
	.st3{fill:#9AAAB4;}
</style>
<path class="st0" d="M14,16L9,26c0,0-1,2,1,2c1,0,2-2,2-2L26,7c0,0,2-4,8-1v2c-3-1-4,1-4,1L15,33c0,0-2,3-7,3c-6,0-7-5-7-8
	c0-2,1-4,2-6s-2-6-2-6H14z"/>
<path class="st1" d="M7.5,20C4,20,0,19,0,16c0-3,4-4,7.5-4s7.5,1,7.5,4C15,19,11,20,7.5,20z"/>
<circle class="st2" cx="19" cy="17" r="2"/>
<circle class="st2" cx="22" cy="13" r="2"/>
<circle class="st2" cx="25" cy="9" r="2"/>
<path class="st3" d="M34,10c-0.3,0-0.6-0.1-0.9-0.2l-2-1c-1-0.5-1.4-1.7-0.9-2.7c0.5-1,1.7-1.4,2.7-0.9l2,1c1,0.5,1.4,1.7,0.9,2.7
	C35.4,9.6,34.7,10,34,10z"/>
<path class="st0" d="M8.8,21.7l1.3-1.5l6.2,5.1L15,26.8L8.8,21.7z"/>
</svg>
