<?xml version="1.0" encoding="utf-8"?>
<!-- Generator: Adobe Illustrator 24.1.2, SVG Export Plug-In . SVG Version: 6.00 Build 0)  -->
<svg version="1.1" id="Layer_2" xmlns="http://www.w3.org/2000/svg" xmlns:xlink="http://www.w3.org/1999/xlink" x="0px" y="0px"
	 viewBox="0 0 1561 154.9" style="enable-background:new 0 0 1561 154.9;" xml:space="preserve">
<style type="text/css">
	.st0{fill:none;stroke:#5481BF;stroke-width:6;stroke-miterlimit:10;}
</style>
<defs>
	<style>
		.st0{
			stroke-dasharray:3000;
			stroke-dashoffset:0;
			-webkit-animation:dash 4s linear forwards;
			animation: dash 4s linear forwards;
		}
		@-webkit-keyframes dash{
			from{
				stroke-dashoffset: 3000;
			}
			to{
				stroke-dashoffset: 0;
			}
		}
	</style>
</defs>
<path class="st0" d="M0,151.9h132.2h19.2v-28.6h10.3v-8.7h48.3v8.7h9.4v28.6h33.8V60.5h127.2v91.4h73.2v-45.7l54.9-33.4l54,33.4
	v45.7h119.7v-8.7l-7-6.6l18.3-14.3h52.1l15.5,15.8l-8,5.6v8.2h20.6V5.1h46.5v146.8h49.7v-22.5H860l21.6-14.8h60.1l18.8,14.3h-8v23
	h53.5v-12.3c0-9.2,6.1-9.7,6.1-9.7l48.3-13.8c57.2-13.4,142.4,1,142.4,1c29.6,4.6,57.7,14.6,57.7,14.6
	c12.7,7.7,181.6,20.2,181.6,20.2h32.1h86.9"/>
</svg>
