<svg width="77" height="71" viewBox="0 0 77 71" fill="none" xmlns="http://www.w3.org/2000/svg">
<path d="M55.3213 56.0295L45.9288 46.5118L3.00002 3" fill="#FF7347"/>
<path d="M55.3213 56.0295L45.9288 46.5118L3.00001 3" stroke="#354563" stroke-width="4.7502" stroke-miterlimit="10" stroke-linecap="round" stroke-linejoin="round"/>
<path d="M54.1855 37.0114L3.00001 3" stroke="#354563" stroke-width="4.7502" stroke-miterlimit="10" stroke-linecap="round" stroke-linejoin="round"/>
<path d="M74.0327 20.8823L2.99997 3" stroke="#354563" stroke-width="4.7502" stroke-miterlimit="10" stroke-linecap="round" stroke-linejoin="round"/>
<path d="M54.1855 37.0114L74.0327 20.8823" stroke="#354563" stroke-width="4.7502" stroke-miterlimit="10" stroke-linecap="round" stroke-linejoin="round"/>
<path d="M18.5763 68L45.9288 46.5119L55.3213 56.0295L54.1856 37.0115" fill="#FF7347"/>
<path d="M18.5763 68L45.9288 46.5119L55.3213 56.0295L54.1856 37.0115" stroke="#354563" stroke-width="4.7502" stroke-miterlimit="10" stroke-linecap="round" stroke-linejoin="round"/>
<path d="M18.5762 68L2.99985 3" stroke="#354563" stroke-width="4.7502" stroke-miterlimit="10" stroke-linecap="round" stroke-linejoin="round"/>
<path d="M55.3213 56.0295L45.9288 46.5118L3 3" fill="#FF7347"/>
<path d="M18.5763 68L45.9288 46.5118L55.3213 56.0295L54.1855 37.0114" fill="#FF7347"/>
<path d="M45.9288 46.5118L3 3L18.5763 68L45.9288 46.5118Z" fill="#FF7347"/>
<path d="M45.9288 46.5118L55.3213 56.0295L54.1855 37.0114L3 3L45.9288 46.5118Z" fill="#FF7347"/>
<path d="M3 3L54.1855 37.0114L74.0327 20.8823L3 3Z" fill="#FF7347"/>
<path d="M45.9288 46.5118L55.3213 56.0295L54.1855 37.0114M45.9288 46.5118L3 3M45.9288 46.5118L18.5763 68L3 3M3 3L54.1855 37.0114M3 3L74.0327 20.8823L54.1855 37.0114" stroke="#354563" stroke-width="4.7502" stroke-miterlimit="10" stroke-linecap="round" stroke-linejoin="round"/>
</svg>
