<svg width="200" height="72" viewBox="0 0 200 72" fill="none" xmlns="http://www.w3.org/2000/svg">
<path d="M177.551 67.2902C152.67 70.3272 32.2526 69.9733 23.1521 67.2902C-21.7888 54.0402 18.0921 -4.11793 49.2476 24.132C65.0346 -6.18546 101.176 -0.778215 116.547 20.8225C131.824 2.4079 167.212 -2.31054 182.042 29.876C203.612 29.876 202.432 64.2533 177.551 67.2902Z" fill="#F8ECE0" stroke="#354563" stroke-width="4.03128"/>
<path d="M39.5686 50.808H32.8966L31.7926 54H28.2646L34.2886 37.224H38.2006L44.2246 54H40.6726L39.5686 50.808ZM38.6566 48.12L36.2326 41.112L33.8086 48.12H38.6566ZM49.8363 51.336H55.3563V54H46.4763V37.248H49.8363V51.336ZM60.8519 37.248V54H57.4919V37.248H60.8519ZM63.3556 45.6C63.3556 43.952 63.7236 42.48 64.4596 41.184C65.2116 39.872 66.2276 38.856 67.5076 38.136C68.8036 37.4 70.2516 37.032 71.8516 37.032C73.7236 37.032 75.3636 37.512 76.7716 38.472C78.1796 39.432 79.1636 40.76 79.7236 42.456H75.8596C75.4756 41.656 74.9316 41.056 74.2276 40.656C73.5396 40.256 72.7396 40.056 71.8276 40.056C70.8516 40.056 69.9796 40.288 69.2116 40.752C68.4596 41.2 67.8676 41.84 67.4356 42.672C67.0196 43.504 66.8116 44.48 66.8116 45.6C66.8116 46.704 67.0196 47.68 67.4356 48.528C67.8676 49.36 68.4596 50.008 69.2116 50.472C69.9796 50.92 70.8516 51.144 71.8276 51.144C72.7396 51.144 73.5396 50.944 74.2276 50.544C74.9316 50.128 75.4756 49.52 75.8596 48.72H79.7236C79.1636 50.432 78.1796 51.768 76.7716 52.728C75.3796 53.672 73.7396 54.144 71.8516 54.144C70.2516 54.144 68.8036 53.784 67.5076 53.064C66.2276 52.328 65.2116 51.312 64.4596 50.016C63.7236 48.72 63.3556 47.248 63.3556 45.6ZM85.9535 39.96V44.16H91.5935V46.824H85.9535V51.264H92.3135V54H82.5935V37.224H92.3135V39.96H85.9535ZM100.27 45.6C100.27 43.952 100.638 42.48 101.374 41.184C102.126 39.872 103.142 38.856 104.422 38.136C105.718 37.4 107.166 37.032 108.766 37.032C110.638 37.032 112.278 37.512 113.686 38.472C115.094 39.432 116.078 40.76 116.638 42.456H112.774C112.39 41.656 111.846 41.056 111.142 40.656C110.454 40.256 109.654 40.056 108.742 40.056C107.766 40.056 106.894 40.288 106.126 40.752C105.374 41.2 104.782 41.84 104.35 42.672C103.934 43.504 103.726 44.48 103.726 45.6C103.726 46.704 103.934 47.68 104.35 48.528C104.782 49.36 105.374 50.008 106.126 50.472C106.894 50.92 107.766 51.144 108.742 51.144C109.654 51.144 110.454 50.944 111.142 50.544C111.846 50.128 112.39 49.52 112.774 48.72H116.638C116.078 50.432 115.094 51.768 113.686 52.728C112.294 53.672 110.654 54.144 108.766 54.144C107.166 54.144 105.718 53.784 104.422 53.064C103.142 52.328 102.126 51.312 101.374 50.016C100.638 48.72 100.27 47.248 100.27 45.6ZM133.404 37.248V54H130.044V46.872H122.868V54H119.508V37.248H122.868V44.136H130.044V37.248H133.404ZM140.071 39.96V44.16H145.711V46.824H140.071V51.264H146.431V54H136.711V37.224H146.431V39.96H140.071ZM152.844 37.248V54H149.484V37.248H152.844ZM170.492 54H167.132L159.524 42.504V54H156.164V37.224H159.524L167.132 48.744V37.224H170.492V54Z" fill="#354563"/>
</svg>
