<svg width="213" height="78" viewBox="0 0 213 78" fill="none" xmlns="http://www.w3.org/2000/svg">
<path d="M24.021 72.6732C50.531 75.9644 178.832 75.5809 188.529 72.6732C236.412 58.3138 193.92 -4.7139 160.725 25.9013C143.904 -6.95454 105.396 -1.09456 89.0196 22.3147C72.7419 2.35833 35.0367 -2.75519 19.2365 32.1263C-3.74577 32.1263 -2.48892 69.3819 24.021 72.6732Z" fill="#B8E1D1" stroke="#354563" stroke-width="4.03128"/>
<path d="M33.992 55.056C33.992 56.472 33.032 57.264 31.4 57.264H28.016V52.752H31.328C32.96 52.752 33.992 53.616 33.992 55.056ZM33.584 48.072C33.584 49.44 32.672 50.16 31.088 50.16H28.016V45.96H31.088C32.672 45.96 33.584 46.728 33.584 48.072ZM37.4 55.464C37.4 53.496 36.056 51.744 34.16 51.408C35.792 50.88 37.016 49.608 37.016 47.568C37.016 45.072 35.072 43.248 31.568 43.248H24.656V60H31.88C35.36 60 37.4 58.128 37.4 55.464ZM40.0779 60H43.4379V43.248H40.0779V60ZM58.1336 60H61.6856L55.6616 43.224H51.7496L45.7256 60H49.2536L50.3576 56.808H57.0296L58.1336 60ZM56.1176 54.12H51.2696L53.6936 47.112L56.1176 54.12ZM74.9053 43.224V54.744L67.2973 43.224H63.9373V60H67.2973V48.504L74.9053 60H78.2653V43.224H74.9053ZM80.7697 51.6C80.7697 56.616 84.4417 60.144 89.2657 60.144C92.9857 60.144 96.0097 58.176 97.1377 54.72H93.2737C92.4817 56.352 91.0417 57.144 89.2417 57.144C86.3137 57.144 84.2257 54.984 84.2257 51.6C84.2257 48.192 86.3137 46.056 89.2417 46.056C91.0417 46.056 92.4817 46.848 93.2737 48.456H97.1377C96.0097 45.024 92.9857 43.032 89.2657 43.032C84.4417 43.032 80.7697 46.584 80.7697 51.6ZM111.384 60H114.936L108.912 43.224H105L98.9756 60H102.504L103.608 56.808H110.28L111.384 60ZM109.368 54.12H104.52L106.944 47.112L109.368 54.12ZM128.762 43.248H122.906V60H128.762C134.114 60 137.594 56.712 137.594 51.648C137.594 46.56 134.114 43.248 128.762 43.248ZM126.266 57.144V46.08H128.642C132.17 46.08 134.162 48.168 134.162 51.648C134.162 55.128 132.17 57.144 128.642 57.144H126.266ZM140.061 53.592C140.061 58.008 143.085 60.168 146.757 60.168C150.429 60.168 153.597 58.008 153.597 53.592V43.248H150.213V53.616C150.213 55.92 148.965 57.12 146.805 57.12C144.669 57.12 143.421 55.92 143.421 53.616V43.248H140.061V53.592ZM167.812 43.224V54.744L160.204 43.224H156.844V60H160.204V48.504L167.812 60H171.172V43.224H167.812ZM185.46 43.224V54.744L177.852 43.224H174.492V60H177.852V48.504L185.46 60H188.82V43.224H185.46Z" fill="#354563"/>
</svg>
