<svg width="375" height="180" viewBox="0 0 375 180" fill="none" xmlns="http://www.w3.org/2000/svg">
<mask id="path-1-inside-1_671_3" fill="white">
<path fill-rule="evenodd" clip-rule="evenodd" d="M330.493 50H318V80.0765H318.015C318.111 82.6713 318.665 85.2305 319.656 87.6334C320.748 90.286 322.35 92.6962 324.37 94.7264C326.389 96.7566 328.787 98.367 331.425 99.4658C334.064 100.565 336.892 101.13 339.748 101.13H369.824V101.189C371.04 101.189 372.245 101.43 373.369 101.898C374.492 102.366 375.513 103.051 376.373 103.916C377.233 104.781 377.916 105.807 378.381 106.937C378.846 108.066 379.086 109.277 379.086 110.5L391.572 110.5C391.572 107.629 391.009 104.786 389.916 102.133C388.823 99.4807 387.222 97.0705 385.202 95.0403C383.183 93.0101 380.785 91.3997 378.147 90.301C375.508 89.2022 372.68 88.6367 369.824 88.6367H339.748L339.748 88.5778C338.531 88.5778 337.327 88.337 336.203 87.869C335.08 87.4011 334.059 86.7153 333.199 85.8506C332.339 84.986 331.656 83.9596 331.191 82.8299C330.773 81.8152 330.537 80.735 330.493 79.6394V50Z"/>
</mask>
<path fill-rule="evenodd" clip-rule="evenodd" d="M330.493 50H318V80.0765H318.015C318.111 82.6713 318.665 85.2305 319.656 87.6334C320.748 90.286 322.35 92.6962 324.37 94.7264C326.389 96.7566 328.787 98.367 331.425 99.4658C334.064 100.565 336.892 101.13 339.748 101.13H369.824V101.189C371.04 101.189 372.245 101.43 373.369 101.898C374.492 102.366 375.513 103.051 376.373 103.916C377.233 104.781 377.916 105.807 378.381 106.937C378.846 108.066 379.086 109.277 379.086 110.5L391.572 110.5C391.572 107.629 391.009 104.786 389.916 102.133C388.823 99.4807 387.222 97.0705 385.202 95.0403C383.183 93.0101 380.785 91.3997 378.147 90.301C375.508 89.2022 372.68 88.6367 369.824 88.6367H339.748L339.748 88.5778C338.531 88.5778 337.327 88.337 336.203 87.869C335.08 87.4011 334.059 86.7153 333.199 85.8506C332.339 84.986 331.656 83.9596 331.191 82.8299C330.773 81.8152 330.537 80.735 330.493 79.6394V50Z" fill="#FF7347"/>
<path d="M318 50V48H316V50H318ZM330.493 50H332.493V48H330.493V50ZM318 80.0765H316V82.0765H318V80.0765ZM318.015 80.0765L320.014 80.0028L319.943 78.0765H318.015V80.0765ZM319.656 87.6334L317.806 88.3954H317.806L319.656 87.6334ZM324.37 94.7264L322.952 96.1369L324.37 94.7264ZM331.425 99.4658L332.194 97.6195H332.194L331.425 99.4658ZM369.824 101.13H371.824V99.13H369.824V101.13ZM369.824 101.189H367.824V103.189L369.824 103.189L369.824 101.189ZM373.369 101.898L374.137 100.051L373.369 101.898ZM378.381 106.937L380.23 106.175L380.23 106.175L378.381 106.937ZM379.086 110.5L377.086 110.5L377.086 112.5H379.086V110.5ZM391.572 110.5V112.5H393.572V110.5H391.572ZM389.916 102.133L391.766 101.371V101.371L389.916 102.133ZM385.202 95.0403L383.784 96.4508L385.202 95.0403ZM378.147 90.301L377.378 92.1473H377.378L378.147 90.301ZM339.748 88.6367L337.748 88.6368L337.748 90.6367H339.748V88.6367ZM339.748 88.5778L341.748 88.5777L341.748 86.5778H339.748V88.5778ZM336.203 87.869L336.972 86.0227H336.972L336.203 87.869ZM333.199 85.8506L334.617 84.4402H334.617L333.199 85.8506ZM331.191 82.8299L329.342 83.5918H329.342L331.191 82.8299ZM330.493 79.6394H328.493V79.6792L328.495 79.719L330.493 79.6394ZM318 52H330.493V48H318V52ZM320 80.0765V50H316V80.0765H320ZM318.015 78.0765H318V82.0765H318.015V78.0765ZM321.505 86.8715C320.605 84.6877 320.101 82.3616 320.014 80.0028L316.016 80.1502C316.121 82.981 316.726 85.7733 317.806 88.3954L321.505 86.8715ZM325.788 93.316C323.954 91.472 322.498 89.2822 321.505 86.8715L317.806 88.3954C318.999 91.2898 320.747 93.9205 322.952 96.1369L325.788 93.316ZM332.194 97.6195C329.799 96.6221 327.622 95.1599 325.788 93.316L322.952 96.1369C325.157 98.3533 327.774 100.112 330.656 101.312L332.194 97.6195ZM339.748 99.13C337.156 99.13 334.589 98.6168 332.194 97.6195L330.656 101.312C333.538 102.512 336.628 103.13 339.748 103.13V99.13ZM369.824 99.13H339.748V103.13H369.824V99.13ZM371.824 101.189V101.13H367.824V101.189H371.824ZM374.137 100.051C372.77 99.4821 371.305 99.1889 369.824 99.1889L369.824 103.189C370.776 103.189 371.719 103.377 372.6 103.744L374.137 100.051ZM377.791 102.506C376.746 101.455 375.504 100.621 374.137 100.051L372.6 103.744C373.48 104.111 374.28 104.648 374.955 105.327L377.791 102.506ZM380.23 106.175C379.665 104.803 378.836 103.556 377.791 102.506L374.955 105.327C375.63 106.005 376.166 106.811 376.532 107.699L380.23 106.175ZM381.086 110.5C381.086 109.016 380.795 107.546 380.23 106.175L376.532 107.699C376.898 108.587 377.086 109.538 377.086 110.5L381.086 110.5ZM391.572 108.5L379.086 108.5V112.5L391.572 112.5V108.5ZM388.067 102.895C389.06 105.306 389.572 107.89 389.572 110.5H393.572C393.572 107.368 392.958 104.266 391.766 101.371L388.067 102.895ZM383.784 96.4508C385.618 98.2948 387.074 100.485 388.067 102.895L391.766 101.371C390.573 98.4769 388.825 95.8463 386.62 93.6299L383.784 96.4508ZM377.378 92.1473C379.773 93.1446 381.95 94.6068 383.784 96.4508L386.62 93.6299C384.415 91.4135 381.797 89.6547 378.915 88.4546L377.378 92.1473ZM369.824 90.6367C372.416 90.6367 374.983 91.1499 377.378 92.1473L378.915 88.4546C376.033 87.2545 372.944 86.6367 369.824 86.6367V90.6367ZM339.748 90.6367H369.824V86.6367H339.748V90.6367ZM337.748 88.5779L337.748 88.6368L341.748 88.6366L341.748 88.5777L337.748 88.5779ZM335.435 89.7153C336.802 90.2846 338.267 90.5778 339.748 90.5778V86.5778C338.796 86.5778 337.852 86.3893 336.972 86.0227L335.435 89.7153ZM331.781 87.2611C332.826 88.3119 334.067 89.1461 335.435 89.7153L336.972 86.0227C336.092 85.6562 335.291 85.1186 334.617 84.4402L331.781 87.2611ZM329.342 83.5918C329.907 84.9634 330.735 86.2103 331.781 87.2611L334.617 84.4402C333.942 83.7618 333.406 82.9558 333.04 82.068L329.342 83.5918ZM328.495 79.719C328.548 81.0486 328.834 82.3598 329.342 83.5918L333.04 82.068C332.712 81.2705 332.526 80.4213 332.492 79.5598L328.495 79.719ZM328.493 50V79.6394H332.493V50H328.493Z" fill="#354563" mask="url(#path-1-inside-1_671_3)"/>
<path d="M348.496 38.5938C336.168 27.63 330.494 18.8155 325.619 4C321.891 15.7177 320.644 23.7009 305.627 38.5938H314.628L296 59.2734H354L336.219 38.5938H348.496Z" fill="#B8E1D1" stroke="#354563" stroke-width="2"/>
<path d="M348.496 38.5938C336.168 27.63 330.494 18.8155 325.619 4C321.891 15.7177 320.644 23.7009 305.627 38.5938H314.628L296 59.2734H354L336.219 38.5938H348.496Z" fill="#B8E1D1" stroke="#354563" stroke-width="2"/>
<mask id="path-5-inside-2_671_3" fill="white">
<path fill-rule="evenodd" clip-rule="evenodd" d="M30.1135 163.124V163.035V139.945C30.0413 138.134 29.294 136.412 28.0143 135.126C26.6664 133.771 24.8384 133.009 22.9323 133.009C21.0262 133.009 19.1982 133.771 17.8504 135.126C16.5026 136.481 15.7454 138.318 15.7454 140.235L15.7512 140.235C15.7512 142.463 15.3147 144.669 14.4666 146.727C13.6185 148.785 12.3755 150.656 10.8084 152.231C9.24139 153.806 7.38104 155.056 5.3336 155.909C3.28616 156.761 1.09173 157.2 -1.12441 157.2C-3.34054 157.2 -5.53498 156.761 -7.58242 155.909C-9.62986 155.056 -11.4902 153.806 -13.0573 152.231C-14.6243 150.656 -15.8673 148.785 -16.7154 146.727C-17.5635 144.669 -18 142.463 -18 140.235H-8.31133C-8.31133 141.183 -8.12543 142.123 -7.76426 143C-7.40308 143.876 -6.8737 144.673 -6.20633 145.344C-5.53896 146.015 -4.74668 146.547 -3.87472 146.91C-3.00277 147.273 -2.06821 147.46 -1.12441 147.46C-0.180609 147.46 0.75395 147.273 1.62591 146.91C2.49787 146.547 3.29014 146.015 3.95751 145.344C4.62488 144.673 5.15426 143.876 5.51544 143C5.87662 142.123 6.06251 141.183 6.06251 140.235L6.05674 140.235C6.05674 135.735 7.8347 131.42 10.9995 128.238C14.1643 125.057 18.4566 123.269 22.9323 123.269C27.408 123.269 31.7004 125.057 34.8652 128.238C37.9246 131.314 39.688 135.449 39.802 139.786H39.808V163.124H39.8027C39.8141 164.043 39.9994 164.951 40.3492 165.8C40.7104 166.676 41.2398 167.473 41.9072 168.144C42.5745 168.815 43.3668 169.347 44.2388 169.71C45.1107 170.073 46.0453 170.26 46.9891 170.26C47.9329 170.26 48.8674 170.073 49.7394 169.71C50.6114 169.347 51.4036 168.815 52.071 168.144C52.7384 167.473 53.2678 166.676 53.6289 165.8C53.953 165.013 54.1359 164.176 54.1701 163.327V66H63.8646L63.8647 163.035L63.8646 163.08V163.663H63.8531C63.7789 165.677 63.3484 167.662 62.5801 169.527C61.732 171.585 60.489 173.456 58.9219 175.031C57.3549 176.606 55.4945 177.856 53.4471 178.709C51.3997 179.561 49.2052 180 46.9891 180C44.7729 180 42.5785 179.561 40.5311 178.709C38.4836 177.856 36.6233 176.606 35.0562 175.031C33.4892 173.456 32.2461 171.585 31.3981 169.527C30.5614 167.496 30.1253 165.322 30.1137 163.124H30.1135Z"/>
</mask>
<path fill-rule="evenodd" clip-rule="evenodd" d="M30.1135 163.124V163.035V139.945C30.0413 138.134 29.294 136.412 28.0143 135.126C26.6664 133.771 24.8384 133.009 22.9323 133.009C21.0262 133.009 19.1982 133.771 17.8504 135.126C16.5026 136.481 15.7454 138.318 15.7454 140.235L15.7512 140.235C15.7512 142.463 15.3147 144.669 14.4666 146.727C13.6185 148.785 12.3755 150.656 10.8084 152.231C9.24139 153.806 7.38104 155.056 5.3336 155.909C3.28616 156.761 1.09173 157.2 -1.12441 157.2C-3.34054 157.2 -5.53498 156.761 -7.58242 155.909C-9.62986 155.056 -11.4902 153.806 -13.0573 152.231C-14.6243 150.656 -15.8673 148.785 -16.7154 146.727C-17.5635 144.669 -18 142.463 -18 140.235H-8.31133C-8.31133 141.183 -8.12543 142.123 -7.76426 143C-7.40308 143.876 -6.8737 144.673 -6.20633 145.344C-5.53896 146.015 -4.74668 146.547 -3.87472 146.91C-3.00277 147.273 -2.06821 147.46 -1.12441 147.46C-0.180609 147.46 0.75395 147.273 1.62591 146.91C2.49787 146.547 3.29014 146.015 3.95751 145.344C4.62488 144.673 5.15426 143.876 5.51544 143C5.87662 142.123 6.06251 141.183 6.06251 140.235L6.05674 140.235C6.05674 135.735 7.8347 131.42 10.9995 128.238C14.1643 125.057 18.4566 123.269 22.9323 123.269C27.408 123.269 31.7004 125.057 34.8652 128.238C37.9246 131.314 39.688 135.449 39.802 139.786H39.808V163.124H39.8027C39.8141 164.043 39.9994 164.951 40.3492 165.8C40.7104 166.676 41.2398 167.473 41.9072 168.144C42.5745 168.815 43.3668 169.347 44.2388 169.71C45.1107 170.073 46.0453 170.26 46.9891 170.26C47.9329 170.26 48.8674 170.073 49.7394 169.71C50.6114 169.347 51.4036 168.815 52.071 168.144C52.7384 167.473 53.2678 166.676 53.6289 165.8C53.953 165.013 54.1359 164.176 54.1701 163.327V66H63.8646L63.8647 163.035L63.8646 163.08V163.663H63.8531C63.7789 165.677 63.3484 167.662 62.5801 169.527C61.732 171.585 60.489 173.456 58.9219 175.031C57.3549 176.606 55.4945 177.856 53.4471 178.709C51.3997 179.561 49.2052 180 46.9891 180C44.7729 180 42.5785 179.561 40.5311 178.709C38.4836 177.856 36.6233 176.606 35.0562 175.031C33.4892 173.456 32.2461 171.585 31.3981 169.527C30.5614 167.496 30.1253 165.322 30.1137 163.124H30.1135Z" fill="#FF7347"/>
<path d="M30.1135 163.124V165.124H28.1135V163.124H30.1135ZM30.1135 139.945L32.1119 139.865L32.1135 139.905V139.945H30.1135ZM28.0143 135.126L29.4322 133.715H29.4322L28.0143 135.126ZM15.7454 140.235L15.7467 142.235L13.7454 142.236V140.235H15.7454ZM15.7512 140.235L15.7499 138.235L17.7512 138.233V140.235H15.7512ZM14.4666 146.727L16.3158 147.489L14.4666 146.727ZM10.8084 152.231L12.2264 153.641L12.2264 153.641L10.8084 152.231ZM5.3336 155.909L4.56476 154.062H4.56477L5.3336 155.909ZM-7.58242 155.909L-6.81358 154.062H-6.81358L-7.58242 155.909ZM-16.7154 146.727L-14.8662 145.965H-14.8662L-16.7154 146.727ZM-18 140.235H-20V138.235H-18V140.235ZM-8.31133 140.235V138.235H-6.31133V140.235H-8.31133ZM-7.76426 143L-5.91507 142.238L-5.91507 142.238L-7.76426 143ZM-6.20633 145.344L-7.62429 146.754H-7.62429L-6.20633 145.344ZM-3.87472 146.91L-4.64356 148.756H-4.64356L-3.87472 146.91ZM5.51544 143L3.66625 142.238L3.66625 142.238L5.51544 143ZM6.06251 140.235L6.06384 138.235L8.06251 138.236V140.235H6.06251ZM6.05674 140.235L6.05542 142.235L4.05674 142.233V140.235H6.05674ZM10.9995 128.238L9.58153 126.828L10.9995 128.238ZM22.9323 123.269V125.269V123.269ZM34.8652 128.238L33.4472 129.649L34.8652 128.238ZM39.802 139.786V141.786H37.8539L37.8027 139.838L39.802 139.786ZM39.808 139.786V137.786H41.808V139.786H39.808ZM39.808 163.124H41.808V165.124H39.808V163.124ZM39.8027 163.124L37.8029 163.149L37.7778 161.124H39.8027V163.124ZM40.3492 165.8L42.1984 165.038L42.1984 165.038L40.3492 165.8ZM41.9072 168.144L40.4892 169.554L40.4892 169.554L41.9072 168.144ZM44.2388 169.71L45.0076 167.863L45.0076 167.863L44.2388 169.71ZM46.9891 170.26V168.26V170.26ZM49.7394 169.71L50.5082 171.556V171.556L49.7394 169.71ZM52.071 168.144L53.489 169.554V169.554L52.071 168.144ZM53.6289 165.8L51.7797 165.038V165.038L53.6289 165.8ZM54.1701 163.327H56.1701V163.367L56.1685 163.407L54.1701 163.327ZM54.1701 66H52.1701V64H54.1701V66ZM63.8646 66V64H65.8646V66H63.8646ZM63.8647 163.035L65.8647 163.035V163.037L63.8647 163.035ZM63.8646 163.08H61.8646V163.078L63.8646 163.08ZM63.8646 163.663H65.8646V165.663H63.8646V163.663ZM63.8531 163.663L61.8544 163.589L61.9255 161.663H63.8531V163.663ZM62.5801 169.527L60.7309 168.765V168.765L62.5801 169.527ZM58.9219 175.031L60.3399 176.441V176.441L58.9219 175.031ZM53.4471 178.709L52.6783 176.862L53.4471 178.709ZM40.5311 178.709L39.7622 180.555V180.555L40.5311 178.709ZM35.0562 175.031L36.4742 173.621L36.4742 173.621L35.0562 175.031ZM31.3981 169.527L33.2473 168.765L33.2473 168.765L31.3981 169.527ZM30.1137 163.124V161.124H32.1032L32.1137 163.114L30.1137 163.124ZM32.1135 163.035V163.124H28.1135V163.035H32.1135ZM32.1135 139.945V163.035H28.1135V139.945H32.1135ZM29.4322 133.715C31.067 135.359 32.0199 137.556 32.1119 139.865L28.1151 140.025C28.0627 138.712 27.521 137.466 26.5963 136.536L29.4322 133.715ZM22.9323 131.009C25.3723 131.009 27.7102 131.984 29.4322 133.715L26.5963 136.536C25.6227 135.557 24.3046 135.009 22.9323 135.009V131.009ZM16.4325 133.715C18.1545 131.984 20.4924 131.009 22.9323 131.009V135.009C21.5601 135.009 20.2419 135.557 19.2684 136.536L16.4325 133.715ZM13.7454 140.235C13.7454 137.791 14.7108 135.446 16.4325 133.715L19.2684 136.536C18.2945 137.515 17.7454 138.845 17.7454 140.235H13.7454ZM15.7525 142.235L15.7467 142.235L15.7441 138.235L15.7499 138.235L15.7525 142.235ZM12.6174 145.965C13.3658 144.149 13.7512 142.201 13.7512 140.235H17.7512C17.7512 142.724 17.2635 145.189 16.3158 147.489L12.6174 145.965ZM9.39048 150.821C10.7723 149.431 11.869 147.782 12.6174 145.965L16.3158 147.489C15.3681 149.789 13.9786 151.88 12.2264 153.641L9.39048 150.821ZM4.56477 154.062C6.36879 153.311 8.00867 152.21 9.39048 150.82L12.2264 153.641C10.4741 155.403 8.3933 156.801 6.10244 157.755L4.56477 154.062ZM-1.12441 155.2C0.827608 155.2 2.76076 154.813 4.56476 154.062L6.10244 157.755C3.81157 158.709 1.35585 159.2 -1.12441 159.2V155.2ZM-6.81358 154.062C-5.00957 154.813 -3.07642 155.2 -1.12441 155.2V159.2C-3.60466 159.2 -6.06038 158.709 -8.35125 157.755L-6.81358 154.062ZM-11.6393 150.821C-10.2575 152.21 -8.61761 153.311 -6.81358 154.062L-8.35125 157.755C-10.6421 156.801 -12.7229 155.403 -14.4752 153.641L-11.6393 150.821ZM-14.8662 145.965C-14.1178 147.782 -13.0211 149.431 -11.6393 150.821L-14.4752 153.641C-16.2275 151.88 -17.6169 149.789 -18.5646 147.489L-14.8662 145.965ZM-16 140.235C-16 142.201 -15.6147 144.149 -14.8662 145.965L-18.5646 147.489C-19.5123 145.189 -20 142.724 -20 140.235H-16ZM-8.31133 142.235H-18V138.235H-8.31133V142.235ZM-9.61344 143.761C-10.0743 142.643 -10.3113 141.445 -10.3113 140.235H-6.31133C-6.31133 140.922 -6.17659 141.603 -5.91507 142.238L-9.61344 143.761ZM-7.62429 146.754C-8.47686 145.897 -9.15261 144.88 -9.61345 143.761L-5.91507 142.238C-5.65355 142.872 -5.27053 143.448 -4.78837 143.933L-7.62429 146.754ZM-4.64356 148.756C-5.75893 148.292 -6.77169 147.611 -7.62429 146.754L-4.78837 143.933C-4.30623 144.418 -3.73443 144.802 -3.10588 145.063L-4.64356 148.756ZM-1.12441 149.46C-2.33233 149.46 -3.52817 149.221 -4.64356 148.756L-3.10589 145.063C-2.47736 145.325 -1.80409 145.46 -1.12441 145.46V149.46ZM2.39475 148.756C1.27935 149.221 0.0835094 149.46 -1.12441 149.46V145.46C-0.444727 145.46 0.228548 145.325 0.857069 145.063L2.39475 148.756ZM5.37547 146.754C4.52287 147.611 3.51012 148.292 2.39475 148.756L0.857069 145.063C1.48561 144.802 2.05742 144.418 2.53955 143.933L5.37547 146.754ZM7.36463 143.761C6.90379 144.88 6.22805 145.897 5.37547 146.754L2.53955 143.933C3.02171 143.448 3.40474 142.872 3.66625 142.238L7.36463 143.761ZM8.06251 140.235C8.06251 141.445 7.82546 142.643 7.36463 143.761L3.66625 142.238C3.92777 141.603 4.06251 140.922 4.06251 140.235H8.06251ZM6.05807 138.235L6.06384 138.235L6.06119 142.235L6.05542 142.235L6.05807 138.235ZM12.4174 129.649C9.62655 132.455 8.05674 136.262 8.05674 140.235H4.05674C4.05674 135.208 6.04285 130.385 9.58153 126.828L12.4174 129.649ZM22.9323 125.269C18.9905 125.269 15.208 126.843 12.4174 129.649L9.58153 126.828C13.1206 123.27 17.9228 121.269 22.9323 121.269V125.269ZM33.4472 129.649C30.6567 126.843 26.8742 125.269 22.9323 125.269V121.269C27.9419 121.269 32.7441 123.27 36.2831 126.828L33.4472 129.649ZM37.8027 139.838C37.702 136.01 36.1452 132.361 33.4472 129.649L36.2831 126.828C39.704 130.267 41.6739 134.888 41.8013 139.733L37.8027 139.838ZM39.808 141.786H39.802V137.786H39.808V141.786ZM37.808 163.124V139.786H41.808V163.124H37.808ZM39.8027 161.124H39.808V165.124H39.8027V161.124ZM38.5 166.562C38.0537 165.478 37.8173 164.32 37.8029 163.149L41.8026 163.1C41.8108 163.765 41.9451 164.423 42.1984 165.038L38.5 166.562ZM40.4892 169.554C39.6366 168.697 38.9609 167.68 38.5 166.561L42.1984 165.038C42.4599 165.672 42.843 166.248 43.3251 166.733L40.4892 169.554ZM43.4699 171.556C42.3546 171.092 41.3418 170.411 40.4892 169.554L43.3251 166.733C43.8073 167.218 44.3791 167.602 45.0076 167.863L43.4699 171.556ZM46.9891 172.26C45.7812 172.26 44.5853 172.021 43.4699 171.556L45.0076 167.863C45.6361 168.125 46.3094 168.26 46.9891 168.26V172.26ZM50.5082 171.556C49.3928 172.021 48.197 172.26 46.9891 172.26V168.26C47.6688 168.26 48.342 168.125 48.9706 167.863L50.5082 171.556ZM53.489 169.554C52.6364 170.411 51.6236 171.092 50.5082 171.556L48.9706 167.863C49.5991 167.602 50.1709 167.218 50.653 166.733L53.489 169.554ZM55.4781 166.561C55.0173 167.68 54.3415 168.697 53.489 169.554L50.653 166.733C51.1352 166.248 51.5182 165.672 51.7797 165.038L55.4781 166.561ZM56.1685 163.407C56.1249 164.49 55.8916 165.558 55.4781 166.562L51.7797 165.038C52.0144 164.468 52.147 163.862 52.1717 163.246L56.1685 163.407ZM56.1701 66V163.327H52.1701V66H56.1701ZM63.8646 68H54.1701V64H63.8646V68ZM61.8647 163.035L61.8646 66H65.8646L65.8647 163.035L61.8647 163.035ZM61.8646 163.078L61.8647 163.032L65.8647 163.037L65.8646 163.083L61.8646 163.078ZM61.8646 163.663V163.08H65.8646V163.663H61.8646ZM63.8531 161.663H63.8646V165.663H63.8531V161.663ZM60.7309 168.765C61.4089 167.12 61.7889 165.367 61.8544 163.589L65.8517 163.737C65.7688 165.986 65.2878 168.205 64.4293 170.289L60.7309 168.765ZM57.504 173.621C58.8858 172.231 59.9825 170.582 60.7309 168.765L64.4293 170.289C63.4815 172.589 62.0921 174.68 60.3399 176.441L57.504 173.621ZM52.6783 176.862C54.4823 176.111 56.1222 175.01 57.504 173.621L60.3399 176.441C58.5876 178.203 56.5068 179.601 54.2159 180.555L52.6783 176.862ZM46.9891 178C48.9411 178 50.8742 177.613 52.6783 176.862L54.2159 180.555C51.9251 181.509 49.4693 182 46.9891 182V178ZM41.2999 176.862C43.1039 177.613 45.0371 178 46.9891 178V182C44.5088 182 42.0531 181.509 39.7622 180.555L41.2999 176.862ZM36.4742 173.621C37.856 175.01 39.4959 176.111 41.2999 176.862L39.7622 180.555C37.4714 179.601 35.3906 178.203 33.6383 176.441L36.4742 173.621ZM33.2473 168.765C33.9957 170.582 35.0924 172.231 36.4742 173.621L33.6383 176.441C31.886 174.68 30.4966 172.589 29.5489 170.289L33.2473 168.765ZM32.1137 163.114C32.1239 165.054 32.5089 166.973 33.2473 168.765L29.5489 170.289C28.6139 168.02 28.1267 165.59 28.1138 163.135L32.1137 163.114ZM30.1135 161.124H30.1137V165.124H30.1135V161.124Z" fill="#354563" mask="url(#path-5-inside-2_671_3)"/>
<path d="M87.6935 81.0229C71.3267 66.4368 63.7934 54.7102 57.3215 35C52.3724 50.589 50.7167 61.2097 30.7803 81.0229H42.73L18 108.535H95L71.3941 81.0229H87.6935Z" fill="#B8E1D1" stroke="#354563" stroke-width="2"/>
<path d="M87.6935 81.0229C71.3267 66.4368 63.7934 54.7102 57.3215 35C52.3724 50.589 50.7167 61.2097 30.7803 81.0229H42.73L18 108.535H95L71.3941 81.0229H87.6935Z" fill="#B8E1D1" stroke="#354563" stroke-width="2"/>
</svg>
