<svg width="234" height="215" viewBox="0 0 234 215" fill="none" xmlns="http://www.w3.org/2000/svg">
<g filter="url(#filter0_d_315_928)">
<rect x="6.98926" y="2.07959" width="220.242" height="201.961" rx="8" fill="#354563" stroke="#354563" stroke-width="4"/>
<rect x="34.7842" y="66.0781" width="164.652" height="33.5326" rx="16.7663" fill="#FF7347"/>
<rect x="35.7842" y="147.353" width="162.652" height="31.5326" rx="15.7663" fill="#354563" stroke="#F8ECE0" stroke-width="2"/>
<rect x="34.7842" y="106.216" width="164.652" height="33.5326" rx="16.7663" fill="#B8E1D1"/>
<path d="M53.0699 77.2388V88.0117H50.9092V77.2388H53.0699ZM65.8234 79.3378C66.8729 79.3378 67.7166 79.6619 68.3546 80.3101C69.0028 80.9481 69.3269 81.8433 69.3269 82.9957V88.0117H67.1661V83.2889C67.1661 82.6201 66.9964 82.1108 66.6568 81.7609C66.3173 81.4008 65.8543 81.2208 65.2678 81.2208C64.6813 81.2208 64.2131 81.4008 63.8633 81.7609C63.5237 82.1108 63.3539 82.6201 63.3539 83.2889V88.0117H61.1932V83.2889C61.1932 82.6201 61.0234 82.1108 60.6839 81.7609C60.3443 81.4008 59.8813 81.2208 59.2948 81.2208C58.698 81.2208 58.2247 81.4008 57.8749 81.7609C57.5353 82.1108 57.3655 82.6201 57.3655 83.2889V88.0117H55.2048V79.4613H57.3655V80.4954C57.6434 80.1352 57.9983 79.8523 58.4305 79.6465C58.8729 79.4407 59.3565 79.3378 59.8813 79.3378C60.5501 79.3378 61.1469 79.4819 61.6716 79.77C62.1964 80.0478 62.6028 80.4491 62.8909 80.9738C63.1687 80.4799 63.57 80.0838 64.0948 79.7854C64.6298 79.487 65.206 79.3378 65.8234 79.3378ZM73.5381 80.696C73.8159 80.305 74.1966 79.9809 74.6802 79.7237C75.1741 79.4561 75.7349 79.3224 76.3625 79.3224C77.0931 79.3224 77.7516 79.5024 78.3381 79.8626C78.9349 80.2227 79.403 80.7372 79.7426 81.406C80.0924 82.0645 80.2673 82.831 80.2673 83.7056C80.2673 84.5802 80.0924 85.3571 79.7426 86.0362C79.403 86.705 78.9349 87.2246 78.3381 87.595C77.7516 87.9654 77.0931 88.1506 76.3625 88.1506C75.7349 88.1506 75.1793 88.022 74.6957 87.7648C74.2223 87.5075 73.8365 87.1834 73.5381 86.7924V92.0863H71.3773V79.4613H73.5381V80.696ZM78.0603 83.7056C78.0603 83.1912 77.9522 82.7487 77.7362 82.3783C77.5304 81.9976 77.2526 81.7095 76.9027 81.514C76.5632 81.3185 76.1928 81.2208 75.7915 81.2208C75.4005 81.2208 75.0301 81.3236 74.6802 81.5294C74.3407 81.7249 74.0629 82.013 73.8468 82.3937C73.641 82.7744 73.5381 83.222 73.5381 83.7365C73.5381 84.251 73.641 84.6986 73.8468 85.0793C74.0629 85.46 74.3407 85.7532 74.6802 85.959C75.0301 86.1545 75.4005 86.2522 75.7915 86.2522C76.1928 86.2522 76.5632 86.1493 76.9027 85.9436C77.2526 85.7378 77.5304 85.4445 77.7362 85.0638C77.9522 84.6831 78.0603 84.2304 78.0603 83.7056ZM85.6343 88.1506C84.8111 88.1506 84.0703 87.9706 83.4118 87.6104C82.7533 87.24 82.2336 86.7204 81.8529 86.0516C81.4825 85.3828 81.2973 84.6111 81.2973 83.7365C81.2973 82.8619 81.4877 82.0902 81.8684 81.4214C82.2594 80.7526 82.7893 80.2381 83.4581 79.878C84.1269 79.5076 84.8729 79.3224 85.696 79.3224C86.5192 79.3224 87.2651 79.5076 87.9339 79.878C88.6027 80.2381 89.1275 80.7526 89.5082 81.4214C89.8992 82.0902 90.0947 82.8619 90.0947 83.7365C90.0947 84.6111 89.8941 85.3828 89.4928 86.0516C89.1018 86.7204 88.5667 87.24 87.8876 87.6104C87.2188 87.9706 86.4677 88.1506 85.6343 88.1506ZM85.6343 86.2677C86.0253 86.2677 86.3905 86.1751 86.7301 85.9899C87.0799 85.7944 87.3577 85.5063 87.5635 85.1256C87.7693 84.7449 87.8722 84.2818 87.8722 83.7365C87.8722 82.9236 87.6561 82.3011 87.224 81.869C86.8021 81.4265 86.2825 81.2053 85.6651 81.2053C85.0478 81.2053 84.5282 81.4265 84.1063 81.869C83.6947 82.3011 83.4889 82.9236 83.4889 83.7365C83.4889 84.5494 83.6896 85.177 84.0909 85.6194C84.5024 86.0516 85.0169 86.2677 85.6343 86.2677ZM93.8405 80.7886C94.1183 80.3359 94.4784 79.9809 94.9208 79.7237C95.3736 79.4664 95.888 79.3378 96.4642 79.3378V81.6066H95.8932C95.2141 81.6066 94.6996 81.7661 94.3498 82.0851C94.0102 82.404 93.8405 82.9597 93.8405 83.7519V88.0117H91.6797V79.4613H93.8405V80.7886ZM100.435 81.2362V85.3725C100.435 85.6606 100.502 85.8715 100.636 86.0053C100.78 86.1288 101.017 86.1905 101.346 86.1905H102.349V88.0117H100.991C99.1698 88.0117 98.2592 87.1268 98.2592 85.3571V81.2362H97.2405V79.4613H98.2592V77.3468H100.435V79.4613H102.349V81.2362H100.435ZM103.348 83.7056C103.348 82.8413 103.517 82.0748 103.857 81.406C104.207 80.7372 104.675 80.2227 105.262 79.8626C105.858 79.5024 106.522 79.3224 107.252 79.3224C107.89 79.3224 108.446 79.451 108.919 79.7082C109.403 79.9655 109.789 80.2896 110.077 80.6806V79.4613H112.253V88.0117H110.077V86.7616C109.799 87.1628 109.413 87.4973 108.919 87.7648C108.436 88.022 107.875 88.1506 107.237 88.1506C106.517 88.1506 105.858 87.9654 105.262 87.595C104.675 87.2246 104.207 86.705 103.857 86.0362C103.517 85.3571 103.348 84.5802 103.348 83.7056ZM110.077 83.7365C110.077 83.2117 109.974 82.7642 109.768 82.3937C109.562 82.013 109.285 81.7249 108.935 81.5294C108.585 81.3236 108.209 81.2208 107.808 81.2208C107.407 81.2208 107.036 81.3185 106.697 81.514C106.357 81.7095 106.08 81.9976 105.863 82.3783C105.658 82.7487 105.555 83.1912 105.555 83.7056C105.555 84.2201 105.658 84.6728 105.863 85.0638C106.08 85.4445 106.357 85.7378 106.697 85.9436C107.047 86.1493 107.417 86.2522 107.808 86.2522C108.209 86.2522 108.585 86.1545 108.935 85.959C109.285 85.7532 109.562 85.4651 109.768 85.0947C109.974 84.714 110.077 84.2613 110.077 83.7365ZM119.102 79.3378C120.12 79.3378 120.944 79.6619 121.571 80.3101C122.199 80.9481 122.513 81.8433 122.513 82.9957V88.0117H120.352V83.2889C120.352 82.6098 120.182 82.0902 119.843 81.7301C119.503 81.3597 119.04 81.1745 118.453 81.1745C117.857 81.1745 117.383 81.3597 117.034 81.7301C116.694 82.0902 116.524 82.6098 116.524 83.2889V88.0117H114.363V79.4613H116.524V80.5262C116.812 80.1558 117.178 79.8677 117.62 79.6619C118.073 79.4458 118.567 79.3378 119.102 79.3378ZM127.083 81.2362V85.3725C127.083 85.6606 127.15 85.8715 127.284 86.0053C127.428 86.1288 127.665 86.1905 127.994 86.1905H128.997V88.0117H127.639C125.818 88.0117 124.907 87.1268 124.907 85.3571V81.2362H123.888V79.4613H124.907V77.3468H127.083V79.4613H128.997V81.2362H127.083ZM137.995 77.2388C139.126 77.2388 140.119 77.46 140.973 77.9024C141.838 78.3449 142.501 78.9777 142.964 79.8008C143.438 80.6137 143.674 81.5603 143.674 82.6407C143.674 83.7211 143.438 84.6677 142.964 85.4805C142.501 86.2831 141.838 86.9056 140.973 87.3481C140.119 87.7905 139.126 88.0117 137.995 88.0117H134.229V77.2388H137.995ZM137.917 86.1751C139.049 86.1751 139.924 85.8664 140.541 85.249C141.159 84.6317 141.467 83.7622 141.467 82.6407C141.467 81.5191 141.159 80.6445 140.541 80.0169C139.924 79.379 139.049 79.06 137.917 79.06H136.39V86.1751H137.917ZM144.736 83.7056C144.736 82.8413 144.906 82.0748 145.245 81.406C145.595 80.7372 146.064 80.2227 146.65 79.8626C147.247 79.5024 147.91 79.3224 148.641 79.3224C149.279 79.3224 149.835 79.451 150.308 79.7082C150.791 79.9655 151.177 80.2896 151.465 80.6806V79.4613H153.642V88.0117H151.465V86.7616C151.188 87.1628 150.802 87.4973 150.308 87.7648C149.824 88.022 149.263 88.1506 148.626 88.1506C147.905 88.1506 147.247 87.9654 146.65 87.595C146.064 87.2246 145.595 86.705 145.245 86.0362C144.906 85.3571 144.736 84.5802 144.736 83.7056ZM151.465 83.7365C151.465 83.2117 151.363 82.7642 151.157 82.3937C150.951 82.013 150.673 81.7249 150.323 81.5294C149.973 81.3236 149.598 81.2208 149.197 81.2208C148.795 81.2208 148.425 81.3185 148.085 81.514C147.746 81.7095 147.468 81.9976 147.252 82.3783C147.046 82.7487 146.943 83.1912 146.943 83.7056C146.943 84.2201 147.046 84.6728 147.252 85.0638C147.468 85.4445 147.746 85.7378 148.085 85.9436C148.435 86.1493 148.806 86.2522 149.197 86.2522C149.598 86.2522 149.973 86.1545 150.323 85.959C150.673 85.7532 150.951 85.4651 151.157 85.0947C151.363 84.714 151.465 84.2613 151.465 83.7365ZM158.268 81.2362V85.3725C158.268 85.6606 158.335 85.8715 158.468 86.0053C158.612 86.1288 158.849 86.1905 159.178 86.1905H160.182V88.0117H158.823C157.002 88.0117 156.092 87.1268 156.092 85.3571V81.2362H155.073V79.4613H156.092V77.3468H158.268V79.4613H160.182V81.2362H158.268ZM169.684 83.5513C169.684 83.86 169.664 84.1378 169.622 84.3847H163.372C163.423 85.0021 163.639 85.4857 164.02 85.8355C164.401 86.1854 164.869 86.3603 165.424 86.3603C166.227 86.3603 166.798 86.0156 167.138 85.3262H169.468C169.221 86.1493 168.748 86.8284 168.048 87.3635C167.348 87.8882 166.489 88.1506 165.471 88.1506C164.648 88.1506 163.907 87.9706 163.248 87.6104C162.6 87.24 162.091 86.7204 161.72 86.0516C161.36 85.3828 161.18 84.6111 161.18 83.7365C161.18 82.8516 161.36 82.0748 161.72 81.406C162.08 80.7372 162.585 80.2227 163.233 79.8626C163.881 79.5024 164.627 79.3224 165.471 79.3224C166.284 79.3224 167.009 79.4973 167.647 79.8471C168.295 80.197 168.794 80.696 169.144 81.3442C169.504 81.9822 169.684 82.7179 169.684 83.5513ZM167.446 82.9339C167.436 82.3783 167.235 81.9359 166.844 81.6066C166.453 81.2671 165.975 81.0973 165.409 81.0973C164.874 81.0973 164.421 81.2619 164.051 81.5912C163.691 81.9101 163.469 82.3577 163.387 82.9339H167.446ZM174.533 88.1506C173.834 88.1506 173.206 88.0272 172.65 87.7802C172.095 87.523 171.652 87.1783 171.323 86.7461C171.004 86.314 170.829 85.8355 170.798 85.3108H172.975C173.016 85.64 173.175 85.9127 173.453 86.1288C173.741 86.3448 174.096 86.4529 174.518 86.4529C174.929 86.4529 175.248 86.3706 175.475 86.2059C175.711 86.0413 175.83 85.8304 175.83 85.5731C175.83 85.2953 175.686 85.0895 175.398 84.9558C175.12 84.8117 174.672 84.6574 174.055 84.4928C173.417 84.3384 172.892 84.1789 172.481 84.0143C172.079 83.8497 171.73 83.5976 171.431 83.258C171.143 82.9185 170.999 82.4606 170.999 81.8844C170.999 81.4111 171.133 80.979 171.4 80.588C171.678 80.197 172.069 79.8883 172.573 79.6619C173.088 79.4356 173.69 79.3224 174.379 79.3224C175.398 79.3224 176.211 79.5796 176.818 80.0941C177.425 80.5982 177.759 81.2825 177.821 82.1468H175.753C175.722 81.8072 175.578 81.5397 175.32 81.3442C175.074 81.1384 174.739 81.0355 174.317 81.0355C173.926 81.0355 173.623 81.1076 173.407 81.2516C173.201 81.3957 173.098 81.5963 173.098 81.8535C173.098 82.1416 173.242 82.3629 173.53 82.5172C173.818 82.6613 174.266 82.8105 174.873 82.9648C175.49 83.1191 176 83.2786 176.401 83.4433C176.802 83.6079 177.147 83.8651 177.435 84.215C177.733 84.5545 177.888 85.0072 177.898 85.5731C177.898 86.067 177.759 86.5095 177.481 86.9005C177.214 87.2915 176.823 87.6001 176.308 87.8265C175.804 88.0426 175.212 88.1506 174.533 88.1506ZM182.465 77.0536L182.218 84.5082H180.397L180.135 77.0536H182.465ZM181.354 88.1198C180.963 88.1198 180.639 88.0014 180.382 87.7648C180.135 87.5178 180.011 87.2143 180.011 86.8542C180.011 86.494 180.135 86.1956 180.382 85.959C180.639 85.7121 180.963 85.5886 181.354 85.5886C181.735 85.5886 182.049 85.7121 182.295 85.959C182.542 86.1956 182.666 86.494 182.666 86.8542C182.666 87.2143 182.542 87.5178 182.295 87.7648C182.049 88.0014 181.735 88.1198 181.354 88.1198Z" fill="#354563"/>
<path d="M58.441 125.03C58.441 121.233 52.9156 122.437 52.9156 120.276C52.9156 119.397 53.5484 118.98 54.3973 119.011C55.3233 119.026 55.8944 119.582 55.9407 120.292H58.3175C58.1786 118.347 56.6661 117.22 54.459 117.22C52.2365 117.22 50.6622 118.393 50.6622 120.338C50.6468 124.243 56.2031 122.838 56.2031 125.169C56.2031 125.941 55.6011 126.481 54.5825 126.481C53.5793 126.481 53.0082 125.91 52.9465 125.045H50.6314C50.6622 127.083 52.3909 128.256 54.6288 128.256C57.0828 128.256 58.441 126.728 58.441 125.03ZM60.6538 125.493C60.6538 127.453 61.7497 128.148 63.3857 128.148H64.7439V126.326H63.7406C63.0615 126.326 62.83 126.08 62.83 125.508V121.372H64.7439V119.597H62.83V117.483H60.6538V119.597H59.6352V121.372H60.6538V125.493ZM74.37 119.597H72.1938V124.305C72.1938 125.678 71.4529 126.419 70.28 126.419C69.1378 126.419 68.3816 125.678 68.3816 124.305V119.597H66.2208V124.613C66.2208 126.959 67.6562 128.256 69.6472 128.256C70.7121 128.256 71.6536 127.793 72.1938 127.067V128.148H74.37V119.597ZM75.9463 123.842C75.9463 126.512 77.6749 128.287 79.8511 128.287C81.1939 128.287 82.1508 127.669 82.6601 126.882V128.148H84.8517V116.727H82.6601V120.786C82.0736 119.983 80.9932 119.458 79.8665 119.458C77.6749 119.458 75.9463 121.172 75.9463 123.842ZM82.6755 123.872C82.6755 125.493 81.5951 126.388 80.4067 126.388C79.2492 126.388 78.1534 125.462 78.1534 123.842C78.1534 122.221 79.2492 121.357 80.4067 121.357C81.5951 121.357 82.6755 122.252 82.6755 123.872ZM86.9621 128.148H89.1228V119.597H86.9621V128.148ZM88.0579 118.579C88.8142 118.579 89.3852 118.023 89.3852 117.313C89.3852 116.603 88.8142 116.047 88.0579 116.047C87.2862 116.047 86.7306 116.603 86.7306 117.313C86.7306 118.023 87.2862 118.579 88.0579 118.579ZM99.5149 123.872C99.5149 121.172 97.5856 119.458 95.1162 119.458C92.6467 119.458 90.7175 121.172 90.7175 123.872C90.7175 126.558 92.585 128.287 95.0544 128.287C97.5393 128.287 99.5149 126.558 99.5149 123.872ZM92.9091 123.872C92.9091 122.159 93.9432 121.341 95.0853 121.341C96.2274 121.341 97.2924 122.159 97.2924 123.872C97.2924 125.57 96.1966 126.404 95.0544 126.404C93.8969 126.404 92.9091 125.57 92.9091 123.872ZM111.553 128.148H113.714V117.375H111.553V121.804H106.938V117.375H104.778V128.148H106.938V123.564H111.553V128.148ZM124.098 123.872C124.098 121.172 122.169 119.458 119.699 119.458C117.23 119.458 115.3 121.172 115.3 123.872C115.3 126.558 117.168 128.287 119.637 128.287C122.122 128.287 124.098 126.558 124.098 123.872ZM117.492 123.872C117.492 122.159 118.526 121.341 119.668 121.341C120.81 121.341 121.875 122.159 121.875 123.872C121.875 125.57 120.779 126.404 119.637 126.404C118.48 126.404 117.492 125.57 117.492 123.872ZM133.755 119.597H131.579V124.305C131.579 125.678 130.838 126.419 129.665 126.419C128.523 126.419 127.766 125.678 127.766 124.305V119.597H125.606V124.613C125.606 126.959 127.041 128.256 129.032 128.256C130.097 128.256 131.038 127.793 131.579 127.067V128.148H133.755V119.597ZM138.047 123.888C138.047 122.236 138.819 121.743 140.1 121.743H140.671V119.474C139.483 119.474 138.588 120.045 138.047 120.925V119.597H135.887V128.148H138.047V123.888ZM148.763 125.709C148.702 122.576 143.963 123.548 143.963 121.99C143.963 121.496 144.38 121.172 145.183 121.172C146.031 121.172 146.556 121.619 146.618 122.283H148.686C148.563 120.585 147.312 119.458 145.244 119.458C143.13 119.458 141.864 120.6 141.864 122.02C141.864 125.154 146.695 124.181 146.695 125.709C146.695 126.203 146.232 126.589 145.383 126.589C144.519 126.589 143.917 126.095 143.84 125.447H141.664C141.756 127.036 143.253 128.287 145.399 128.287C147.482 128.287 148.763 127.175 148.763 125.709Z" fill="#354563"/>
<path d="M65.3091 157.77L62.2995 168.543H59.7529L57.731 160.872L55.6166 168.543L53.0854 168.558L50.1838 157.77H52.4989L54.3973 166.135L56.5889 157.77H58.9966L61.0648 166.089L62.9786 157.77H65.3091ZM70.5168 168.682C69.6936 168.682 68.9528 168.502 68.2943 168.142C67.6358 167.771 67.1161 167.252 66.7354 166.583C66.365 165.914 66.1798 165.142 66.1798 164.268C66.1798 163.393 66.3702 162.621 66.7509 161.953C67.1419 161.284 67.6718 160.769 68.3406 160.409C69.0094 160.039 69.7554 159.854 70.5785 159.854C71.4017 159.854 72.1476 160.039 72.8164 160.409C73.4853 160.769 74.01 161.284 74.3907 161.953C74.7817 162.621 74.9772 163.393 74.9772 164.268C74.9772 165.142 74.7766 165.914 74.3753 166.583C73.9843 167.252 73.4492 167.771 72.7701 168.142C72.1013 168.502 71.3502 168.682 70.5168 168.682ZM70.5168 166.799C70.9078 166.799 71.273 166.706 71.6126 166.521C71.9624 166.326 72.2402 166.038 72.446 165.657C72.6518 165.276 72.7547 164.813 72.7547 164.268C72.7547 163.455 72.5386 162.832 72.1065 162.4C71.6846 161.958 71.165 161.737 70.5476 161.737C69.9303 161.737 69.4107 161.958 68.9888 162.4C68.5772 162.832 68.3714 163.455 68.3714 164.268C68.3714 165.081 68.5721 165.708 68.9734 166.151C69.3849 166.583 69.8994 166.799 70.5168 166.799ZM78.723 161.32C79.0008 160.867 79.3609 160.512 79.8033 160.255C80.2561 159.998 80.7705 159.869 81.3467 159.869V162.138H80.7757C80.0966 162.138 79.5821 162.297 79.2323 162.616C78.8927 162.935 78.723 163.491 78.723 164.283V168.543H76.5622V159.993H78.723V161.32ZM87.8645 168.543L84.9629 164.901V168.543H82.8021V157.122H84.9629V163.62L87.8336 159.993H90.6426L86.8767 164.283L90.6735 168.543H87.8645ZM95.0874 168.682C94.3877 168.682 93.76 168.558 93.2044 168.311C92.6488 168.054 92.2063 167.71 91.8771 167.277C91.5581 166.845 91.3832 166.367 91.3523 165.842H93.5285C93.5697 166.171 93.7292 166.444 94.007 166.66C94.2951 166.876 94.6501 166.984 95.0719 166.984C95.4835 166.984 95.8025 166.902 96.0288 166.737C96.2655 166.573 96.3838 166.362 96.3838 166.104C96.3838 165.827 96.2398 165.621 95.9517 165.487C95.6739 165.343 95.2263 165.189 94.6089 165.024C93.971 164.87 93.4462 164.71 93.0346 164.546C92.6334 164.381 92.2835 164.129 91.9851 163.789C91.697 163.45 91.553 162.992 91.553 162.416C91.553 161.942 91.6867 161.51 91.9543 161.119C92.2321 160.728 92.6231 160.42 93.1272 160.193C93.6417 159.967 94.2436 159.854 94.933 159.854C95.9517 159.854 96.7645 160.111 97.3716 160.625C97.9787 161.129 98.3131 161.814 98.3748 162.678H96.3066C96.2758 162.338 96.1317 162.071 95.8745 161.875C95.6276 161.67 95.2931 161.567 94.8713 161.567C94.4803 161.567 94.1768 161.639 93.9607 161.783C93.7549 161.927 93.652 162.128 93.652 162.385C93.652 162.673 93.796 162.894 94.0842 163.048C94.3723 163.193 94.8198 163.342 95.4269 163.496C96.0443 163.65 96.5536 163.81 96.9549 163.975C97.3562 164.139 97.7009 164.396 97.989 164.746C98.2873 165.086 98.4417 165.538 98.452 166.104C98.452 166.598 98.3131 167.041 98.0353 167.432C97.7677 167.823 97.3767 168.131 96.8623 168.358C96.3581 168.574 95.7665 168.682 95.0874 168.682ZM105.041 159.869C105.689 159.869 106.266 160.013 106.77 160.301C107.274 160.579 107.665 160.996 107.943 161.551C108.231 162.097 108.375 162.755 108.375 163.527V168.543H106.214V163.82C106.214 163.141 106.044 162.621 105.705 162.261C105.365 161.891 104.902 161.706 104.316 161.706C103.719 161.706 103.246 161.891 102.896 162.261C102.556 162.621 102.386 163.141 102.386 163.82V168.543H100.226V157.122H102.386V161.057C102.664 160.687 103.035 160.399 103.498 160.193C103.961 159.977 104.475 159.869 105.041 159.869ZM114.226 168.682C113.403 168.682 112.662 168.502 112.004 168.142C111.345 167.771 110.826 167.252 110.445 166.583C110.075 165.914 109.889 165.142 109.889 164.268C109.889 163.393 110.08 162.621 110.46 161.953C110.851 161.284 111.381 160.769 112.05 160.409C112.719 160.039 113.465 159.854 114.288 159.854C115.111 159.854 115.857 160.039 116.526 160.409C117.195 160.769 117.72 161.284 118.1 161.953C118.491 162.621 118.687 163.393 118.687 164.268C118.687 165.142 118.486 165.914 118.085 166.583C117.694 167.252 117.159 167.771 116.48 168.142C115.811 168.502 115.06 168.682 114.226 168.682ZM114.226 166.799C114.617 166.799 114.983 166.706 115.322 166.521C115.672 166.326 115.95 166.038 116.156 165.657C116.361 165.276 116.464 164.813 116.464 164.268C116.464 163.455 116.248 162.832 115.816 162.4C115.394 161.958 114.875 161.737 114.257 161.737C113.64 161.737 113.12 161.958 112.698 162.4C112.287 162.832 112.081 163.455 112.081 164.268C112.081 165.081 112.282 165.708 112.683 166.151C113.095 166.583 113.609 166.799 114.226 166.799ZM122.433 161.227C122.71 160.836 123.091 160.512 123.575 160.255C124.069 159.987 124.629 159.854 125.257 159.854C125.988 159.854 126.646 160.034 127.233 160.394C127.829 160.754 128.298 161.268 128.637 161.937C128.987 162.596 129.162 163.362 129.162 164.237C129.162 165.111 128.987 165.888 128.637 166.567C128.298 167.236 127.829 167.756 127.233 168.126C126.646 168.497 125.988 168.682 125.257 168.682C124.629 168.682 124.074 168.553 123.59 168.296C123.117 168.039 122.731 167.715 122.433 167.324V172.618H120.272V159.993H122.433V161.227ZM126.955 164.237C126.955 163.722 126.847 163.28 126.631 162.91C126.425 162.529 126.147 162.241 125.797 162.045C125.458 161.85 125.087 161.752 124.686 161.752C124.295 161.752 123.925 161.855 123.575 162.061C123.235 162.256 122.957 162.544 122.741 162.925C122.535 163.306 122.433 163.753 122.433 164.268C122.433 164.782 122.535 165.23 122.741 165.611C122.957 165.991 123.235 166.284 123.575 166.49C123.925 166.686 124.295 166.783 124.686 166.783C125.087 166.783 125.458 166.681 125.797 166.475C126.147 166.269 126.425 165.976 126.631 165.595C126.847 165.214 126.955 164.762 126.955 164.237Z" fill="#F8ECE0"/>
<path d="M73.7661 27.6103V44.3623H82.6461V41.6983H77.1261V27.6103H73.7661ZM90.4937 33.6103C92.2217 33.6103 93.6137 34.7143 93.6617 36.4663H87.3497C87.6137 34.6423 88.8857 33.6103 90.4937 33.6103ZM96.8057 40.1863H93.1817C92.7497 41.0743 91.9577 41.7943 90.5177 41.7943C88.8377 41.7943 87.4937 40.6903 87.3257 38.7223H97.0457C97.1177 38.2903 97.1417 37.8583 97.1417 37.4263C97.1417 33.4663 94.4297 30.8503 90.5897 30.8503C86.6537 30.8503 83.9177 33.5143 83.9177 37.7143C83.9177 41.8903 86.7257 44.5783 90.5897 44.5783C93.8777 44.5783 96.0857 42.6343 96.8057 40.1863ZM98.7302 37.6663C98.7302 41.8183 101.418 44.5783 104.802 44.5783C106.89 44.5783 108.402 43.5463 109.194 42.3943V44.4583C109.194 46.9303 107.754 47.9863 105.906 47.9863C104.226 47.9863 102.978 47.1943 102.642 45.9943H99.3062C99.6422 49.0423 102.258 50.9143 106.002 50.9143C110.37 50.9143 112.578 48.0583 112.578 44.4583V31.0663H109.194V32.9623C108.402 31.8103 106.89 30.8503 104.802 30.8503C101.418 30.8503 98.7302 33.5143 98.7302 37.6663ZM109.194 37.7143C109.194 40.2343 107.514 41.6263 105.666 41.6263C103.866 41.6263 102.162 40.1863 102.162 37.6663C102.162 35.1463 103.866 33.8023 105.666 33.8023C107.514 33.8023 109.194 35.1943 109.194 37.7143ZM121.572 33.6103C123.3 33.6103 124.692 34.7143 124.74 36.4663H118.428C118.692 34.6423 119.964 33.6103 121.572 33.6103ZM127.884 40.1863H124.26C123.828 41.0743 123.036 41.7943 121.596 41.7943C119.916 41.7943 118.572 40.6903 118.404 38.7223H128.124C128.196 38.2903 128.22 37.8583 128.22 37.4263C128.22 33.4663 125.508 30.8503 121.668 30.8503C117.732 30.8503 114.996 33.5143 114.996 37.7143C114.996 41.8903 117.804 44.5783 121.668 44.5783C124.956 44.5783 127.164 42.6343 127.884 40.1863ZM139.984 44.3623H143.344V36.5623C143.344 32.8903 141.136 30.8743 138.04 30.8743C136.336 30.8743 134.896 31.5943 134.032 32.7223V31.0663H130.672V44.3623H134.032V37.0183C134.032 34.8823 135.208 33.7303 137.032 33.7303C138.808 33.7303 139.984 34.8823 139.984 37.0183V44.3623ZM145.676 37.6663C145.676 41.8183 148.364 44.5783 151.748 44.5783C153.836 44.5783 155.324 43.6183 156.116 42.3943V44.3623H159.524V26.6023H156.116V32.9143C155.204 31.6663 153.524 30.8503 151.772 30.8503C148.364 30.8503 145.676 33.5143 145.676 37.6663ZM156.14 37.7143C156.14 40.2343 154.46 41.6263 152.612 41.6263C150.812 41.6263 149.108 40.1863 149.108 37.6663C149.108 35.1463 150.812 33.8023 152.612 33.8023C154.46 33.8023 156.14 35.1943 156.14 37.7143Z" fill="#F8ECE0"/>
</g>
<defs>
<filter id="filter0_d_315_928" x="0.989258" y="0.0795898" width="232.242" height="213.961" filterUnits="userSpaceOnUse" color-interpolation-filters="sRGB">
<feFlood flood-opacity="0" result="BackgroundImageFix"/>
<feColorMatrix in="SourceAlpha" type="matrix" values="0 0 0 0 0 0 0 0 0 0 0 0 0 0 0 0 0 0 127 0" result="hardAlpha"/>
<feOffset dy="4"/>
<feGaussianBlur stdDeviation="2"/>
<feComposite in2="hardAlpha" operator="out"/>
<feColorMatrix type="matrix" values="0 0 0 0 0 0 0 0 0 0 0 0 0 0 0 0 0 0 0.25 0"/>
<feBlend mode="normal" in2="BackgroundImageFix" result="effect1_dropShadow_315_928"/>
<feBlend mode="normal" in="SourceGraphic" in2="effect1_dropShadow_315_928" result="shape"/>
</filter>
</defs>
</svg>
