<svg width="118" height="86" viewBox="0 0 118 86" fill="none" xmlns="http://www.w3.org/2000/svg">
<rect x="1" y="22.1348" width="116" height="62.619" rx="3.68254" fill="#B8E1D1" stroke="#354563" stroke-width="2"/>
<path d="M19.6589 44.9683V50.7559C19.6589 51.4003 19.4604 51.9172 19.0633 52.3068C18.6662 52.6889 18.1418 52.8799 17.49 52.8799C16.8307 52.8799 16.3025 52.6851 15.9054 52.2956C15.5083 51.8985 15.3098 51.359 15.3098 50.6773H16.3324C16.3399 51.0594 16.4373 51.3703 16.6246 51.61C16.8194 51.8498 17.1079 51.9697 17.49 51.9697C17.8721 51.9697 18.1568 51.8573 18.3441 51.6325C18.5314 51.4003 18.625 51.1081 18.625 50.7559V44.9683H19.6589ZM21.2915 49.6996C21.2915 49.0702 21.4189 48.5196 21.6736 48.0476C21.9283 47.5681 22.2767 47.1972 22.7188 46.935C23.1683 46.6728 23.6665 46.5416 24.2134 46.5416C24.7528 46.5416 25.2211 46.6578 25.6182 46.89C26.0153 47.1223 26.3112 47.4145 26.506 47.7666V46.6428H27.5399V52.8013H26.506V51.655C26.3037 52.0146 26.0003 52.3143 25.5957 52.554C25.1986 52.7863 24.7341 52.9024 24.2022 52.9024C23.6553 52.9024 23.1608 52.7676 22.7188 52.4978C22.2767 52.2281 21.9283 51.8498 21.6736 51.3628C21.4189 50.8758 21.2915 50.3214 21.2915 49.6996ZM26.506 49.7108C26.506 49.2463 26.4123 48.8417 26.225 48.4971C26.0377 48.1524 25.783 47.8902 25.4608 47.7104C25.1462 47.5231 24.7978 47.4295 24.4157 47.4295C24.0336 47.4295 23.6852 47.5194 23.3706 47.6992C23.0559 47.879 22.8049 48.1412 22.6176 48.4858C22.4303 48.8305 22.3367 49.235 22.3367 49.6996C22.3367 50.1716 22.4303 50.5836 22.6176 50.9357C22.8049 51.2804 23.0559 51.5463 23.3706 51.7337C23.6852 51.9135 24.0336 52.0034 24.4157 52.0034C24.7978 52.0034 25.1462 51.9135 25.4608 51.7337C25.783 51.5463 26.0377 51.2804 26.225 50.9357C26.4123 50.5836 26.506 50.1753 26.506 49.7108ZM32.2687 46.5304C33.0179 46.5304 33.6247 46.7589 34.0892 47.2159C34.5538 47.6655 34.786 48.3173 34.786 49.1714V52.8013H33.7746V49.3175C33.7746 48.7031 33.621 48.2349 33.3138 47.9127C33.0066 47.583 32.5871 47.4182 32.0551 47.4182C31.5157 47.4182 31.0849 47.5868 30.7628 47.9239C30.4481 48.2611 30.2908 48.7518 30.2908 49.3961V52.8013H29.2681V46.6428H30.2908V47.5194C30.4931 47.2047 30.7665 46.9612 31.1111 46.7889C31.4633 46.6166 31.8491 46.5304 32.2687 46.5304ZM41.9182 46.6428V52.8013H40.8956V51.891C40.7008 52.2057 40.4273 52.4529 40.0752 52.6327C39.7306 52.805 39.3485 52.8912 38.9289 52.8912C38.4494 52.8912 38.0186 52.7938 37.6365 52.599C37.2544 52.3967 36.951 52.097 36.7262 51.6999C36.509 51.3029 36.4003 50.8196 36.4003 50.2502V46.6428H37.4118V50.1154C37.4118 50.7222 37.5654 51.1905 37.8725 51.5201C38.1797 51.8423 38.5993 52.0034 39.1312 52.0034C39.6781 52.0034 40.1089 51.8348 40.4236 51.4977C40.7382 51.1605 40.8956 50.6698 40.8956 50.0255V46.6428H41.9182ZM43.2629 49.6996C43.2629 49.0702 43.3902 48.5196 43.645 48.0476C43.8997 47.5681 44.2481 47.1972 44.6901 46.935C45.1396 46.6728 45.6379 46.5416 46.1848 46.5416C46.7242 46.5416 47.1925 46.6578 47.5895 46.89C47.9866 47.1223 48.2825 47.4145 48.4773 47.7666V46.6428H49.5112V52.8013H48.4773V51.655C48.2751 52.0146 47.9716 52.3143 47.5671 52.554C47.17 52.7863 46.7055 52.9024 46.1735 52.9024C45.6266 52.9024 45.1321 52.7676 44.6901 52.4978C44.2481 52.2281 43.8997 51.8498 43.645 51.3628C43.3902 50.8758 43.2629 50.3214 43.2629 49.6996ZM48.4773 49.7108C48.4773 49.2463 48.3837 48.8417 48.1964 48.4971C48.0091 48.1524 47.7544 47.8902 47.4322 47.7104C47.1175 47.5231 46.7692 47.4295 46.3871 47.4295C46.005 47.4295 45.6566 47.5194 45.3419 47.6992C45.0272 47.879 44.7763 48.1412 44.589 48.4858C44.4017 48.8305 44.308 49.235 44.308 49.6996C44.308 50.1716 44.4017 50.5836 44.589 50.9357C44.7763 51.2804 45.0272 51.5463 45.3419 51.7337C45.6566 51.9135 46.005 52.0034 46.3871 52.0034C46.7692 52.0034 47.1175 51.9135 47.4322 51.7337C47.7544 51.5463 48.0091 51.2804 48.1964 50.9357C48.3837 50.5836 48.4773 50.1753 48.4773 49.7108ZM52.2621 47.643C52.4419 47.2909 52.6967 47.0174 53.0263 46.8226C53.3635 46.6278 53.7718 46.5304 54.2513 46.5304V47.5868H53.9816C52.8353 47.5868 52.2621 48.2086 52.2621 49.4523V52.8013H51.2395V46.6428H52.2621V47.643ZM60.7362 46.6428L57.0276 55.7007H55.9712L57.1849 52.7338L54.7013 46.6428H55.8364L57.7693 51.6325L59.6798 46.6428H60.7362ZM64.4681 51.9809C65.4196 51.2167 66.165 50.5911 66.7045 50.1041C67.2439 49.6097 67.6972 49.0964 68.0643 48.5645C68.4389 48.0251 68.6262 47.4969 68.6262 46.9799C68.6262 46.493 68.5063 46.1109 68.2666 45.8337C68.0343 45.549 67.656 45.4066 67.1315 45.4066C66.6221 45.4066 66.225 45.5677 65.9403 45.8898C65.6631 46.2045 65.5132 46.6278 65.4908 47.1597H64.5018C64.5318 46.3206 64.7865 45.6726 65.266 45.2156C65.7455 44.7585 66.3636 44.53 67.1203 44.53C67.892 44.53 68.5026 44.7436 68.9521 45.1706C69.4091 45.5977 69.6376 46.1858 69.6376 46.935C69.6376 47.5568 69.4503 48.1637 69.0757 48.7556C68.7086 49.3399 68.2891 49.8569 67.8171 50.3064C67.3451 50.7484 66.7419 51.2654 66.0077 51.8573H69.8736V52.7114H64.4681V51.9809ZM75.5848 46.6091C75.4199 45.7775 74.9067 45.3616 74.0451 45.3616C73.3784 45.3616 72.8801 45.6201 72.5505 46.1371C72.2208 46.6465 72.0598 47.4894 72.0672 48.6657C72.2396 48.2761 72.5243 47.9726 72.9213 47.7554C73.3259 47.5306 73.7754 47.4182 74.2699 47.4182C75.0416 47.4182 75.6559 47.658 76.113 48.1375C76.5775 48.617 76.8097 49.28 76.8097 50.1266C76.8097 50.6361 76.7086 51.0931 76.5063 51.4977C76.3115 51.9022 76.0118 52.2244 75.6072 52.4641C75.2102 52.7039 74.7269 52.8237 74.1575 52.8237C73.3858 52.8237 72.7827 52.6514 72.3482 52.3068C71.9137 51.9622 71.6102 51.4864 71.4379 50.8796C71.2656 50.2727 71.1794 49.5235 71.1794 48.6319C71.1794 45.8823 72.1384 44.5076 74.0564 44.5076C74.7906 44.5076 75.3675 44.7061 75.7871 45.1032C76.2066 45.5003 76.4538 46.0022 76.5288 46.6091H75.5848ZM74.0564 48.2836C73.7342 48.2836 73.4308 48.351 73.1461 48.4858C72.8614 48.6132 72.6291 48.8117 72.4493 49.0815C72.277 49.3437 72.1909 49.6658 72.1909 50.0479C72.1909 50.6173 72.3557 51.0818 72.6853 51.4415C73.015 51.7936 73.487 51.9697 74.1013 51.9697C74.6258 51.9697 75.0416 51.8086 75.3488 51.4864C75.6634 51.1568 75.8208 50.7147 75.8208 50.1603C75.8208 49.5759 75.6709 49.1189 75.3712 48.7893C75.0716 48.4521 74.6333 48.2836 74.0564 48.2836ZM79.6054 47.4857V51.1156C79.6054 51.4152 79.6691 51.6288 79.7964 51.7561C79.9238 51.876 80.1448 51.9359 80.4595 51.9359H81.2124V52.8013H80.2909C79.7215 52.8013 79.2945 52.6702 79.0098 52.4079C78.7251 52.1457 78.5827 51.7149 78.5827 51.1156V47.4857H77.7848V46.6428H78.5827V45.0919H79.6054V46.6428H81.2124V47.4857H79.6054ZM85.5083 46.5304C85.9728 46.5304 86.3923 46.6316 86.7669 46.8338C87.1415 47.0286 87.4337 47.3246 87.6435 47.7217C87.8608 48.1187 87.9694 48.602 87.9694 49.1714V52.8013H86.958V49.3175C86.958 48.7031 86.8044 48.2349 86.4972 47.9127C86.1901 47.583 85.7705 47.4182 85.2386 47.4182C84.6991 47.4182 84.2683 47.5868 83.9462 47.9239C83.6315 48.2611 83.4742 48.7518 83.4742 49.3961V52.8013H82.4515V44.4851H83.4742V47.5194C83.6765 47.2047 83.9537 46.9612 84.3058 46.7889C84.6654 46.6166 85.0662 46.5304 85.5083 46.5304ZM98.2551 45.5977C99.0867 45.5977 99.8097 45.755 100.424 46.0697C101.038 46.3843 101.51 46.8263 101.84 47.3957C102.17 47.9577 102.335 48.6095 102.335 49.3512C102.335 49.943 102.237 50.5124 102.042 51.0594C101.848 51.5988 101.563 52.0371 101.188 52.3742C100.821 52.7114 100.39 52.8799 99.8958 52.8799C99.5212 52.8799 99.2328 52.7863 99.0305 52.599C98.8282 52.4117 98.7121 52.157 98.6821 51.8348C98.4499 52.157 98.1539 52.4117 97.7943 52.599C97.4422 52.7863 97.0676 52.8799 96.6705 52.8799C96.1011 52.8799 95.6516 52.7076 95.3219 52.363C94.9998 52.0109 94.8387 51.5389 94.8387 50.947C94.8387 50.3851 94.9548 49.8606 95.1871 49.3737C95.4268 48.8867 95.7565 48.4971 96.176 48.2049C96.5956 47.9052 97.0713 47.7554 97.6033 47.7554C98.315 47.7554 98.7945 48.0251 99.0418 48.5645L99.1654 47.8677H100.053L99.4913 51.1156C99.4688 51.2579 99.4576 51.389 99.4576 51.5089C99.4576 51.9584 99.6561 52.1832 100.053 52.1832C100.353 52.1832 100.611 52.0408 100.829 51.7561C101.053 51.4714 101.222 51.1156 101.334 50.6885C101.447 50.254 101.503 49.8269 101.503 49.4074C101.503 48.4259 101.207 47.6655 100.615 47.126C100.031 46.5866 99.2028 46.3169 98.1315 46.3169C97.2399 46.3169 96.4345 46.5342 95.7153 46.9687C95.0035 47.3957 94.4454 47.9839 94.0408 48.7331C93.6362 49.4823 93.4339 50.3102 93.4339 51.2167C93.4265 52.2057 93.7224 52.9661 94.3218 53.498C94.9211 54.0375 95.7527 54.3072 96.8166 54.3072C97.5209 54.3072 98.1427 54.1798 98.6821 53.9251L98.817 54.6218C98.1502 54.899 97.416 55.0377 96.6143 55.0377C95.8127 55.0377 95.1047 54.8841 94.4903 54.5769C93.8835 54.2772 93.4115 53.8427 93.0743 53.2733C92.7447 52.7114 92.5798 52.0558 92.5798 51.3066C92.5798 50.2502 92.8233 49.2875 93.3103 48.4184C93.7973 47.5418 94.4716 46.8526 95.3332 46.3506C96.2023 45.8486 97.1762 45.5977 98.2551 45.5977ZM96.9739 52.082C97.3111 52.082 97.622 51.9846 97.9067 51.7898C98.1914 51.5876 98.4162 51.3178 98.581 50.9807C98.7458 50.6361 98.8282 50.2615 98.8282 49.8569C98.8282 49.4673 98.7196 49.1526 98.5023 48.9129C98.2925 48.6657 97.9929 48.542 97.6033 48.542C97.2437 48.542 96.9252 48.6507 96.648 48.8679C96.3783 49.0777 96.1685 49.3587 96.0187 49.7108C95.8689 50.0554 95.7939 50.415 95.7939 50.7897C95.7939 51.1867 95.8951 51.5014 96.0974 51.7337C96.2997 51.9659 96.5918 52.082 96.9739 52.082ZM26.8873 62.6089V61.6761H29.0001V69.8013H27.9662V62.6089H26.8873ZM30.487 62.6089V61.6761H32.5998V69.8013H31.5659V62.6089H30.487ZM34.8509 69.8687C34.6561 69.8687 34.4913 69.8013 34.3564 69.6664C34.2216 69.5316 34.1541 69.3667 34.1541 69.1719C34.1541 68.9771 34.2216 68.8123 34.3564 68.6775C34.4913 68.5426 34.6561 68.4752 34.8509 68.4752C35.0382 68.4752 35.1955 68.5426 35.3229 68.6775C35.4577 68.8123 35.5252 68.9771 35.5252 69.1719C35.5252 69.3667 35.4577 69.5316 35.3229 69.6664C35.1955 69.8013 35.0382 69.8687 34.8509 69.8687ZM34.8509 65.0588C34.6561 65.0588 34.4913 64.9914 34.3564 64.8565C34.2216 64.7217 34.1541 64.5568 34.1541 64.362C34.1541 64.1672 34.2216 64.0024 34.3564 63.8676C34.4913 63.7327 34.6561 63.6653 34.8509 63.6653C35.0382 63.6653 35.1955 63.7327 35.3229 63.8676C35.4577 64.0024 35.5252 64.1672 35.5252 64.362C35.5252 64.5568 35.4577 64.7217 35.3229 64.8565C35.1955 64.9914 35.0382 65.0588 34.8509 65.0588ZM41.9297 62.5639H37.9851V65.1262C38.1574 64.8865 38.4121 64.6917 38.7493 64.5418C39.0864 64.3845 39.4498 64.3058 39.8394 64.3058C40.4612 64.3058 40.9669 64.437 41.3565 64.6992C41.7461 64.9539 42.0233 65.2873 42.1881 65.6994C42.3605 66.1039 42.4466 66.5347 42.4466 66.9917C42.4466 67.5312 42.3455 68.0144 42.1432 68.4415C41.9409 68.8685 41.63 69.2057 41.2104 69.4529C40.7984 69.7001 40.2852 69.8237 39.6708 69.8237C38.8841 69.8237 38.2473 69.6215 37.7603 69.2169C37.2733 68.8123 36.9774 68.2729 36.8725 67.5986H37.8727C37.9701 68.0257 38.1761 68.359 38.4908 68.5988C38.8055 68.8385 39.2026 68.9584 39.682 68.9584C40.2739 68.9584 40.7197 68.7823 41.0194 68.4302C41.3191 68.0706 41.4689 67.5986 41.4689 67.0142C41.4689 66.4298 41.3191 65.9803 41.0194 65.6657C40.7197 65.3435 40.2777 65.1824 39.6933 65.1824C39.2962 65.1824 38.9478 65.2798 38.6481 65.4746C38.3559 65.6619 38.1424 65.9204 38.0076 66.25H37.0411V61.6649H41.9297V62.5639ZM45.1205 67.6211C45.1954 68.0481 45.3677 68.3778 45.6374 68.61C45.9146 68.8423 46.2855 68.9584 46.75 68.9584C47.3719 68.9584 47.8289 68.7149 48.1211 68.2279C48.4207 67.741 48.5631 66.9206 48.5481 65.7668C48.3908 66.1039 48.1286 66.3699 47.7614 66.5647C47.3943 66.752 46.986 66.8457 46.5365 66.8457C46.0345 66.8457 45.585 66.7445 45.1879 66.5422C44.7983 66.3324 44.4912 66.029 44.2664 65.6319C44.0416 65.2349 43.9293 64.7554 43.9293 64.1935C43.9293 63.3918 44.1615 62.7475 44.626 62.2605C45.0905 61.766 45.7498 61.5188 46.6039 61.5188C47.6528 61.5188 48.387 61.8597 48.8066 62.5415C49.2336 63.2232 49.4472 64.2384 49.4472 65.587C49.4472 66.531 49.361 67.3102 49.1887 67.9245C49.0239 68.5389 48.7392 69.0071 48.3346 69.3293C47.9375 69.6514 47.3906 69.8125 46.6938 69.8125C45.9296 69.8125 45.334 69.6065 44.907 69.1944C44.4799 68.7823 44.2364 68.2579 44.1765 67.6211H45.1205ZM46.7051 65.9803C47.207 65.9803 47.6191 65.8267 47.9413 65.5196C48.2634 65.2049 48.4245 64.7816 48.4245 64.2497C48.4245 63.6877 48.2672 63.2345 47.9525 62.8898C47.6378 62.5452 47.1958 62.3729 46.6264 62.3729C46.102 62.3729 45.6824 62.5377 45.3677 62.8674C45.0606 63.197 44.907 63.6316 44.907 64.171C44.907 64.7179 45.0606 65.1562 45.3677 65.4858C45.6749 65.8155 46.1207 65.9803 46.7051 65.9803ZM52.0756 64.7778C52.2778 64.4257 52.5775 64.1335 52.9746 63.9013C53.3792 63.6615 53.8474 63.5416 54.3794 63.5416C54.9263 63.5416 55.4208 63.6728 55.8628 63.935C56.3123 64.1972 56.6644 64.5681 56.9192 65.0476C57.1739 65.5196 57.3013 66.0702 57.3013 66.6996C57.3013 67.3214 57.1739 67.8758 56.9192 68.3628C56.6644 68.8498 56.3123 69.2281 55.8628 69.4978C55.4208 69.7676 54.9263 69.9024 54.3794 69.9024C53.8549 69.9024 53.3904 69.7863 52.9858 69.554C52.5888 69.3143 52.2853 69.0183 52.0756 68.6662V72.7232H51.0529V63.6428H52.0756V64.7778ZM56.2561 66.6996C56.2561 66.235 56.1625 65.8305 55.9752 65.4858C55.7879 65.1412 55.5331 64.879 55.211 64.6992C54.8963 64.5194 54.5479 64.4295 54.1658 64.4295C53.7912 64.4295 53.4429 64.5231 53.1207 64.7104C52.806 64.8902 52.5513 65.1562 52.3565 65.5083C52.1692 65.853 52.0756 66.2538 52.0756 66.7108C52.0756 67.1753 52.1692 67.5836 52.3565 67.9357C52.5513 68.2804 52.806 68.5463 53.1207 68.7337C53.4429 68.9135 53.7912 69.0034 54.1658 69.0034C54.5479 69.0034 54.8963 68.9135 55.211 68.7337C55.5331 68.5463 55.7879 68.2804 55.9752 67.9357C56.1625 67.5836 56.2561 67.1716 56.2561 66.6996ZM66.0533 63.5304C66.5328 63.5304 66.9598 63.6316 67.3344 63.8338C67.709 64.0286 68.005 64.3246 68.2222 64.7217C68.4395 65.1187 68.5481 65.602 68.5481 66.1714V69.8013H67.5367V66.3175C67.5367 65.7031 67.3831 65.2349 67.076 64.9127C66.7763 64.583 66.368 64.4182 65.851 64.4182C65.3191 64.4182 64.8958 64.5905 64.5811 64.9352C64.2664 65.2723 64.1091 65.763 64.1091 66.4074V69.8013H63.0977V66.3175C63.0977 65.7031 62.9441 65.2349 62.6369 64.9127C62.3372 64.583 61.9289 64.4182 61.412 64.4182C60.88 64.4182 60.4567 64.5905 60.142 64.9352C59.8274 65.2723 59.67 65.763 59.67 66.4074V69.8013H58.6474V63.6428H59.67V64.5306C59.8723 64.2084 60.142 63.9612 60.4792 63.7889C60.8238 63.6166 61.2022 63.5304 61.6142 63.5304C62.1312 63.5304 62.5882 63.6465 62.9853 63.8788C63.3824 64.111 63.6783 64.4519 63.8731 64.9015C64.0454 64.4669 64.3301 64.1298 64.7272 63.89C65.1243 63.6503 65.5663 63.5304 66.0533 63.5304ZM78.4587 64.2609C78.4587 64.9127 78.234 65.4559 77.7845 65.8904C77.3424 66.3175 76.6644 66.531 75.7504 66.531H74.2445V69.8013H73.2218V61.9683H75.7504C76.6344 61.9683 77.305 62.1818 77.762 62.6089C78.2265 63.0359 78.4587 63.5866 78.4587 64.2609ZM75.7504 65.6881C76.3198 65.6881 76.7393 65.5645 77.009 65.3173C77.2787 65.07 77.4136 64.7179 77.4136 64.2609C77.4136 63.2944 76.8592 62.8112 75.7504 62.8112H74.2445V65.6881H75.7504ZM82.2134 69.8799C81.6965 69.8799 81.2319 69.79 80.8199 69.6102C80.4153 69.4229 80.0969 69.1682 79.8646 68.846C79.6324 68.5164 79.5125 68.138 79.505 67.711H80.5951C80.6326 68.0781 80.7824 68.389 81.0446 68.6437C81.3144 68.891 81.7039 69.0146 82.2134 69.0146C82.7004 69.0146 83.0825 68.8947 83.3597 68.655C83.6444 68.4077 83.7867 68.0931 83.7867 67.711C83.7867 67.4113 83.7043 67.1678 83.5395 66.9805C83.3747 66.7932 83.1686 66.6509 82.9214 66.5535C82.6742 66.4561 82.3408 66.3512 81.9212 66.2388C81.4043 66.1039 80.9885 65.9691 80.6738 65.8342C80.3666 65.6994 80.1006 65.4896 79.8759 65.2049C79.6586 64.9127 79.55 64.5231 79.55 64.0361C79.55 63.6091 79.6586 63.2307 79.8759 62.9011C80.0932 62.5714 80.3966 62.3167 80.7862 62.1369C81.1832 61.9571 81.6365 61.8672 82.146 61.8672C82.8802 61.8672 83.4796 62.0507 83.9441 62.4178C84.4161 62.785 84.682 63.2719 84.742 63.8788H83.6182C83.5807 63.5791 83.4234 63.3169 83.1462 63.0921C82.869 62.8599 82.5019 62.7437 82.0448 62.7437C81.6178 62.7437 81.2694 62.8561 80.9997 63.0809C80.73 63.2982 80.5951 63.6053 80.5951 64.0024C80.5951 64.2871 80.6738 64.5194 80.8311 64.6992C80.9959 64.879 81.1945 65.0176 81.4267 65.115C81.6665 65.2049 81.9999 65.3098 82.4269 65.4297C82.9439 65.572 83.3597 65.7143 83.6744 65.8567C83.989 65.9916 84.2587 66.2051 84.4835 66.4973C84.7083 66.782 84.8206 67.1716 84.8206 67.666C84.8206 68.0481 84.7195 68.4077 84.5172 68.7449C84.3149 69.082 84.0152 69.3555 83.6182 69.5653C83.2211 69.775 82.7528 69.8799 82.2134 69.8799ZM91.1467 61.9683V62.7999H89.0115V69.8013H87.9888V62.7999H85.8423V61.9683H91.1467Z" fill="black"/>
<path d="M97.0613 32.7185C84.8278 34.2168 25.621 34.0422 21.1464 32.7185C-0.950101 26.1814 18.6585 -2.51173 33.977 11.4257C41.7392 -3.53177 59.5092 -0.864036 67.0666 9.79296C74.5782 0.707882 91.9779 -1.62003 99.2693 14.2597C109.875 14.2597 109.295 31.2202 97.0613 32.7185Z" fill="white" stroke="#354563" stroke-width="2"/>
<path d="M35.8271 17.3301C36.6512 17.3301 37.3742 17.4912 37.996 17.8134C38.6254 18.1355 39.1086 18.5963 39.4458 19.1956C39.7904 19.7875 39.9627 20.4768 39.9627 21.2635C39.9627 22.0501 39.7904 22.7394 39.4458 23.3313C39.1086 23.9156 38.6254 24.3689 37.996 24.6911C37.3742 25.0132 36.6512 25.1743 35.8271 25.1743H33.085V17.3301H35.8271ZM35.7709 23.837C36.595 23.837 37.2319 23.6122 37.6814 23.1627C38.1309 22.7132 38.3557 22.0801 38.3557 21.2635C38.3557 20.4468 38.1309 19.81 37.6814 19.353C37.2319 18.8885 36.595 18.6562 35.7709 18.6562H34.6583V23.837H35.7709ZM46.928 21.9265C46.928 22.1513 46.9131 22.3536 46.8831 22.5334H42.3317C42.3691 22.9829 42.5265 23.335 42.8037 23.5897C43.0809 23.8445 43.4218 23.9718 43.8263 23.9718C44.4107 23.9718 44.8265 23.7209 45.0738 23.2189H46.7707C46.5909 23.8183 46.2463 24.3127 45.7368 24.7023C45.2274 25.0844 44.6018 25.2755 43.86 25.2755C43.2607 25.2755 42.7213 25.1443 42.2418 24.8821C41.7698 24.6124 41.3989 24.2341 41.1292 23.7471C40.867 23.2601 40.7359 22.6982 40.7359 22.0614C40.7359 21.417 40.867 20.8514 41.1292 20.3644C41.3914 19.8774 41.7585 19.5028 42.2305 19.2406C42.7025 18.9784 43.2457 18.8473 43.86 18.8473C44.4519 18.8473 44.9801 18.9746 45.4446 19.2294C45.9166 19.4841 46.28 19.8475 46.5347 20.3195C46.7969 20.784 46.928 21.3196 46.928 21.9265ZM45.2985 21.477C45.291 21.0724 45.1449 20.7503 44.8602 20.5105C44.5755 20.2633 44.2272 20.1396 43.8151 20.1396C43.4255 20.1396 43.0959 20.2595 42.8261 20.4993C42.5639 20.7315 42.4028 21.0574 42.3429 21.477H45.2985ZM47.6719 22.0389C47.6719 21.4096 47.7955 20.8514 48.0427 20.3644C48.2975 19.8774 48.6383 19.5028 49.0654 19.2406C49.4999 18.9784 49.9832 18.8473 50.5151 18.8473C50.9796 18.8473 51.3842 18.9409 51.7288 19.1282C52.081 19.3155 52.3619 19.5515 52.5717 19.8362V18.9484H54.1563V25.1743H52.5717V24.264C52.3694 24.5562 52.0884 24.7997 51.7288 24.9945C51.3767 25.1818 50.9684 25.2755 50.5039 25.2755C49.9794 25.2755 49.4999 25.1406 49.0654 24.8709C48.6383 24.6012 48.2975 24.2228 48.0427 23.7358C47.7955 23.2414 47.6719 22.6757 47.6719 22.0389ZM52.5717 22.0614C52.5717 21.6793 52.4968 21.3534 52.3469 21.0836C52.1971 20.8064 51.9948 20.5967 51.7401 20.4543C51.4853 20.3045 51.2119 20.2296 50.9197 20.2296C50.6275 20.2296 50.3578 20.3007 50.1105 20.4431C49.8633 20.5854 49.661 20.7952 49.5037 21.0724C49.3538 21.3421 49.2789 21.6643 49.2789 22.0389C49.2789 22.4135 49.3538 22.7431 49.5037 23.0278C49.661 23.305 49.8633 23.5186 50.1105 23.6684C50.3653 23.8183 50.635 23.8932 50.9197 23.8932C51.2119 23.8932 51.4853 23.822 51.7401 23.6796C51.9948 23.5298 52.1971 23.32 52.3469 23.0503C52.4968 22.7731 52.5717 22.4435 52.5717 22.0614ZM55.2883 22.0389C55.2883 21.4096 55.4119 20.8514 55.6592 20.3644C55.9139 19.8774 56.2585 19.5028 56.6931 19.2406C57.1276 18.9784 57.6109 18.8473 58.1428 18.8473C58.5474 18.8473 58.9332 18.9372 59.3003 19.117C59.6674 19.2893 59.9596 19.5216 60.1769 19.8137V16.8581H61.7727V25.1743H60.1769V24.2528C59.9821 24.56 59.7086 24.8072 59.3565 24.9945C59.0044 25.1818 58.5961 25.2755 58.1316 25.2755C57.6071 25.2755 57.1276 25.1406 56.6931 24.8709C56.2585 24.6012 55.9139 24.2228 55.6592 23.7358C55.4119 23.2414 55.2883 22.6757 55.2883 22.0389ZM60.1881 22.0614C60.1881 21.6793 60.1132 21.3534 59.9634 21.0836C59.8135 20.8064 59.6112 20.5967 59.3565 20.4543C59.1018 20.3045 58.8283 20.2296 58.5361 20.2296C58.2439 20.2296 57.9742 20.3007 57.727 20.4431C57.4797 20.5854 57.2775 20.7952 57.1201 21.0724C56.9703 21.3421 56.8954 21.6643 56.8954 22.0389C56.8954 22.4135 56.9703 22.7431 57.1201 23.0278C57.2775 23.305 57.4797 23.5186 57.727 23.6684C57.9817 23.8183 58.2514 23.8932 58.5361 23.8932C58.8283 23.8932 59.1018 23.822 59.3565 23.6796C59.6112 23.5298 59.8135 23.32 59.9634 23.0503C60.1132 22.7731 60.1881 22.4435 60.1881 22.0614ZM64.8827 16.8581V25.1743H63.3093V16.8581H64.8827ZM67.235 18.2067C66.9578 18.2067 66.7256 18.1205 66.5383 17.9482C66.3585 17.7684 66.2685 17.5474 66.2685 17.2852C66.2685 17.023 66.3585 16.8057 66.5383 16.6334C66.7256 16.4536 66.9578 16.3636 67.235 16.3636C67.5122 16.3636 67.7407 16.4536 67.9205 16.6334C68.1078 16.8057 68.2015 17.023 68.2015 17.2852C68.2015 17.5474 68.1078 17.7684 67.9205 17.9482C67.7407 18.1205 67.5122 18.2067 67.235 18.2067ZM68.0105 18.9484V25.1743H66.4371V18.9484H68.0105ZM73.015 18.8585C73.7567 18.8585 74.3561 19.0945 74.8131 19.5665C75.2701 20.031 75.4986 20.6828 75.4986 21.5219V25.1743H73.9253V21.7355C73.9253 21.241 73.8017 20.8626 73.5544 20.6004C73.3072 20.3307 72.9701 20.1958 72.543 20.1958C72.1085 20.1958 71.7638 20.3307 71.5091 20.6004C71.2619 20.8626 71.1382 21.241 71.1382 21.7355V25.1743H69.5649V18.9484H71.1382V19.7238C71.348 19.4541 71.614 19.2443 71.9361 19.0945C72.2658 18.9372 72.6254 18.8585 73.015 18.8585ZM82.7824 21.9265C82.7824 22.1513 82.7674 22.3536 82.7374 22.5334H78.186C78.2235 22.9829 78.3808 23.335 78.658 23.5897C78.9352 23.8445 79.2761 23.9718 79.6807 23.9718C80.2651 23.9718 80.6809 23.7209 80.9281 23.2189H82.6251C82.4453 23.8183 82.1006 24.3127 81.5912 24.7023C81.0817 25.0844 80.4561 25.2755 79.7144 25.2755C79.115 25.2755 78.5756 25.1443 78.0961 24.8821C77.6241 24.6124 77.2533 24.2341 76.9835 23.7471C76.7213 23.2601 76.5902 22.6982 76.5902 22.0614C76.5902 21.417 76.7213 20.8514 76.9835 20.3644C77.2458 19.8774 77.6129 19.5028 78.0849 19.2406C78.5569 18.9784 79.1001 18.8473 79.7144 18.8473C80.3063 18.8473 80.8345 18.9746 81.299 19.2294C81.771 19.4841 82.1343 19.8475 82.3891 20.3195C82.6513 20.784 82.7824 21.3196 82.7824 21.9265ZM81.1529 21.477C81.1454 21.0724 80.9993 20.7503 80.7146 20.5105C80.4299 20.2633 80.0815 20.1396 79.6694 20.1396C79.2799 20.1396 78.9502 20.2595 78.6805 20.4993C78.4183 20.7315 78.2572 21.0574 78.1973 21.477H81.1529Z" fill="#354563"/>
</svg>
