<svg width="75" height="58" viewBox="0 0 75 58" fill="none" xmlns="http://www.w3.org/2000/svg">
<path d="M63.5321 4.85749C58.6773 2.58825 53.4862 0.939062 48.0591 0C47.3925 1.20384 46.6139 2.82304 46.077 4.11111C40.3078 3.24435 34.5917 3.24435 28.9286 4.11111C28.3919 2.82304 27.5955 1.20384 26.923 0C21.49 0.939062 16.293 2.59431 11.4381 4.8695C1.64576 19.6524 -1.00878 34.0681 0.31849 48.2792C6.81329 53.1245 13.1075 56.068 19.2955 57.994C20.8234 55.8934 22.186 53.6603 23.3599 51.3068C21.1242 50.4581 18.9829 49.4108 16.9596 48.195C17.4964 47.7977 18.0214 47.3823 18.5287 46.955C30.8694 52.7213 44.2778 52.7213 56.4711 46.955C56.9843 47.3823 57.5092 47.7977 58.0401 48.195C56.0109 49.4168 53.8637 50.4641 51.628 51.3129C52.8019 53.6603 54.1587 55.8994 55.6924 58C61.8864 56.0739 68.1864 53.1306 74.6812 48.2792C76.2386 31.805 72.0208 17.5216 63.5321 4.85749ZM25.0412 39.5395C21.3366 39.5395 18.2986 36.0845 18.2986 31.8772C18.2986 27.6698 21.2718 24.2089 25.0412 24.2089C28.8107 24.2089 31.8486 27.6638 31.7838 31.8772C31.7896 36.0845 28.8107 39.5395 25.0412 39.5395ZM49.9586 39.5395C46.254 39.5395 43.216 36.0845 43.216 31.8772C43.216 27.6698 46.189 24.2089 49.9586 24.2089C53.728 24.2089 56.766 27.6638 56.7011 31.8772C56.7011 36.0845 53.728 39.5395 49.9586 39.5395Z" fill="#FF7347"/>
</svg>
