<svg width="443" height="240" viewBox="0 0 443 240" fill="none" xmlns="http://www.w3.org/2000/svg">
<path d="M154.134 130.679L126.988 115.783L2.90593 47.6761" fill="#FF7347"/>
<path d="M154.134 130.679L126.988 115.783L2.90593 47.6761" stroke="#354563" stroke-width="4" stroke-miterlimit="10" stroke-linecap="round" stroke-linejoin="round"/>
<path d="M139.015 89.2328L2.90598 47.6761" stroke="#354563" stroke-width="4" stroke-miterlimit="10" stroke-linecap="round" stroke-linejoin="round"/>
<path d="M172.368 40.2948L2.90589 47.676" stroke="#354563" stroke-width="4" stroke-miterlimit="10" stroke-linecap="round" stroke-linejoin="round"/>
<path d="M139.015 89.2328L172.368 40.2949" stroke="#354563" stroke-width="4" stroke-miterlimit="10" stroke-linecap="round" stroke-linejoin="round"/>
<path d="M80.5315 181.585L126.988 115.783L154.134 130.679L139.014 89.2327" fill="#FF7347"/>
<path d="M80.5315 181.585L126.988 115.783L154.134 130.679L139.014 89.2327" stroke="#354563" stroke-width="4" stroke-miterlimit="10" stroke-linecap="round" stroke-linejoin="round"/>
<path d="M80.5317 181.585L2.906 47.676" stroke="#354563" stroke-width="4" stroke-miterlimit="10" stroke-linecap="round" stroke-linejoin="round"/>
<path d="M154.134 130.679L126.988 115.783L2.90601 47.676" fill="#FF7347"/>
<path d="M80.5317 181.585L126.988 115.783L154.134 130.679L139.015 89.2327" fill="#FF7347"/>
<path d="M126.988 115.783L2.90601 47.676L80.5317 181.585L126.988 115.783Z" fill="#FF7347"/>
<path d="M126.988 115.783L154.134 130.679L139.015 89.2327L2.90601 47.676L126.988 115.783Z" fill="#FF7347"/>
<path d="M2.90601 47.676L139.015 89.2327L172.368 40.2949L2.90601 47.676Z" fill="#FF7347"/>
<path d="M126.988 115.783L154.134 130.679L139.015 89.2327M126.988 115.783L2.90601 47.676M126.988 115.783L80.5317 181.585L2.90601 47.676M2.90601 47.676L139.015 89.2327M2.90601 47.676L172.368 40.2949L139.015 89.2327" stroke="#354563" stroke-width="4" stroke-miterlimit="10" stroke-linecap="round" stroke-linejoin="round"/>
<path d="M185.546 132.904C223.444 132.647 271.482 138.873 300.257 110.318C308.108 102.526 317.675 90.4418 315.073 78.6478C312.742 68.0798 304.707 68.0536 295.062 69.0998C270.762 71.7357 256.902 91.9944 247.955 112.303C221.811 171.647 284.574 215.027 342.483 213.303C396.22 211.702 441.616 186.408 487.749 164.441" stroke="#F8ECE0" stroke-width="4" stroke-linecap="round" stroke-dasharray="8 8"/>
</svg>
