<svg width="207" height="80" viewBox="0 0 207 80" fill="none" xmlns="http://www.w3.org/2000/svg">
<path d="M23.4117 74.6085C49.1533 77.9912 173.736 77.5971 183.151 74.6085C229.646 59.8503 188.386 -4.92818 156.153 26.5374C139.82 -7.23106 102.428 -1.2083 86.5263 22.8512C70.7204 2.34051 34.1081 -2.91506 18.7658 32.9354C-3.55025 32.9354 -2.32983 71.2259 23.4117 74.6085Z" fill="#F8ECE0" stroke="#354563" stroke-width="4.03128"/>
<path d="M30.552 44.248V61H27.192V53.872H20.016V61H16.656V44.248H20.016V51.136H27.192V44.248H30.552ZM44.1311 57.808H37.4591L36.3551 61H32.8271L38.8511 44.224H42.7631L48.7871 61H45.2351L44.1311 57.808ZM43.2191 55.12L40.7951 48.112L38.3711 55.12H43.2191ZM65.3668 61H62.0068L54.3988 49.504V61H51.0388V44.224H54.3988L62.0068 55.744V44.224H65.3668V61ZM83.0153 61H79.6553L72.0473 49.504V61H68.6873V44.224H72.0473L79.6553 55.744V44.224H83.0153V61ZM96.6077 57.808H89.9357L88.8317 61H85.3037L91.3277 44.224H95.2397L101.264 61H97.7117L96.6077 57.808ZM95.6957 55.12L93.2717 48.112L90.8477 55.12H95.6957ZM117.411 44.248V61H114.051V53.872H106.875V61H103.515V44.248H106.875V51.136H114.051V44.248H117.411ZM135.893 61L129.797 53.536V61H126.437V44.248H129.797V51.76L135.893 44.248H139.949L133.037 52.552L140.141 61H135.893ZM145.711 58.336H151.231V61H142.351V44.248H145.711V58.336ZM156.727 44.248V61H153.367V44.248H156.727ZM174.375 61H171.015L163.407 49.504V61H160.047V44.224H163.407L171.015 55.744V44.224H174.375V61ZM187.151 61L181.055 53.536V61H177.695V44.248H181.055V51.76L187.151 44.248H191.207L184.295 52.552L191.399 61H187.151Z" fill="#354563"/>
</svg>
