<svg width="64" height="64" viewBox="0 0 64 64" fill="none" xmlns="http://www.w3.org/2000/svg">
<path fill-rule="evenodd" clip-rule="evenodd" d="M31.5652 17.2174C23.6411 17.2174 17.2174 23.6411 17.2174 31.5652C17.2174 39.4893 23.6411 45.913 31.5652 45.913C39.4893 45.913 45.913 39.4893 45.913 31.5652C45.913 23.6411 39.4893 17.2174 31.5652 17.2174ZM31.5652 40.1739C26.8108 40.1739 22.9565 36.3197 22.9565 31.5652C22.9565 26.8108 26.8108 22.9565 31.5652 22.9565C36.3197 22.9565 40.1739 26.8108 40.1739 31.5652C40.1739 36.3197 36.3197 40.1739 31.5652 40.1739Z" fill="#FF7347"/>
<path fill-rule="evenodd" clip-rule="evenodd" d="M11.4783 0C5.13899 0 0 5.13899 0 11.4783V51.6522C0 57.9914 5.13899 63.1304 11.4783 63.1304H51.6522C57.9914 63.1304 63.1304 57.9914 63.1304 51.6522V11.4783C63.1304 5.13899 57.9914 0 51.6522 0H11.4783ZM11.4783 5.73913H51.6522C54.8218 5.73913 57.3913 8.30863 57.3913 11.4783V51.6522C57.3913 54.8218 54.8218 57.3913 51.6522 57.3913H11.4783C8.30863 57.3913 5.73913 54.8218 5.73913 51.6522V11.4783C5.73913 8.30863 8.30863 5.73913 11.4783 5.73913Z" fill="#FF7347"/>
<path d="M48.7826 11.4783C47.1978 11.4783 45.913 12.763 45.913 14.3478C45.913 15.9326 47.1978 17.2174 48.7826 17.2174C50.3674 17.2174 51.6522 15.9326 51.6522 14.3478C51.6522 12.763 50.3674 11.4783 48.7826 11.4783Z" fill="#FF7347"/>
</svg>
