<svg width="195" height="41" viewBox="0 0 195 41" fill="none" xmlns="http://www.w3.org/2000/svg">
<mask id="path-1-inside-1_334_547" fill="white">
<path fill-rule="evenodd" clip-rule="evenodd" d="M182 9C182 4.02944 177.971 0 173 0H61C56.0294 0 52 4.02944 52 9C52 13.9706 56.0294 18 61 18H70C71.6569 18 73 19.3431 73 21C73 22.6569 71.6569 24 70 24H8.5C3.80557 24 0 27.8056 0 32.5C0 37.1944 3.80559 41 8.5 41H186.5C191.194 41 195 37.1944 195 32.5C195 27.8056 191.194 24 186.5 24H164C162.343 24 161 22.6569 161 21C161 19.3431 162.343 18 164 18H173C177.971 18 182 13.9706 182 9ZM112 24C110.343 24 109 22.6569 109 21C109 19.3431 110.343 18 112 18H138C139.657 18 141 19.3431 141 21C141 22.6569 139.657 24 138 24H112ZM40 9.5C40 4.25329 35.7467 0 30.5 0H29.5C24.2533 0 20 4.25329 20 9.5C20 14.7467 24.2533 19 29.5 19H30.5C35.7467 19 40 14.7467 40 9.5Z"/>
</mask>
<path fill-rule="evenodd" clip-rule="evenodd" d="M182 9C182 4.02944 177.971 0 173 0H61C56.0294 0 52 4.02944 52 9C52 13.9706 56.0294 18 61 18H70C71.6569 18 73 19.3431 73 21C73 22.6569 71.6569 24 70 24H8.5C3.80557 24 0 27.8056 0 32.5C0 37.1944 3.80559 41 8.5 41H186.5C191.194 41 195 37.1944 195 32.5C195 27.8056 191.194 24 186.5 24H164C162.343 24 161 22.6569 161 21C161 19.3431 162.343 18 164 18H173C177.971 18 182 13.9706 182 9ZM112 24C110.343 24 109 22.6569 109 21C109 19.3431 110.343 18 112 18H138C139.657 18 141 19.3431 141 21C141 22.6569 139.657 24 138 24H112ZM40 9.5C40 4.25329 35.7467 0 30.5 0H29.5C24.2533 0 20 4.25329 20 9.5C20 14.7467 24.2533 19 29.5 19H30.5C35.7467 19 40 14.7467 40 9.5Z" fill="#B8E1D1"/>
<path d="M61 -3H173V3H61V-3ZM70 21H61V15H70V21ZM8.5 21H70V27H8.5V21ZM186.5 44H8.5V38H186.5V44ZM164 21H186.5V27H164V21ZM173 21H164V15H173V21ZM138 21H112V15H138V21ZM112 21H138V27H112V21ZM29.5 -3H30.5V3H29.5V-3ZM30.5 22H29.5V16H30.5V22ZM30.5 16C34.0898 16 37 13.0899 37 9.5H43C43 16.4036 37.4036 22 30.5 22V16ZM23 9.5C23 13.0899 25.9102 16 29.5 16V22C22.5964 22 17 16.4036 17 9.5H23ZM30.5 -3C37.4036 -3 43 2.59644 43 9.5H37C37 5.91015 34.0898 3 30.5 3V-3ZM29.5 3C25.9102 3 23 5.91015 23 9.5H17C17 2.59644 22.5964 -3 29.5 -3V3ZM144 21C144 24.3137 141.314 27 138 27V21H144ZM138 15C141.314 15 144 17.6863 144 21H138V15ZM106 21C106 17.6863 108.686 15 112 15V21H106ZM112 21V27C108.686 27 106 24.3137 106 21H112ZM173 15C176.314 15 179 12.3137 179 9H185C185 15.6274 179.627 21 173 21V15ZM158 21C158 17.6863 160.686 15 164 15V21H158ZM164 27C160.686 27 158 24.3137 158 21H164V27ZM192 32.5C192 29.4624 189.538 27 186.5 27V21C192.851 21 198 26.1487 198 32.5H192ZM186.5 38C189.538 38 192 35.5376 192 32.5H198C198 38.8513 192.851 44 186.5 44V38ZM3 32.5C3 35.5376 5.46243 38 8.5 38V44C2.14873 44 -3 38.8513 -3 32.5H3ZM8.5 27C5.46243 27 3 29.4624 3 32.5H-3C-3 26.1487 2.14873 21 8.5 21V27ZM76 21C76 24.3137 73.3137 27 70 27V21H76ZM70 15C73.3137 15 76 17.6863 76 21H70V15ZM55 9C55 12.3137 57.6863 15 61 15V21C54.3726 21 49 15.6274 49 9H55ZM173 -3C179.627 -3 185 2.37258 185 9H179C179 5.68629 176.314 3 173 3V-3ZM61 3C57.6863 3 55 5.68629 55 9H49C49 2.37258 54.3726 -3 61 -3V3Z" fill="#354563" mask="url(#path-1-inside-1_334_547)"/>
</svg>
