<svg width="66" height="45" viewBox="0 0 66 45" fill="none" xmlns="http://www.w3.org/2000/svg">
<path d="M5 35.3434L20.3131 38.7354C20.3131 38.7354 24.7859 42.6476 30.832 42.6476C40.7903 42.6476 48.1404 32.5708 48.1404 32.5708L60.9439 29.2513L50.6369 21.7392C54.068 13.9583 53.2381 9.33479 50.6369 4L32.5085 21.7392C32.5085 21.7392 25.8421 17.0524 20.3131 17.989C13.7189 19.1061 12.2195 29.2513 12.2195 29.2513L5 35.3434Z" fill="#FF7347"/>
<path d="M5.06494 35.3434L20.378 38.7354C20.378 38.7354 24.8509 42.6476 30.897 42.6476C40.8552 42.6476 48.2054 32.5708 48.2054 32.5708L61.0089 29.2513L50.7019 21.7392C54.1329 13.9583 53.3031 9.33479 50.7019 4L32.5735 21.7392C32.5735 21.7392 25.907 17.0524 20.378 17.989C13.7838 19.1061 12.2845 29.2513 12.2845 29.2513L5.06494 35.3434Z" fill="#FF7347"/>
<path d="M20.378 38.7354L21.6947 37.23L21.3098 36.8933L20.8106 36.7827L20.378 38.7354ZM5.06494 35.3434L3.77513 33.8149L0.685699 36.4218L4.63241 37.2961L5.06494 35.3434ZM12.2845 29.2513L13.5743 30.7799L14.1524 30.292L14.263 29.5437L12.2845 29.2513ZM20.378 17.989L20.044 16.0171L20.378 17.989ZM32.5735 21.7392L31.4232 23.3753L32.7837 24.3317L33.9723 23.1686L32.5735 21.7392ZM50.7019 4L52.4995 3.12346L51.2845 0.63161L49.3031 2.57052L50.7019 4ZM50.7019 21.7392L48.8719 20.9322L48.2218 22.4064L49.5239 23.3554L50.7019 21.7392ZM61.0089 29.2513L61.5108 31.1873L65.6045 30.126L62.1869 27.6351L61.0089 29.2513ZM48.2054 32.5708L47.7035 30.6348L47.0111 30.8143L46.5896 31.3921L48.2054 32.5708ZM20.8106 36.7827L5.49748 33.3907L4.63241 37.2961L19.9455 40.6881L20.8106 36.7827ZM6.35476 36.8719L13.5743 30.7799L10.9947 27.7228L3.77513 33.8149L6.35476 36.8719ZM12.2845 29.2513C14.263 29.5437 14.2629 29.5443 14.2628 29.5448C14.2628 29.5449 14.2627 29.5454 14.2627 29.5457C14.2626 29.5462 14.2626 29.5465 14.2625 29.5467C14.2625 29.5471 14.2625 29.5469 14.2626 29.5461C14.2629 29.5445 14.2635 29.5405 14.2645 29.5343C14.2664 29.5218 14.2699 29.5002 14.275 29.4701C14.2852 29.4097 14.3018 29.3154 14.3257 29.1917C14.3734 28.9438 14.4498 28.5799 14.5614 28.1365C14.786 27.2435 15.1453 26.0581 15.6836 24.8569C16.8129 22.3367 18.4463 20.3447 20.7121 19.9609L20.044 16.0171C15.7155 16.7503 13.3022 20.3895 12.0333 23.2212C11.3724 24.696 10.9448 26.1167 10.6822 27.1609C10.5501 27.686 10.4579 28.1235 10.3979 28.4348C10.3679 28.5906 10.3458 28.7153 10.3308 28.8042C10.3233 28.8486 10.3176 28.8841 10.3135 28.9101C10.3114 28.9231 10.3098 28.9337 10.3085 28.9419C10.3079 28.9459 10.3074 28.9494 10.307 28.9523C10.3067 28.9537 10.3066 28.955 10.3064 28.9561C10.3063 28.9566 10.3062 28.9573 10.3062 28.9576C10.3061 28.9583 10.306 28.9589 12.2845 29.2513ZM20.7121 19.9609C22.8776 19.594 25.4743 20.3284 27.7325 21.3385C28.823 21.8263 29.7584 22.3435 30.4201 22.7387C30.7498 22.9355 31.0086 23.1003 31.1813 23.2132C31.2675 23.2697 31.3321 23.3131 31.3731 23.3409C31.3936 23.3549 31.4082 23.3649 31.4166 23.3707C31.4209 23.3737 31.4235 23.3755 31.4246 23.3763C31.4252 23.3767 31.4254 23.3768 31.4251 23.3766C31.425 23.3765 31.4248 23.3764 31.4245 23.3762C31.4243 23.3761 31.424 23.3758 31.4239 23.3758C31.4236 23.3755 31.4232 23.3753 32.5735 21.7392C33.7237 20.103 33.7233 20.1028 33.7229 20.1025C33.7227 20.1023 33.7222 20.102 33.7219 20.1017C33.7212 20.1012 33.7203 20.1007 33.7194 20.1C33.7176 20.0987 33.7153 20.0971 33.7126 20.0953C33.7073 20.0915 33.7003 20.0867 33.6917 20.0808C33.6746 20.0689 33.6511 20.0528 33.6214 20.0326C33.5621 19.9923 33.478 19.9359 33.3712 19.866C33.1577 19.7263 32.8524 19.5322 32.4708 19.3043C31.7098 18.8499 30.633 18.254 29.3658 17.6872C26.9085 16.588 23.4074 15.4473 20.044 16.0171L20.7121 19.9609ZM33.9723 23.1686L52.1006 5.42948L49.3031 2.57052L31.1747 20.3097L33.9723 23.1686ZM48.9042 4.87654C50.142 7.41522 50.876 9.61906 50.9653 12.0265C51.0547 14.435 50.5044 17.23 48.8719 20.9322L52.5318 22.5461C54.3304 18.4674 55.0807 15.0602 54.9626 11.8781C54.8445 8.69486 53.8629 5.91957 52.4995 3.12346L48.9042 4.87654ZM49.5239 23.3554L59.8309 30.8676L62.1869 27.6351L51.8799 20.1229L49.5239 23.3554ZM60.507 27.3153L47.7035 30.6348L48.7073 34.5067L61.5108 31.1873L60.507 27.3153ZM48.2054 32.5708C46.5896 31.3921 46.5899 31.3917 46.5902 31.3912C46.5903 31.3912 46.5906 31.3908 46.5907 31.3906C46.591 31.3902 46.5912 31.39 46.5912 31.3899C46.5913 31.3897 46.591 31.3902 46.5902 31.3912C46.5887 31.3933 46.5854 31.3977 46.5804 31.4044C46.5704 31.4179 46.5535 31.4404 46.5299 31.4714C46.4826 31.5334 46.4084 31.6294 46.3084 31.7544C46.1082 32.0045 45.8058 32.3699 45.4104 32.8122C44.6173 33.6992 43.4621 34.8818 42.0199 36.0606C39.0945 38.4515 35.2095 40.6476 30.897 40.6476V44.6476C36.5427 44.6476 41.3119 41.8052 44.5512 39.1577C46.1912 37.8173 47.496 36.4808 48.3923 35.4783C48.8415 34.9759 49.1911 34.554 49.4319 34.2531C49.5523 34.1026 49.6457 33.982 49.7109 33.8965C49.7436 33.8537 49.7691 33.8196 49.7876 33.7949C49.7968 33.7825 49.8042 33.7725 49.8098 33.7649C49.8126 33.7611 49.815 33.7579 49.8169 33.7553C49.8178 33.754 49.8187 33.7528 49.8194 33.7519C49.8198 33.7514 49.8202 33.7507 49.8204 33.7505C49.8208 33.7499 49.8212 33.7494 48.2054 32.5708ZM30.897 40.6476C28.2987 40.6476 25.9912 39.8034 24.2956 38.9184C23.4547 38.4796 22.7858 38.0418 22.3334 37.7189C22.1078 37.5578 21.9378 37.4266 21.8292 37.34C21.7749 37.2967 21.736 37.2646 21.7134 37.2456C21.702 37.2361 21.6948 37.2299 21.6916 37.2272C21.69 37.2259 21.6895 37.2254 21.69 37.2259C21.6903 37.2261 21.6908 37.2266 21.6916 37.2272C21.692 37.2276 21.6924 37.228 21.693 37.2284C21.6932 37.2287 21.6937 37.2291 21.6938 37.2292C21.6943 37.2296 21.6947 37.23 20.378 38.7354C19.0613 40.2408 19.0618 40.2413 19.0624 40.2417C19.0626 40.2419 19.0631 40.2424 19.0635 40.2427C19.0643 40.2434 19.0652 40.2442 19.0661 40.245C19.068 40.2466 19.0701 40.2485 19.0726 40.2506C19.0774 40.2548 19.0834 40.2599 19.0905 40.266C19.1046 40.2781 19.1232 40.2939 19.1461 40.313C19.1919 40.3514 19.2551 40.4034 19.3349 40.467C19.4944 40.5943 19.7212 40.7688 20.0094 40.9745C20.5846 41.3851 21.4117 41.9254 22.4448 42.4645C24.4972 43.5357 27.4492 44.6476 30.897 44.6476V40.6476Z" fill="#354563"/>
</svg>
