<svg width="88" height="73" viewBox="0 0 88 73" fill="none" xmlns="http://www.w3.org/2000/svg">
<path d="M73.7502 49.1686C76.0695 61.1521 82.9296 67.8735 82.9296 67.8735C82.9296 67.8735 57.9757 75.103 41.2656 66.0011C30.083 59.91 16.5042 49.3757 16.5063 34.4401C16.5076 26.0264 20.6272 20.4617 33.3335 18.9413C38.6228 9.00831 49.2033 9.63439 55.9174 14.0705C67.6941 21.8515 71.4308 37.1851 73.7502 49.1686Z" fill="#FF7347"/>
<path d="M82.9296 67.8735L83.5693 70.0814L87.3498 68.9861L84.5384 66.2315L82.9296 67.8735ZM73.7502 49.1686L76.007 48.7318L73.7502 49.1686ZM41.2656 66.0011L40.166 68.0198L41.2656 66.0011ZM55.9174 14.0705L54.6503 15.9884V15.9884L55.9174 14.0705ZM33.3335 18.9413L33.6066 21.2238L34.7984 21.0812L35.3625 20.0218L33.3335 18.9413ZM16.5063 34.4401L14.2076 34.4397L16.5063 34.4401ZM82.9296 67.8735C84.5384 66.2315 84.5389 66.232 84.5394 66.2326C84.5396 66.2327 84.5401 66.2332 84.5404 66.2335C84.5409 66.234 84.5414 66.2345 84.5418 66.2348C84.5425 66.2355 84.5428 66.2358 84.5427 66.2358C84.5425 66.2356 84.5407 66.2338 84.5373 66.2304C84.5306 66.2236 84.5175 66.2104 84.4985 66.1909C84.4605 66.1519 84.3987 66.0876 84.3159 65.9983C84.1503 65.8197 83.9008 65.5415 83.5893 65.1666C82.9658 64.4165 82.0965 63.2826 81.1539 61.7884C79.2671 58.7975 77.1015 54.3866 76.007 48.7318L71.4933 49.6054C72.7182 55.9341 75.1422 60.8756 77.2654 64.2413C78.3277 65.9253 79.3184 67.2208 80.0536 68.1054C80.4215 68.5479 80.7261 68.8884 80.9446 69.1242C81.054 69.2421 81.1418 69.3339 81.2055 69.3992C81.2373 69.4318 81.263 69.4579 81.2824 69.4772C81.292 69.4869 81.3001 69.495 81.3065 69.5013C81.3097 69.5045 81.3125 69.5073 81.3149 69.5096C81.3161 69.5108 81.3172 69.5119 81.3182 69.5128C81.3187 69.5133 81.3193 69.514 81.3196 69.5142C81.3202 69.5148 81.3208 69.5154 82.9296 67.8735ZM40.166 68.0198C49.1108 72.892 60.0708 73.3235 68.5481 72.6418C72.8268 72.2977 76.5638 71.6621 79.2331 71.1123C80.5693 70.8372 81.6419 70.5827 82.3857 70.3956C82.7576 70.302 83.0477 70.2251 83.2476 70.1709C83.3475 70.1437 83.425 70.1222 83.479 70.1071C83.5059 70.0995 83.527 70.0935 83.5421 70.0892C83.5497 70.087 83.5557 70.0853 83.5602 70.084C83.5625 70.0834 83.5644 70.0828 83.5659 70.0824C83.5667 70.0822 83.5675 70.0819 83.5679 70.0818C83.5686 70.0816 83.5693 70.0814 82.9296 67.8735C82.2899 65.6655 82.2904 65.6654 82.2908 65.6653C82.2907 65.6653 82.291 65.6652 82.291 65.6652C82.291 65.6652 82.2906 65.6653 82.2898 65.6655C82.2883 65.666 82.2853 65.6669 82.2808 65.6681C82.2718 65.6707 82.2568 65.675 82.2361 65.6808C82.1946 65.6924 82.1299 65.7104 82.043 65.734C81.8692 65.7812 81.6068 65.8508 81.2638 65.9371C80.5776 66.1097 79.5701 66.349 78.3058 66.6094C75.7741 67.1307 72.2282 67.7336 68.1796 68.0591C60.0025 68.7167 50.1304 68.2121 42.3652 63.9824L40.166 68.0198ZM76.007 48.7318C74.8428 42.7167 73.2924 35.683 70.4938 29.1396C67.6908 22.5857 63.5732 16.3736 57.1846 12.1526L54.6503 15.9884C60.0383 19.5484 63.6775 24.8936 66.2668 30.9475C68.8605 37.012 70.3382 43.6369 71.4933 49.6054L76.007 48.7318ZM57.1846 12.1526C53.445 9.68178 48.5762 8.22596 43.7993 8.83736C38.9174 9.4622 34.3008 12.2339 31.3045 17.8609L35.3625 20.0218C37.6554 15.7158 40.9738 13.834 44.383 13.3976C47.8972 12.9478 51.6757 14.0231 54.6503 15.9884L57.1846 12.1526ZM33.0604 16.6589C26.4571 17.449 21.66 19.3329 18.5256 22.4848C15.3389 25.6892 14.2083 29.8583 14.2076 34.4397L18.8051 34.4404C18.8056 30.6082 19.7355 27.7881 21.7855 25.7266C23.8877 23.6127 27.5037 21.954 33.6066 21.2238L33.0604 16.6589ZM14.2076 34.4397C14.2064 42.6551 17.9509 49.5498 22.9922 55.0852C28.022 60.608 34.4546 64.9089 40.166 68.0198L42.3652 63.9824C36.894 61.0023 30.9459 56.9905 26.3912 51.9895C21.848 47.001 18.8041 41.1607 18.8051 34.4404L14.2076 34.4397Z" fill="#354563"/>
<path d="M48.991 44.9334C49.8942 45.8256 51.3497 45.8167 52.2418 44.9135C53.134 44.0103 53.1251 42.5548 52.2219 41.6626L48.991 44.9334ZM3.30991 0.72225C2.05194 0.551092 0.893409 1.43212 0.72225 2.69009C0.551092 3.94806 1.43212 5.10659 2.69009 5.27775L3.30991 0.72225ZM52.2219 41.6626C47.8482 37.3423 44.7405 33.0107 42.0139 28.8072C39.3353 24.6777 36.8783 20.4198 34.026 16.6883C31.1068 12.8691 27.6524 9.41545 22.7474 6.64175C17.8605 3.87838 11.6543 1.85759 3.30991 0.72225L2.69009 5.27775C10.6189 6.35654 16.2306 8.23828 20.4844 10.6437C24.7199 13.0388 27.7288 16.0202 30.3734 19.4802C33.085 23.0278 35.2924 26.8933 38.1568 31.3091C40.9731 35.6509 44.2868 40.2866 48.991 44.9334L52.2219 41.6626Z" fill="#354563"/>
</svg>
