<svg width="83" height="40" viewBox="0 0 83 40" fill="none" xmlns="http://www.w3.org/2000/svg">
<path d="M1.50914 26.1398C3.30626 16.8677 16.6106 13.9013 19.5053 17.8232C20.0933 7.8547 30.4659 1.58925 40.1037 7.78455C47.5818 -2.40271 69.0569 4.49077 68.3219 16.9515C68.3219 16.9515 82.9604 17.5398 81.257 30.8436C80.254 38.6772 -1.07959 39.496 1.50914 26.1398Z" fill="#F8ECE0" stroke="#354563" stroke-width="2.67712"/>
<path d="M37.739 15.6V12.504H43.523V30H40.067V15.6H37.739ZM48.7143 30.168C48.1063 30.168 47.6023 29.984 47.2023 29.616C46.8183 29.232 46.6263 28.76 46.6263 28.2C46.6263 27.64 46.8183 27.176 47.2023 26.808C47.6023 26.424 48.1063 26.232 48.7143 26.232C49.3063 26.232 49.7943 26.424 50.1783 26.808C50.5623 27.176 50.7543 27.64 50.7543 28.2C50.7543 28.76 50.5623 29.232 50.1783 29.616C49.7943 29.984 49.3063 30.168 48.7143 30.168Z" fill="#354563"/>
</svg>
