<svg width="83" height="41" viewBox="0 0 83 41" fill="none" xmlns="http://www.w3.org/2000/svg">
<path d="M1.50914 26.1398C3.30626 16.8677 16.6106 13.9013 19.5053 17.8232C20.0933 7.8547 30.4659 1.58925 40.1037 7.78455C47.5818 -2.40271 69.0569 4.49077 68.3219 16.9515C68.3219 16.9515 82.9604 17.5398 81.257 30.8436C80.254 38.6772 -1.07959 39.496 1.50914 26.1398Z" fill="#F8ECE0" stroke="#354563" stroke-width="2.67712"/>
<path d="M36.66 27.208C38.196 25.928 39.42 24.864 40.332 24.016C41.244 23.152 42.004 22.256 42.612 21.328C43.22 20.4 43.524 19.488 43.524 18.592C43.524 17.776 43.332 17.136 42.948 16.672C42.564 16.208 41.972 15.976 41.172 15.976C40.372 15.976 39.756 16.248 39.324 16.792C38.892 17.32 38.668 18.048 38.652 18.976H35.388C35.452 17.056 36.02 15.6 37.092 14.608C38.18 13.616 39.556 13.12 41.22 13.12C43.044 13.12 44.444 13.608 45.42 14.584C46.396 15.544 46.884 16.816 46.884 18.4C46.884 19.648 46.548 20.84 45.876 21.976C45.204 23.112 44.436 24.104 43.572 24.952C42.708 25.784 41.58 26.792 40.188 27.976H47.268V30.76H35.412V28.264L36.66 27.208ZM51.2573 31.168C50.6493 31.168 50.1453 30.984 49.7453 30.616C49.3613 30.232 49.1693 29.76 49.1693 29.2C49.1693 28.64 49.3613 28.176 49.7453 27.808C50.1453 27.424 50.6493 27.232 51.2573 27.232C51.8493 27.232 52.3373 27.424 52.7213 27.808C53.1053 28.176 53.2973 28.64 53.2973 29.2C53.2973 29.76 53.1053 30.232 52.7213 30.616C52.3373 30.984 51.8493 31.168 51.2573 31.168Z" fill="#354563"/>
</svg>
