<svg width="83" height="40" viewBox="0 0 83 40" fill="none" xmlns="http://www.w3.org/2000/svg">
<path d="M1.50914 26.1398C3.30626 16.8677 16.6106 13.9013 19.5053 17.8232C20.0933 7.8547 30.4659 1.58925 40.1037 7.78455C47.5818 -2.40271 69.0569 4.49077 68.3219 16.9515C68.3219 16.9515 82.9604 17.5398 81.257 30.8436C80.254 38.6772 -1.07959 39.496 1.50914 26.1398Z" fill="#F8ECE0" stroke="#354563" stroke-width="2.67712"/>
<path d="M35.3591 17.112C35.4391 15.512 35.9991 14.28 37.0391 13.416C38.0951 12.536 39.4791 12.096 41.1911 12.096C42.3591 12.096 43.3591 12.304 44.1911 12.72C45.0231 13.12 45.6471 13.672 46.0631 14.376C46.4951 15.064 46.7111 15.848 46.7111 16.728C46.7111 17.736 46.4471 18.592 45.9191 19.296C45.4071 19.984 44.7911 20.448 44.0711 20.688V20.784C44.9991 21.072 45.7191 21.584 46.2311 22.32C46.7591 23.056 47.0231 24 47.0231 25.152C47.0231 26.112 46.7991 26.968 46.3511 27.72C45.9191 28.472 45.2711 29.064 44.4071 29.496C43.5591 29.912 42.5351 30.12 41.3351 30.12C39.5271 30.12 38.0551 29.664 36.9191 28.752C35.7831 27.84 35.1831 26.496 35.1191 24.72H38.3831C38.4151 25.504 38.6791 26.136 39.1751 26.616C39.6871 27.08 40.3831 27.312 41.2631 27.312C42.0791 27.312 42.7031 27.088 43.1351 26.64C43.5831 26.176 43.8071 25.584 43.8071 24.864C43.8071 23.904 43.5031 23.216 42.8951 22.8C42.2871 22.384 41.3431 22.176 40.0631 22.176H39.3671V19.416H40.0631C42.3351 19.416 43.4711 18.656 43.4711 17.136C43.4711 16.448 43.2631 15.912 42.8471 15.528C42.4471 15.144 41.8631 14.952 41.0951 14.952C40.3431 14.952 39.7591 15.16 39.3431 15.576C38.9431 15.976 38.7111 16.488 38.6471 17.112H35.3591ZM51.5503 30.168C50.9423 30.168 50.4383 29.984 50.0383 29.616C49.6543 29.232 49.4623 28.76 49.4623 28.2C49.4623 27.64 49.6543 27.176 50.0383 26.808C50.4383 26.424 50.9423 26.232 51.5503 26.232C52.1423 26.232 52.6303 26.424 53.0143 26.808C53.3983 27.176 53.5903 27.64 53.5903 28.2C53.5903 28.76 53.3983 29.232 53.0143 29.616C52.6303 29.984 52.1423 30.168 51.5503 30.168Z" fill="#354563"/>
</svg>
