<svg width="83" height="40" viewBox="0 0 83 40" fill="none" xmlns="http://www.w3.org/2000/svg">
<path d="M1.50914 26.1398C3.30626 16.8677 16.6106 13.9013 19.5053 17.8232C20.0933 7.8547 30.4659 1.58925 40.1037 7.78455C47.5818 -2.40271 69.0569 4.49077 68.3219 16.9515C68.3219 16.9515 82.9604 17.5398 81.257 30.8436C80.254 38.6772 -1.07959 39.496 1.50914 26.1398Z" fill="#F8ECE0" stroke="#354563" stroke-width="2.67712"/>
<path d="M34.4171 26.592V23.952L42.2651 12.72H46.1771V23.664H48.2891V26.592H46.1771V30H42.8171V26.592H34.4171ZM43.0331 16.32L38.1131 23.664H43.0331V16.32ZM52.3003 30.168C51.6923 30.168 51.1883 29.984 50.7883 29.616C50.4043 29.232 50.2123 28.76 50.2123 28.2C50.2123 27.64 50.4043 27.176 50.7883 26.808C51.1883 26.424 51.6923 26.232 52.3003 26.232C52.8923 26.232 53.3803 26.424 53.7643 26.808C54.1483 27.176 54.3403 27.64 54.3403 28.2C54.3403 28.76 54.1483 29.232 53.7643 29.616C53.3803 29.984 52.8923 30.168 52.3003 30.168Z" fill="#354563"/>
</svg>
