<svg width="83" height="42" viewBox="0 0 83 42" fill="none" xmlns="http://www.w3.org/2000/svg">
<path d="M1.50914 26.382C3.30626 17.1099 16.6106 14.1435 19.5053 18.0654C20.0933 8.09689 30.4659 1.83144 40.1037 8.02674C47.5818 -2.16052 69.0569 4.73296 68.3219 17.1937C68.3219 17.1937 82.9604 17.782 81.257 31.0858C80.254 38.9194 -1.07959 39.7382 1.50914 26.382Z" fill="#F8ECE0" stroke="#354563" stroke-width="2.67712"/>
<path d="M46.032 16.6502H38.256V20.7542C38.592 20.3382 39.072 20.0022 39.696 19.7462C40.32 19.4742 40.984 19.3382 41.688 19.3382C42.968 19.3382 44.016 19.6182 44.832 20.1782C45.648 20.7382 46.24 21.4582 46.608 22.3382C46.976 23.2022 47.16 24.1302 47.16 25.1222C47.16 26.9622 46.632 28.4422 45.576 29.5622C44.536 30.6822 43.048 31.2422 41.112 31.2422C39.288 31.2422 37.832 30.7862 36.744 29.8742C35.656 28.9622 35.04 27.7702 34.896 26.2982H38.16C38.304 26.9382 38.624 27.4502 39.12 27.8342C39.632 28.2182 40.28 28.4102 41.064 28.4102C42.008 28.4102 42.72 28.1142 43.2 27.5222C43.68 26.9302 43.92 26.1462 43.92 25.1702C43.92 24.1782 43.672 23.4262 43.176 22.9142C42.696 22.3862 41.984 22.1222 41.04 22.1222C40.368 22.1222 39.808 22.2902 39.36 22.6262C38.912 22.9622 38.592 23.4102 38.4 23.9702H35.184V13.6982H46.032V16.6502ZM51.5893 31.4102C50.9813 31.4102 50.4773 31.2262 50.0773 30.8582C49.6933 30.4742 49.5013 30.0022 49.5013 29.4422C49.5013 28.8822 49.6933 28.4182 50.0773 28.0502C50.4773 27.6662 50.9813 27.4742 51.5893 27.4742C52.1813 27.4742 52.6693 27.6662 53.0533 28.0502C53.4373 28.4182 53.6293 28.8822 53.6293 29.4422C53.6293 30.0022 53.4373 30.4742 53.0533 30.8582C52.6693 31.2262 52.1813 31.4102 51.5893 31.4102Z" fill="#354563"/>
</svg>
