<svg width="660" height="359" viewBox="0 0 660 359" fill="none" xmlns="http://www.w3.org/2000/svg">
<path d="M80 13.5C80 19.8513 85.1487 25 91.5 25H175.5C181.851 25 187 19.8513 187 13.5C187 7.14873 181.851 2 175.5 2H91.5C85.1487 2 80 7.14873 80 13.5Z" stroke="#F8ECE0" stroke-width="4"/>
<path d="M2 78.5C2 82.6421 5.35786 86 9.5 86H30.5C34.6421 86 38 82.6421 38 78.5C38 74.3579 34.6421 71 30.5 71H9.5C5.35786 71 2 74.3579 2 78.5Z" stroke="#F8ECE0" stroke-width="4"/>
<mask id="path-3-inside-1_445_2" fill="white">
<path fill-rule="evenodd" clip-rule="evenodd" d="M226.308 72.3677C226.308 66.0895 221.219 61 214.941 61H199.23C192.952 61 187.862 66.0895 187.862 72.3677C187.862 78.6459 192.952 83.7353 199.23 83.7353H214.941C221.219 83.7353 226.308 78.6459 226.308 72.3677ZM234.851 72.3677C234.851 66.0895 239.94 61 246.218 61H574.98C581.258 61 586.347 66.0895 586.347 72.3677C586.347 78.6459 581.258 83.7353 574.98 83.7353H562.45C560.191 83.7353 558.36 85.5663 558.36 87.825C558.36 90.0837 560.191 91.9147 562.45 91.9147H589.897C597.316 91.9147 603.331 97.9294 603.331 105.349C603.331 112.768 597.316 118.783 589.897 118.783H499.632C496.157 118.783 493.34 121.6 493.34 125.075C493.34 128.55 496.157 131.367 499.632 131.367H556.181C562.719 131.367 568.019 136.667 568.019 143.205C568.019 149.744 562.719 155.044 556.18 155.044H209.932C203.394 155.044 198.094 149.744 198.094 143.205C198.094 136.667 203.394 131.367 209.932 131.367H232.501C235.976 131.367 238.793 128.55 238.793 125.075C238.793 121.6 235.976 118.783 232.501 118.783H190.434C183.015 118.783 177 112.768 177 105.349C177 97.9294 183.015 91.9147 190.434 91.9147H317.229C319.487 91.9147 321.318 90.0837 321.318 87.825C321.318 85.5663 319.487 83.7353 317.229 83.7353H246.218C239.94 83.7353 234.851 78.6459 234.851 72.3677ZM409.794 87.825C409.794 90.0837 411.625 91.9147 413.884 91.9147H465.795C468.053 91.9147 469.884 90.0837 469.884 87.825C469.884 85.5663 468.053 83.7353 465.795 83.7353H413.884C411.625 83.7353 409.794 85.5663 409.794 87.825Z"/>
</mask>
<path d="M199.23 65H214.941V57H199.23V65ZM214.941 79.7353H199.23V87.7353H214.941V79.7353ZM574.98 57H246.218V65H574.98V57ZM562.45 87.7353H574.98V79.7353H562.45V87.7353ZM589.897 87.9147H562.45V95.9147H589.897V87.9147ZM499.632 122.783H589.897V114.783H499.632V122.783ZM556.181 127.367H499.632V135.367H556.181V127.367ZM209.932 159.044H556.18V151.044H209.932V159.044ZM232.501 127.367H209.932V135.367H232.501V127.367ZM190.434 122.783H232.501V114.783H190.434V122.783ZM317.229 87.9147H190.434V95.9147H317.229V87.9147ZM246.218 87.7353H317.229V79.7353H246.218V87.7353ZM465.795 87.9147H413.884V95.9147H465.795V87.9147ZM413.884 87.7353H465.795V79.7353H413.884V87.7353ZM413.884 79.7353C409.416 79.7353 405.794 83.3572 405.794 87.825H413.794C413.794 87.8052 413.797 87.7965 413.799 87.7913C413.803 87.7835 413.809 87.7726 413.82 87.7616C413.831 87.7506 413.842 87.7441 413.85 87.7407C413.855 87.7386 413.864 87.7353 413.884 87.7353V79.7353ZM473.884 87.825C473.884 83.3572 470.263 79.7353 465.795 79.7353V87.7353C465.815 87.7353 465.823 87.7386 465.828 87.7407C465.836 87.7441 465.847 87.7506 465.858 87.7616C465.869 87.7726 465.876 87.7835 465.879 87.7913C465.881 87.7965 465.884 87.8052 465.884 87.825H473.884ZM413.884 87.9147C413.864 87.9147 413.855 87.9114 413.85 87.9093C413.842 87.9059 413.831 87.8994 413.82 87.8884C413.809 87.8774 413.803 87.8665 413.799 87.8587C413.797 87.8535 413.794 87.8448 413.794 87.825H405.794C405.794 92.2928 409.416 95.9147 413.884 95.9147V87.9147ZM465.795 95.9147C470.263 95.9147 473.884 92.2928 473.884 87.825H465.884C465.884 87.8448 465.881 87.8535 465.879 87.8587C465.876 87.8665 465.869 87.8774 465.858 87.8884C465.847 87.8994 465.836 87.9059 465.828 87.9093C465.823 87.9114 465.814 87.9147 465.795 87.9147V95.9147ZM246.218 79.7353C242.149 79.7353 238.851 76.4367 238.851 72.3677H230.851C230.851 80.855 237.731 87.7353 246.218 87.7353V79.7353ZM325.318 87.825C325.318 83.3572 321.696 79.7353 317.229 79.7353V87.7353C317.248 87.7353 317.257 87.7386 317.262 87.7407C317.27 87.7441 317.281 87.7506 317.292 87.7616C317.303 87.7726 317.31 87.7835 317.313 87.7913C317.315 87.7965 317.318 87.8052 317.318 87.825H325.318ZM317.229 95.9147C321.696 95.9147 325.318 92.2928 325.318 87.825H317.318C317.318 87.8448 317.315 87.8535 317.313 87.8587C317.31 87.8665 317.303 87.8774 317.292 87.8884C317.281 87.8994 317.27 87.9059 317.262 87.9093C317.257 87.9114 317.248 87.9147 317.229 87.9147V95.9147ZM181 105.349C181 100.139 185.224 95.9147 190.434 95.9147V87.9147C180.806 87.9147 173 95.7202 173 105.349H181ZM190.434 114.783C185.224 114.783 181 110.559 181 105.349H173C173 114.978 180.806 122.783 190.434 122.783V114.783ZM242.793 125.075C242.793 119.391 238.185 114.783 232.501 114.783V122.783C233.766 122.783 234.793 123.809 234.793 125.075H242.793ZM232.501 135.367C238.185 135.367 242.793 130.759 242.793 125.075H234.793C234.793 126.341 233.766 127.367 232.501 127.367V135.367ZM202.094 143.205C202.094 138.877 205.603 135.367 209.932 135.367V127.367C201.185 127.367 194.094 134.458 194.094 143.205H202.094ZM209.932 151.044C205.603 151.044 202.094 147.534 202.094 143.205H194.094C194.094 151.953 201.185 159.044 209.932 159.044V151.044ZM564.019 143.205C564.019 147.534 560.509 151.044 556.18 151.044V159.044C564.928 159.044 572.019 151.953 572.019 143.205H564.019ZM556.181 135.367C560.509 135.367 564.019 138.877 564.019 143.205H572.019C572.019 134.458 564.928 127.367 556.181 127.367V135.367ZM489.34 125.075C489.34 130.759 493.948 135.367 499.632 135.367V127.367C498.366 127.367 497.34 126.341 497.34 125.075H489.34ZM499.632 114.783C493.948 114.783 489.34 119.391 489.34 125.075H497.34C497.34 123.809 498.366 122.783 499.632 122.783V114.783ZM599.331 105.349C599.331 110.559 595.107 114.783 589.897 114.783V122.783C599.526 122.783 607.331 114.978 607.331 105.349H599.331ZM589.897 95.9147C595.107 95.9147 599.331 100.139 599.331 105.349H607.331C607.331 95.7202 599.526 87.9147 589.897 87.9147V95.9147ZM554.36 87.825C554.36 92.2928 557.982 95.9147 562.45 95.9147V87.9147C562.43 87.9147 562.421 87.9114 562.416 87.9093C562.408 87.9059 562.397 87.8994 562.386 87.8884C562.375 87.8774 562.369 87.8665 562.365 87.8587C562.363 87.8535 562.36 87.8448 562.36 87.825H554.36ZM562.45 79.7353C557.982 79.7353 554.36 83.3572 554.36 87.825H562.36C562.36 87.8052 562.363 87.7965 562.365 87.7913C562.369 87.7835 562.375 87.7726 562.386 87.7616C562.397 87.7506 562.408 87.7441 562.416 87.7407C562.421 87.7386 562.43 87.7353 562.45 87.7353V79.7353ZM582.347 72.3677C582.347 76.4367 579.049 79.7353 574.98 79.7353V87.7353C583.467 87.7353 590.347 80.855 590.347 72.3677H582.347ZM246.218 57C237.731 57 230.851 63.8803 230.851 72.3677H238.851C238.851 68.2986 242.149 65 246.218 65V57ZM574.98 65C579.049 65 582.347 68.2986 582.347 72.3677H590.347C590.347 63.8803 583.467 57 574.98 57V65ZM214.941 87.7353C223.428 87.7353 230.308 80.855 230.308 72.3677H222.308C222.308 76.4367 219.01 79.7353 214.941 79.7353V87.7353ZM183.862 72.3677C183.862 80.855 190.743 87.7353 199.23 87.7353V79.7353C195.161 79.7353 191.862 76.4367 191.862 72.3677H183.862ZM214.941 65C219.01 65 222.308 68.2986 222.308 72.3677H230.308C230.308 63.8803 223.428 57 214.941 57V65ZM199.23 57C190.743 57 183.862 63.8803 183.862 72.3677H191.862C191.862 68.2986 195.161 65 199.23 65V57Z" fill="#F8ECE0" mask="url(#path-3-inside-1_445_2)"/>
<path d="M588 345.5C588 351.851 593.149 357 599.5 357H683.5C689.851 357 695 351.851 695 345.5C695 339.149 689.851 334 683.5 334H599.5C593.149 334 588 339.149 588 345.5Z" stroke="#F8ECE0" stroke-width="4"/>
</svg>
