<svg width="427" height="95" viewBox="0 0 427 95" fill="none" xmlns="http://www.w3.org/2000/svg">
<mask id="path-1-inside-1_337_38" fill="white">
<path fill-rule="evenodd" clip-rule="evenodd" d="M49.3082 82.6763C49.3082 88.9545 44.2187 94.0439 37.9405 94.0439H22.2301C15.9519 94.0439 10.8624 88.9545 10.8624 82.6763C10.8624 76.3981 15.9519 71.3086 22.2301 71.3086H37.9405C44.2187 71.3086 49.3082 76.3981 49.3082 82.6763ZM57.8505 82.6763C57.8505 88.9545 62.94 94.0439 69.2182 94.0439H397.98C404.258 94.0439 409.347 88.9545 409.347 82.6763C409.347 76.3981 404.258 71.3086 397.98 71.3086H385.45C383.191 71.3086 381.36 69.4776 381.36 67.2189C381.36 64.9603 383.191 63.1293 385.45 63.1293H412.897C420.316 63.1293 426.331 57.1146 426.331 49.6951C426.331 42.2755 420.316 36.2608 412.897 36.2608H322.632C319.157 36.2608 316.34 33.4438 316.34 29.9688C316.34 26.4938 319.157 23.6767 322.632 23.6767H379.181C385.719 23.6767 391.019 18.3765 391.019 11.8385C391.019 5.30039 385.719 0.000236511 379.18 0.000236511H32.9317C26.3937 0.000236511 21.0935 5.30039 21.0935 11.8385C21.0935 18.3765 26.3937 23.6767 32.9317 23.6767H55.5005C58.9755 23.6767 61.7926 26.4938 61.7926 29.9688C61.7926 33.4438 58.9755 36.2608 55.5005 36.2608H13.4342C6.01471 36.2608 0 42.2755 0 49.6951C0 57.1146 6.01469 63.1293 13.4342 63.1293H140.229C142.487 63.1293 144.318 64.9603 144.318 67.2189C144.318 69.4776 142.487 71.3086 140.229 71.3086H69.2182C62.94 71.3086 57.8505 76.3981 57.8505 82.6763ZM232.794 67.2189C232.794 64.9603 234.625 63.1293 236.884 63.1293H288.795C291.053 63.1293 292.884 64.9603 292.884 67.2189C292.884 69.4776 291.053 71.3086 288.795 71.3086H236.884C234.625 71.3086 232.794 69.4776 232.794 67.2189Z"/>
</mask>
<path d="M22.2301 90.0439H37.9405V98.0439H22.2301V90.0439ZM37.9405 75.3086H22.2301V67.3086H37.9405V75.3086ZM397.98 98.0439H69.2182V90.0439H397.98V98.0439ZM385.45 67.3086H397.98V75.3086H385.45V67.3086ZM412.897 67.1293H385.45V59.1293H412.897V67.1293ZM322.632 32.2608H412.897V40.2608H322.632V32.2608ZM379.181 27.6767H322.632V19.6767H379.181V27.6767ZM32.9317 -3.99976H379.18V4.00024H32.9317V-3.99976ZM55.5005 27.6767H32.9317V19.6767H55.5005V27.6767ZM13.4342 32.2608H55.5005V40.2608H13.4342V32.2608ZM140.229 67.1293H13.4342V59.1293H140.229V67.1293ZM69.2182 67.3086H140.229V75.3086H69.2182V67.3086ZM288.795 67.1293H236.884V59.1293H288.795V67.1293ZM236.884 67.3086H288.795V75.3086H236.884V67.3086ZM236.884 75.3086C232.416 75.3086 228.794 71.6867 228.794 67.2189H236.794C236.794 67.2387 236.797 67.2474 236.799 67.2526C236.803 67.2605 236.809 67.2713 236.82 67.2823C236.831 67.2934 236.842 67.2999 236.85 67.3032C236.855 67.3054 236.864 67.3086 236.884 67.3086V75.3086ZM296.884 67.2189C296.884 71.6867 293.263 75.3086 288.795 75.3086V67.3086C288.815 67.3086 288.823 67.3054 288.828 67.3032C288.836 67.2999 288.847 67.2934 288.858 67.2823C288.869 67.2713 288.876 67.2605 288.879 67.2526C288.881 67.2475 288.884 67.2387 288.884 67.2189H296.884ZM236.884 67.1293C236.864 67.1293 236.855 67.1325 236.85 67.1347C236.842 67.138 236.831 67.1445 236.82 67.1555C236.809 67.1666 236.803 67.1774 236.799 67.1853C236.797 67.1904 236.794 67.1992 236.794 67.2189H228.794C228.794 62.7512 232.416 59.1293 236.884 59.1293V67.1293ZM288.795 59.1293C293.263 59.1293 296.884 62.7512 296.884 67.2189H288.884C288.884 67.1992 288.881 67.1904 288.879 67.1853C288.876 67.1774 288.869 67.1666 288.858 67.1555C288.847 67.1445 288.836 67.138 288.828 67.1347C288.823 67.1325 288.814 67.1293 288.795 67.1293V59.1293ZM69.2182 75.3086C65.1491 75.3086 61.8505 78.6072 61.8505 82.6763H53.8505C53.8505 74.1889 60.7309 67.3086 69.2182 67.3086V75.3086ZM148.318 67.2189C148.318 71.6867 144.696 75.3086 140.229 75.3086V67.3086C140.248 67.3086 140.257 67.3054 140.262 67.3032C140.27 67.2999 140.281 67.2934 140.292 67.2823C140.303 67.2713 140.31 67.2605 140.313 67.2526C140.315 67.2474 140.318 67.2387 140.318 67.2189H148.318ZM140.229 59.1293C144.696 59.1293 148.318 62.7512 148.318 67.2189H140.318C140.318 67.1992 140.315 67.1904 140.313 67.1853C140.31 67.1774 140.303 67.1666 140.292 67.1555C140.281 67.1445 140.27 67.138 140.262 67.1347C140.257 67.1325 140.248 67.1293 140.229 67.1293V59.1293ZM4 49.6951C4 54.9054 8.22384 59.1293 13.4342 59.1293V67.1293C3.80555 67.1293 -4 59.3237 -4 49.6951H4ZM13.4342 40.2608C8.22385 40.2608 4 44.4847 4 49.6951H-4C-4 40.0664 3.80557 32.2608 13.4342 32.2608V40.2608ZM65.7926 29.9688C65.7926 35.6529 61.1847 40.2608 55.5005 40.2608V32.2608C56.7664 32.2608 57.7926 31.2346 57.7926 29.9688H65.7926ZM55.5005 19.6767C61.1847 19.6767 65.7926 24.2846 65.7926 29.9688H57.7926C57.7926 28.7029 56.7664 27.6767 55.5005 27.6767V19.6767ZM25.0935 11.8385C25.0935 16.1674 28.6028 19.6767 32.9317 19.6767V27.6767C24.1845 27.6767 17.0935 20.5857 17.0935 11.8385H25.0935ZM32.9317 4.00024C28.6028 4.00024 25.0935 7.50953 25.0935 11.8385H17.0935C17.0935 3.09126 24.1845 -3.99976 32.9317 -3.99976V4.00024ZM387.019 11.8385C387.019 7.50954 383.509 4.00024 379.18 4.00024V-3.99976C387.928 -3.99976 395.019 3.09125 395.019 11.8385H387.019ZM379.181 19.6767C383.509 19.6767 387.019 16.1674 387.019 11.8385H395.019C395.019 20.5857 387.928 27.6767 379.181 27.6767V19.6767ZM312.34 29.9688C312.34 24.2846 316.948 19.6767 322.632 19.6767V27.6767C321.366 27.6767 320.34 28.7029 320.34 29.9688H312.34ZM322.632 40.2608C316.948 40.2608 312.34 35.6529 312.34 29.9688H320.34C320.34 31.2346 321.366 32.2608 322.632 32.2608V40.2608ZM422.331 49.6951C422.331 44.4847 418.107 40.2608 412.897 40.2608V32.2608C422.526 32.2608 430.331 40.0664 430.331 49.6951H422.331ZM412.897 59.1293C418.107 59.1293 422.331 54.9054 422.331 49.6951H430.331C430.331 59.3237 422.526 67.1293 412.897 67.1293V59.1293ZM377.36 67.2189C377.36 62.7512 380.982 59.1293 385.45 59.1293V67.1293C385.43 67.1293 385.421 67.1325 385.416 67.1347C385.408 67.138 385.397 67.1445 385.386 67.1555C385.375 67.1666 385.369 67.1774 385.365 67.1853C385.363 67.1904 385.36 67.1992 385.36 67.2189H377.36ZM385.45 75.3086C380.982 75.3086 377.36 71.6867 377.36 67.2189H385.36C385.36 67.2387 385.363 67.2474 385.365 67.2526C385.369 67.2605 385.375 67.2713 385.386 67.2823C385.397 67.2934 385.408 67.2999 385.416 67.3032C385.421 67.3054 385.43 67.3086 385.45 67.3086V75.3086ZM405.347 82.6763C405.347 78.6072 402.049 75.3086 397.98 75.3086V67.3086C406.467 67.3086 413.347 74.1889 413.347 82.6763H405.347ZM69.2182 98.0439C60.7309 98.0439 53.8505 91.1636 53.8505 82.6763H61.8505C61.8505 86.7453 65.1491 90.0439 69.2182 90.0439V98.0439ZM397.98 90.0439C402.049 90.0439 405.347 86.7453 405.347 82.6763H413.347C413.347 91.1636 406.467 98.0439 397.98 98.0439V90.0439ZM37.9405 67.3086C46.4279 67.3086 53.3082 74.1889 53.3082 82.6763H45.3082C45.3082 78.6072 42.0096 75.3086 37.9405 75.3086V67.3086ZM6.86239 82.6763C6.86239 74.1889 13.7427 67.3086 22.2301 67.3086V75.3086C18.161 75.3086 14.8624 78.6072 14.8624 82.6763H6.86239ZM37.9405 90.0439C42.0096 90.0439 45.3082 86.7453 45.3082 82.6763H53.3082C53.3082 91.1636 46.4279 98.0439 37.9405 98.0439V90.0439ZM22.2301 98.0439C13.7427 98.0439 6.86239 91.1636 6.86239 82.6763H14.8624C14.8624 86.7453 18.161 90.0439 22.2301 90.0439V98.0439Z" fill="#F8ECE0" mask="url(#path-1-inside-1_337_38)"/>
</svg>
