<svg width="109" height="52" viewBox="0 0 109 52" fill="none" xmlns="http://www.w3.org/2000/svg">
<path d="M1.67172 34.975C4.04329 22.771 21.6004 18.8665 25.4203 24.0286C26.1962 10.9078 39.8845 2.66113 52.603 10.8155C62.4714 -2.59315 90.8109 6.48017 89.841 22.8812C89.841 22.8812 109.159 23.6556 106.911 41.1663C105.587 51.477 -1.7445 52.5547 1.67172 34.975Z" fill="#F8ECE0" stroke="#354563" stroke-width="2"/>
<path d="M35.722 39.644L32.95 34.748H31.762V39.644H29.242V27.08H33.958C34.93 27.08 35.758 27.254 36.442 27.602C37.126 27.938 37.636 28.4 37.972 28.988C38.32 29.564 38.494 30.212 38.494 30.932C38.494 31.76 38.254 32.51 37.774 33.182C37.294 33.842 36.58 34.298 35.632 34.55L38.638 39.644H35.722ZM31.762 32.858H33.868C34.552 32.858 35.062 32.696 35.398 32.372C35.734 32.036 35.902 31.574 35.902 30.986C35.902 30.41 35.734 29.966 35.398 29.654C35.062 29.33 34.552 29.168 33.868 29.168H31.762V32.858ZM50.1873 29.672V39.644H47.6493V38.384C47.3253 38.816 46.8993 39.158 46.3713 39.41C45.8553 39.65 45.2913 39.77 44.6793 39.77C43.8993 39.77 43.2093 39.608 42.6093 39.284C42.0093 38.948 41.5353 38.462 41.1873 37.826C40.8513 37.178 40.6833 36.41 40.6833 35.522V29.672H43.2033V35.162C43.2033 35.954 43.4013 36.566 43.7973 36.998C44.1933 37.418 44.7333 37.628 45.4173 37.628C46.1133 37.628 46.6593 37.418 47.0553 36.998C47.4513 36.566 47.6493 35.954 47.6493 35.162V29.672H50.1873ZM55.1936 31.13C55.5176 30.65 55.9616 30.26 56.5256 29.96C57.1016 29.66 57.7556 29.51 58.4876 29.51C59.3396 29.51 60.1076 29.72 60.7916 30.14C61.4876 30.56 62.0336 31.16 62.4296 31.94C62.8376 32.708 63.0416 33.602 63.0416 34.622C63.0416 35.642 62.8376 36.548 62.4296 37.34C62.0336 38.12 61.4876 38.726 60.7916 39.158C60.1076 39.59 59.3396 39.806 58.4876 39.806C57.7436 39.806 57.0896 39.662 56.5256 39.374C55.9736 39.074 55.5296 38.69 55.1936 38.222V39.644H52.6736V26.324H55.1936V31.13ZM60.4676 34.622C60.4676 34.022 60.3416 33.506 60.0896 33.074C59.8496 32.63 59.5256 32.294 59.1176 32.066C58.7216 31.838 58.2896 31.724 57.8216 31.724C57.3656 31.724 56.9336 31.844 56.5256 32.084C56.1296 32.312 55.8056 32.648 55.5536 33.092C55.3136 33.536 55.1936 34.058 55.1936 34.658C55.1936 35.258 55.3136 35.78 55.5536 36.224C55.8056 36.668 56.1296 37.01 56.5256 37.25C56.9336 37.478 57.3656 37.592 57.8216 37.592C58.2896 37.592 58.7216 37.472 59.1176 37.232C59.5256 36.992 59.8496 36.65 60.0896 36.206C60.3416 35.762 60.4676 35.234 60.4676 34.622ZM67.3929 31.22C67.7169 30.692 68.1369 30.278 68.6529 29.978C69.1809 29.678 69.7809 29.528 70.4529 29.528V32.174H69.7869C68.9949 32.174 68.3949 32.36 67.9869 32.732C67.5909 33.104 67.3929 33.752 67.3929 34.676V39.644H64.8729V29.672H67.3929V31.22ZM73.4282 28.484C72.9842 28.484 72.6122 28.346 72.3122 28.07C72.0242 27.782 71.8802 27.428 71.8802 27.008C71.8802 26.588 72.0242 26.24 72.3122 25.964C72.6122 25.676 72.9842 25.532 73.4282 25.532C73.8722 25.532 74.2382 25.676 74.5262 25.964C74.8262 26.24 74.9762 26.588 74.9762 27.008C74.9762 27.428 74.8262 27.782 74.5262 28.07C74.2382 28.346 73.8722 28.484 73.4282 28.484ZM74.6702 29.672V39.644H72.1502V29.672H74.6702ZM76.512 34.658C76.512 33.626 76.722 32.726 77.142 31.958C77.562 31.178 78.144 30.578 78.888 30.158C79.632 29.726 80.484 29.51 81.444 29.51C82.68 29.51 83.7 29.822 84.504 30.446C85.32 31.058 85.866 31.922 86.142 33.038H83.424C83.28 32.606 83.034 32.27 82.686 32.03C82.35 31.778 81.93 31.652 81.426 31.652C80.706 31.652 80.136 31.916 79.716 32.444C79.296 32.96 79.086 33.698 79.086 34.658C79.086 35.606 79.296 36.344 79.716 36.872C80.136 37.388 80.706 37.646 81.426 37.646C82.446 37.646 83.112 37.19 83.424 36.278H86.142C85.866 37.358 85.32 38.216 84.504 38.852C83.688 39.488 82.668 39.806 81.444 39.806C80.484 39.806 79.632 39.596 78.888 39.176C78.144 38.744 77.562 38.144 77.142 37.376C76.722 36.596 76.512 35.69 76.512 34.658Z" fill="#354563"/>
</svg>
