<svg width="117" height="99" viewBox="0 0 117 99" fill="none" xmlns="http://www.w3.org/2000/svg">
<path d="M44.6621 45.2394L37.0037 37.4789L2.00015 2" fill="#FF7347"/>
<path d="M44.6621 45.2394L37.0037 37.4789L2.00015 2" stroke="#354563" stroke-width="3.87324" stroke-miterlimit="10" stroke-linecap="round" stroke-linejoin="round"/>
<path d="M43.7358 29.7324L1.99994 2" stroke="#354563" stroke-width="3.87324" stroke-miterlimit="10" stroke-linecap="round" stroke-linejoin="round"/>
<path d="M59.9189 16.581L1.99993 2" stroke="#354563" stroke-width="3.87324" stroke-miterlimit="10" stroke-linecap="round" stroke-linejoin="round"/>
<path d="M43.7358 29.7325L59.9189 16.5811" stroke="#354563" stroke-width="3.87324" stroke-miterlimit="10" stroke-linecap="round" stroke-linejoin="round"/>
<path d="M14.7008 55L37.0037 37.4789L44.6621 45.2395L43.7361 29.7324" fill="#FF7347"/>
<path d="M14.7008 55L37.0037 37.4789L44.6621 45.2395L43.7361 29.7324" stroke="#354563" stroke-width="3.87324" stroke-miterlimit="10" stroke-linecap="round" stroke-linejoin="round"/>
<path d="M14.7007 55L1.99999 2" stroke="#354563" stroke-width="3.87324" stroke-miterlimit="10" stroke-linecap="round" stroke-linejoin="round"/>
<path d="M44.662 45.2394L37.0035 37.4789L2 2" fill="#FF7347"/>
<path d="M14.7007 55L37.0035 37.4789L44.662 45.2394L43.7359 29.7324" fill="#FF7347"/>
<path d="M37.0035 37.4789L2 2L14.7007 55L37.0035 37.4789Z" fill="#FF7347"/>
<path d="M37.0035 37.4789L44.662 45.2394L43.7359 29.7324L2 2L37.0035 37.4789Z" fill="#FF7347"/>
<path d="M2 2L43.7359 29.7324L59.919 16.581L2 2Z" fill="#FF7347"/>
<path d="M37.0035 37.4789L44.662 45.2394L43.7359 29.7324M37.0035 37.4789L2 2M37.0035 37.4789L14.7007 55L2 2M2 2L43.7359 29.7324M2 2L59.919 16.581L43.7359 29.7324" stroke="#354563" stroke-width="3.87324" stroke-miterlimit="10" stroke-linecap="round" stroke-linejoin="round"/>
<path d="M79.3145 65.8974C70.7948 56.9173 64.225 55.4964 52 54C61.4309 56.503 66.1936 59.8263 73.3392 70.9961C71.5949 73.285 70.8738 77.5126 73.3392 80.344C67.9094 92.9073 80.4881 100.405 91.246 95.3599C100.249 99.4034 106.149 95.3599 108.546 89.8578C114.354 87.8385 116.567 78.8437 109.929 74.3462C105.504 61.4046 90.753 60.0279 79.3145 65.8974Z" fill="#B8E1D1" stroke="#354563" stroke-width="4"/>
</svg>
