<svg width="303" height="307" viewBox="0 0 303 307" fill="none" xmlns="http://www.w3.org/2000/svg">
<g filter="url(#filter0_d_355_10)">
<path d="M299.734 130.682C300.968 140.058 293.187 148 283.365 148H235.443C231.332 148 227.838 144.617 227.259 140.224C226.681 135.83 229.181 131.658 233.151 130.594L279.441 118.191C288.928 115.649 298.499 121.306 299.734 130.682ZM27.5946 114.327C18.1074 111.785 12.6468 102.1 16.2658 93.3629C19.8849 84.6258 30.5945 81.6386 39.1005 86.5496L80.6027 110.511C84.1622 112.566 85.4972 117.243 83.8014 121.337C82.1057 125.431 77.8544 127.794 73.8843 126.731L27.5946 114.327ZM6.26616 169.318C5.03178 159.942 12.813 152 22.6349 152H70.5575C74.6676 152 78.1624 155.383 78.7408 159.776C79.3192 164.17 76.8191 168.342 72.849 169.406L26.5594 181.809C17.0722 184.351 7.50055 178.694 6.26616 169.318ZM278.405 185.673C287.893 188.215 293.353 197.9 289.734 206.637C286.115 215.374 275.405 218.361 266.899 213.451L225.397 189.489C221.838 187.434 220.503 182.757 222.199 178.663C223.894 174.569 228.146 172.206 232.116 173.27L278.405 185.673ZM270.416 59.9033C276.173 67.4061 273.405 78.1745 264.9 83.0854L223.397 107.047C219.838 109.102 215.12 107.919 212.422 104.404C209.725 100.888 209.804 96.0249 212.71 93.1185L246.596 59.2322C253.541 52.2871 264.659 52.4006 270.416 59.9033ZM62.2321 56.4038C55.287 49.4587 55.4005 38.3408 62.9033 32.5837C70.406 26.8267 81.1744 29.5946 86.0853 38.1005L110.047 79.6027C112.102 83.1622 110.919 87.8803 107.404 90.5779C103.888 93.2754 99.0248 93.1965 96.1185 90.2901L62.2321 56.4038ZM35.5837 240.097C29.8266 232.594 32.5945 221.826 41.1005 216.915L82.6026 192.953C86.1621 190.898 90.8802 192.081 93.5778 195.596C96.2753 199.112 96.1964 203.975 93.2901 206.882L59.4037 240.768C52.4586 247.713 41.3407 247.599 35.5837 240.097ZM243.768 243.596C250.713 250.541 250.599 261.659 243.097 267.416C235.594 273.173 224.826 270.406 219.915 261.9L195.953 220.397C193.898 216.838 195.081 212.12 198.596 209.422C202.112 206.725 206.975 206.804 209.882 209.71L243.768 243.596ZM209.637 13.2658C218.374 16.8849 221.361 27.5945 216.451 36.1005L192.489 77.6027C190.434 81.1622 185.757 82.4972 181.663 80.8014C177.569 79.1057 175.206 74.8544 176.27 70.8843L188.673 24.5946C191.215 15.1075 200.9 9.64681 209.637 13.2658ZM121.191 23.5593C118.649 14.0722 124.306 4.50054 133.682 3.26616C143.058 2.03178 151 9.81305 151 19.6349V67.5574C151 71.6676 147.617 75.1624 143.224 75.7408C138.83 76.3192 134.658 73.8191 133.594 69.849L121.191 23.5593ZM96.3628 286.734C87.6257 283.115 84.6385 272.405 89.5495 263.9L113.511 222.397C115.566 218.838 120.243 217.503 124.337 219.199C128.431 220.894 130.794 225.146 129.73 229.116L117.327 275.405C114.785 284.893 105.1 290.353 96.3628 286.734ZM184.809 276.441C187.351 285.928 181.694 295.499 172.318 296.734C162.942 297.968 155 290.187 155 280.365V232.443C155 228.332 158.383 224.838 162.776 224.259C167.17 223.681 171.342 226.181 172.406 230.151L184.809 276.441Z" fill="#FF7347" stroke="#354563" stroke-width="4"/>
<path d="M207.018 150C207.018 179.834 182.834 204.018 153 204.018C123.167 204.018 98.9817 179.834 98.9817 150C98.9817 120.167 123.167 95.9817 153 95.9817C182.834 95.9817 207.018 120.167 207.018 150Z" fill="#FF7347" stroke="#354563" stroke-width="4"/>
</g>
<defs>
<filter id="filter0_d_355_10" x="0.13501" y="1.13525" width="305.73" height="305.73" filterUnits="userSpaceOnUse" color-interpolation-filters="sRGB">
<feFlood flood-opacity="0" result="BackgroundImageFix"/>
<feColorMatrix in="SourceAlpha" type="matrix" values="0 0 0 0 0 0 0 0 0 0 0 0 0 0 0 0 0 0 127 0" result="hardAlpha"/>
<feOffset dy="4"/>
<feGaussianBlur stdDeviation="2"/>
<feComposite in2="hardAlpha" operator="out"/>
<feColorMatrix type="matrix" values="0 0 0 0 0 0 0 0 0 0 0 0 0 0 0 0 0 0 0.25 0"/>
<feBlend mode="normal" in2="BackgroundImageFix" result="effect1_dropShadow_355_10"/>
<feBlend mode="normal" in="SourceGraphic" in2="effect1_dropShadow_355_10" result="shape"/>
</filter>
</defs>
</svg>
