<svg width="127" height="121" viewBox="0 0 127 121" fill="none" xmlns="http://www.w3.org/2000/svg">
<path d="M4.81973 40.029L2.96725 39.2404L4.81973 40.029C5.96824 37.3312 9.36284 36.2743 12.1967 37.9104L30.5886 48.529C31.5338 49.0747 32.0122 50.4203 31.4701 51.729C30.928 53.0376 29.6383 53.6509 28.5841 53.3684L8.07054 47.8718C4.9098 47.0249 3.25678 43.8772 4.35233 41.1574C4.50445 40.7798 4.66026 40.4036 4.81973 40.029ZM111.492 25.9853L113.087 24.7366L111.492 25.9853C111.743 26.3058 111.991 26.6288 112.236 26.9542C113.998 29.2978 113.216 32.766 110.382 34.4022L91.9904 45.0208C91.0452 45.5665 89.6407 45.3079 88.7784 44.1841C87.9161 43.0604 88.0299 41.6368 88.8016 40.8651L103.819 25.8481C106.132 23.5343 109.685 23.6766 111.492 25.9853ZM124.319 56.9513C124.673 59.862 122.262 62.4746 118.99 62.4746H97.7525C96.6611 62.4746 95.5741 61.5484 95.3892 60.144C95.2043 58.7397 96.0146 57.5637 97.0688 57.2813L117.582 51.7847C120.743 50.9378 123.748 52.8372 124.16 55.7404C124.217 56.1435 124.27 56.5472 124.319 56.9513ZM116.534 81.1283C119.695 81.9752 121.348 85.1229 120.252 87.8427C120.1 88.2203 119.944 88.5965 119.785 88.971C118.636 91.6689 115.242 92.7258 112.408 91.0897L94.0158 80.4711C93.0706 79.9254 92.5923 78.5798 93.1343 77.2711C93.6764 75.9624 94.9661 75.3492 96.0203 75.6317L116.534 81.1283ZM23.6503 22.9837C21.3365 20.6699 21.4788 17.1174 23.7874 15.3098C24.108 15.0588 24.431 14.8109 24.7564 14.5662C27.1 12.8041 30.5682 13.5861 32.2043 16.4199L42.8229 34.8119C43.3686 35.7571 43.1101 37.1616 41.9863 38.0239C40.8625 38.8862 39.439 38.7724 38.6673 38.0007L23.6503 22.9837ZM100.954 106.016C103.268 108.33 103.126 111.883 100.817 113.69C100.496 113.941 100.173 114.189 99.848 114.434C97.5044 116.196 94.0362 115.414 92.4001 112.58L81.7815 94.1882C81.2358 93.243 81.4943 91.8385 82.6181 90.9762C83.7419 90.1139 85.1654 90.2277 85.9372 90.9994L100.954 106.016ZM86.7732 7.01752C89.4711 8.16603 90.528 11.5606 88.8919 14.3945L78.2733 32.7864C77.7276 33.7316 76.382 34.2099 75.0733 33.6679C73.7646 33.1258 73.1514 31.8361 73.4339 30.7819L78.9305 10.2683C79.7774 7.10759 82.9251 5.45458 85.6448 6.55012C86.0225 6.70224 86.3986 6.85805 86.7732 7.01752ZM49.5868 9.21987C48.7399 6.05913 50.6394 3.05373 53.5426 2.64261C53.9457 2.58553 54.3493 2.53239 54.7535 2.48319C57.6641 2.12891 60.2767 4.54028 60.2767 7.81252L60.2767 29.0497C60.2767 30.1411 59.3506 31.2282 57.9462 31.413C56.5418 31.5979 55.3659 30.7876 55.0834 29.7334L49.5868 9.21987Z" fill="#F8ECE0" stroke="#354563" stroke-width="4.05093"/>
<circle cx="62.3022" cy="64.5" r="22.0624" fill="#F8ECE0" stroke="#354563" stroke-width="4.05093"/>
</svg>
