<svg width="92" height="141" viewBox="0 0 92 141" fill="none" xmlns="http://www.w3.org/2000/svg">
<path fill-rule="evenodd" clip-rule="evenodd" d="M63.7522 99.1979C66.1202 99.7229 69.452 100.462 72.3007 102.164C79.0208 106.179 81.2407 112.707 81.9699 118.982C82.4526 123.136 82.3472 128.082 82.245 132.882C82.203 134.854 82.1615 136.801 82.1615 138.658L70.1615 138.658C70.1615 136.084 70.213 133.747 70.2605 131.592C70.3557 127.27 70.4349 123.678 70.0501 120.367C69.522 115.822 68.2726 113.736 66.1454 112.465C65.2002 111.9 63.7635 111.492 61.0669 110.894C60.8923 110.855 60.712 110.816 60.5267 110.775C58.2262 110.269 55.1422 109.592 52.2576 108.276C48.9331 106.76 45.6724 104.333 43.3495 100.252C41.0939 96.2885 40.0146 91.2772 40.0146 85.063H52.0146C52.0146 89.9744 52.8792 92.7354 53.7786 94.3156C54.6108 95.7778 55.7164 96.6645 57.2367 97.3578C58.9244 98.1275 60.8467 98.5537 63.4764 99.1367C63.5389 99.1506 63.6019 99.1645 63.6652 99.1786L63.7522 99.1979Z" fill="#FF7347" stroke="#354563" stroke-width="4"/>
<path d="M12.6905 59.4016C30.2141 42.8115 38.2797 29.4736 45.2091 7.05518C50.508 24.7861 52.2806 36.8661 73.626 59.4016H60.8318L87.3095 90.6936H4.86768L30.1418 59.4016H12.6905Z" fill="#B8E1D1" stroke="#354563" stroke-width="4"/>
</svg>
