<?xml version="1.0" encoding="utf-8"?>
<!-- Generator: Adobe Illustrator 24.1.2, SVG Export Plug-In . SVG Version: 6.00 Build 0)  -->
<svg version="1.1" id="Layer_1" xmlns="http://www.w3.org/2000/svg" xmlns:xlink="http://www.w3.org/1999/xlink" x="0px" y="0px"
	 viewBox="0 0 720 720" style="enable-background:new 0 0 720 720;" xml:space="preserve">
<style type="text/css">
	.st0{clip-path:url(#SVGID_2_);fill:#E5889D;}
	.st1{clip-path:url(#SVGID_4_);fill:#4BBFA9;}
	.st2{clip-path:url(#SVGID_6_);fill:#6691CB;}
	.st3{clip-path:url(#SVGID_8_);fill:#FBB263;}
	.st4{opacity: 0;display:inline;}
	.st5{display:inline;}
	.st6{clip-path:url(#SVGID_10_);fill:#F16470;}
	.st7{clip-path:url(#SVGID_12_);fill:#3FB09B;}
	.st8{clip-path:url(#SVGID_14_);fill:#557ABC;}
	.st9{clip-path:url(#SVGID_16_);fill:#FAA840;}
	.st10{fill:#364262;}
	.st11{fill:#FFFFFF;}
	.st12{display:inline;fill:#FFFFFF;}
	.st13{fill:#FFD777;}
	.st14{fill:none;stroke:#FAA840;stroke-width:11;stroke-linecap:round;stroke-linejoin:round;stroke-miterlimit:10;}
	.st15{fill:none;stroke:#FFFFFF;stroke-width:11;stroke-linecap:round;stroke-linejoin:round;stroke-miterlimit:10;}
</style>
<g id="swoosh_desaturated">
	<g>
		<g>
			<defs>
				<path id="SVGID_1_" d="M227.4,139c23.2-9.9,51.4-7.1,72.1,7s33.4,39.2,32.3,64.1c-1.2,25.9-16.3,49.8-36.4,66.5
					s-44.7,27.1-69.6,35.6c-6.1,2.1-12.3,4.1-17.3,8.1c-10.6,8.4-13,23.6-10.7,36.8c4.9,28.5,26.9,51,49.9,69
					c55.9,43.5,124.2,71.2,194.9,79c15.7,1.7,31.4,2.5,47.2,3.3c27.7,1.4,56.2,2.6,82.5-6.1c2.6,15.4-2.9,32.3-13.3,44.1
					c-10.3,11.8-23.9,20.4-37.3,28.8c-18,11.3-35.9,22.5-53.9,33.8c-14.7,9.2-29.8,18.6-46.7,22.7c-11.6,2.8-23.7,2.9-35.6,2.4
					c-49.7-2.3-98.1-16.7-144-35.5c-14.4-5.9-28.8-12.3-41.5-21.3c-16.5-11.7-29.5-27.5-41.2-43.8c-55-76.8-83.5-177.6-52.7-266.6
					c5.5-15.9,12.9-31.4,23.1-44.9c9.9-13.1,22.2-24.2,34.9-34.6C185.5,169.6,201.9,149.8,227.4,139z"/>
			</defs>
			<clipPath id="SVGID_2_">
				<use xlink:href="#SVGID_1_"  style="overflow:visible;"/>
			</clipPath>
			<path class="st0" d="M226.4,138.5c23.2-9.9,51.4-7.1,72.1,7s33.4,39.2,32.3,64.1c-1.2,25.9-16.3,49.8-36.4,66.5
				s-44.7,27.1-69.6,35.6c-6.1,2.1-12.3,4.1-17.3,8.1c-10.6,8.4-13,23.6-10.7,36.8c4.9,28.5,26.9,51,49.9,69
				c55.9,43.5,124.2,71.2,194.9,79c15.7,1.7,31.4,2.5,47.2,3.3c27.7,1.4,56.2,2.6,82.5-6.1c2.6,15.4-2.9,32.3-13.3,44.1
				c-10.3,11.8-23.9,20.4-37.3,28.8c-18,11.3-35.9,22.5-53.9,33.8c-14.7,9.2-29.8,18.6-46.7,22.7c-11.6,2.8-23.7,2.9-35.6,2.4
				c-49.7-2.3-98.1-16.7-144-35.5c-14.4-5.9-28.8-12.3-41.5-21.3c-16.5-11.7-29.5-27.5-41.2-43.8c-55-76.8-83.5-177.6-52.7-266.6
				c5.5-15.9,12.9-31.4,23.1-44.9c9.9-13.1,22.2-24.2,34.9-34.6C184.5,169.2,201,149.4,226.4,138.5z"/>
		</g>
		<g>
			<defs>
				<path id="SVGID_3_" d="M227.4,139c23.2-9.9,51.4-7.1,72.1,7s33.4,39.2,32.3,64.1c-1.2,25.9-16.3,49.8-36.4,66.5
					s-44.7,27.1-69.6,35.6c-6.1,2.1-12.3,4.1-17.3,8.1c-10.6,8.4-13,23.6-10.7,36.8c4.9,28.5,26.9,51,49.9,69
					c55.9,43.5,124.2,71.2,194.9,79c15.7,1.7,31.4,2.5,47.2,3.3c27.7,1.4,56.2,2.6,82.5-6.1c2.6,15.4-2.9,32.3-13.3,44.1
					c-10.3,11.8-23.9,20.4-37.3,28.8c-18,11.3-35.9,22.5-53.9,33.8c-14.7,9.2-29.8,18.6-46.7,22.7c-11.6,2.8-23.7,2.9-35.6,2.4
					c-49.7-2.3-98.1-16.7-144-35.5c-14.4-5.9-28.8-12.3-41.5-21.3c-16.5-11.7-29.5-27.5-41.2-43.8c-55-76.8-83.5-177.6-52.7-266.6
					c5.5-15.9,12.9-31.4,23.1-44.9c9.9-13.1,22.2-24.2,34.9-34.6C185.5,169.6,201.9,149.8,227.4,139z"/>
			</defs>
			<clipPath id="SVGID_4_">
				<use xlink:href="#SVGID_3_"  style="overflow:visible;"/>
			</clipPath>
			<path class="st1" d="M222.2,537.4c23.8,8.4,49.1,12,74.2,14.3c89.3,8,189.2,0.9,268-41.7c15.8-8.5,26-23.8,26.4-41.8
				c0.5-20.1-19.6-33.8-37.2-43.5c-35.5-19.6-71.3-39.3-110.5-49.8c-20.2-5.4-41-8.3-61.7-11.1c-74-10.2-148.1-20.3-222.1-30.5
				c-15.3-2.1-30.8-4.2-46.1-2.4c-15.3,1.8-30.8,7.8-40.8,19.6C7.9,426.1,170.4,519.2,222.2,537.4z"/>
		</g>
		<g>
			<defs>
				<path id="SVGID_5_" d="M227.4,139c23.2-9.9,51.4-7.1,72.1,7s33.4,39.2,32.3,64.1c-1.2,25.9-16.3,49.8-36.4,66.5
					s-44.7,27.1-69.6,35.6c-6.1,2.1-12.3,4.1-17.3,8.1c-10.6,8.4-13,23.6-10.7,36.8c4.9,28.5,26.9,51,49.9,69
					c55.9,43.5,124.2,71.2,194.9,79c15.7,1.7,31.4,2.5,47.2,3.3c27.7,1.4,56.2,2.6,82.5-6.1c2.6,15.4-2.9,32.3-13.3,44.1
					c-10.3,11.8-23.9,20.4-37.3,28.8c-18,11.3-35.9,22.5-53.9,33.8c-14.7,9.2-29.8,18.6-46.7,22.7c-11.6,2.8-23.7,2.9-35.6,2.4
					c-49.7-2.3-98.1-16.7-144-35.5c-14.4-5.9-28.8-12.3-41.5-21.3c-16.5-11.7-29.5-27.5-41.2-43.8c-55-76.8-83.5-177.6-52.7-266.6
					c5.5-15.9,12.9-31.4,23.1-44.9c9.9-13.1,22.2-24.2,34.9-34.6C185.5,169.6,201.9,149.8,227.4,139z"/>
			</defs>
			<clipPath id="SVGID_6_">
				<use xlink:href="#SVGID_5_"  style="overflow:visible;"/>
			</clipPath>
			<path class="st2" d="M235.9,472.9c-37.2-13.3-69.7-37.7-96.6-66.6c-13.1-14.1-25.2-29.7-32.4-47.6c-10.4-25.8-9.8-54.7-6.5-82.3
				c2.4-20.4,6.4-41,17-58.6c6.2-10.2,14.4-18.9,23-27.2c6.1-5.9,12.7-11.7,20.8-14.3c14.6-4.8,30.8,1.7,42.4,11.7
				c9.1,7.9,16.2,17.8,23.1,27.6c41.4,58.9,80.3,119.7,116.4,182c6.4,11,12.7,22.2,15.5,34.5c2.3,10,4.1,30.3-3.5,38.8
				c-6.2,6.9-23.3,8.5-31.9,10C293.9,486.2,263.6,482.8,235.9,472.9z"/>
		</g>
		<g>
			<defs>
				<path id="SVGID_7_" d="M227.4,139c23.2-9.9,51.4-7.1,72.1,7s33.4,39.2,32.3,64.1c-1.2,25.9-16.3,49.8-36.4,66.5
					s-44.7,27.1-69.6,35.6c-6.1,2.1-12.3,4.1-17.3,8.1c-10.6,8.4-13,23.6-10.7,36.8c4.9,28.5,26.9,51,49.9,69
					c55.9,43.5,124.2,71.2,194.9,79c15.7,1.7,31.4,2.5,47.2,3.3c27.7,1.4,56.2,2.6,82.5-6.1c2.6,15.4-2.9,32.3-13.3,44.1
					c-10.3,11.8-23.9,20.4-37.3,28.8c-18,11.3-35.9,22.5-53.9,33.8c-14.7,9.2-29.8,18.6-46.7,22.7c-11.6,2.8-23.7,2.9-35.6,2.4
					c-49.7-2.3-98.1-16.7-144-35.5c-14.4-5.9-28.8-12.3-41.5-21.3c-16.5-11.7-29.5-27.5-41.2-43.8c-55-76.8-83.5-177.6-52.7-266.6
					c5.5-15.9,12.9-31.4,23.1-44.9c9.9-13.1,22.2-24.2,34.9-34.6C185.5,169.6,201.9,149.8,227.4,139z"/>
			</defs>
			<clipPath id="SVGID_8_">
				<use xlink:href="#SVGID_7_"  style="overflow:visible;"/>
			</clipPath>
			<path class="st3" d="M161.4,297.3c1.2-21.9,9.1-42.9,11.8-64.7c3-25-1.2-50.9-12-73.7c-3-6.4-6.7-13-6.1-20
				c0.5-7,5.1-13,9.7-18.2c23.2-26,56.9-45.3,91.6-42c23.9,2.2,46,15,62.5,32.4s27.8,39.1,35.9,61.7c6.4,17.7,10.9,36.9,6.8,55.3
				c-6.3,27.9-30.8,47.6-54.7,63.5c-10.8,7.2-21.9,14.2-31,23.6c-7.2,7.5-13,16.3-18.4,25.2c-6.1,10-11.9,20.3-17.4,30.7
				c-6,11.5-11.6,27.1-1.2,37.8c-19.4-12.4-39.1-21.2-53.9-39.9C169.1,348.7,160,323,161.4,297.3z"/>
		</g>
	</g>
</g>
<g id="swoosh_saturated" class="st4">
	<g class="st5">
		<g>
			<defs>
				<path id="SVGID_9_" d="M227.4,139c23.2-9.9,51.4-7.1,72.1,7s33.4,39.2,32.3,64.1c-1.2,25.9-16.3,49.8-36.4,66.5
					s-44.7,27.1-69.6,35.6c-6.1,2.1-12.3,4.1-17.3,8.1c-10.6,8.4-13,23.6-10.7,36.8c4.9,28.5,26.9,51,49.9,69
					c55.9,43.5,124.2,71.2,194.9,79c15.7,1.7,31.4,2.5,47.2,3.3c27.7,1.4,56.2,2.6,82.5-6.1c2.6,15.4-2.9,32.3-13.3,44.1
					c-10.3,11.8-23.9,20.4-37.3,28.8c-18,11.3-35.9,22.5-53.9,33.8c-14.7,9.2-29.8,18.6-46.7,22.7c-11.6,2.8-23.7,2.9-35.6,2.4
					c-49.7-2.3-98.1-16.7-144-35.5c-14.4-5.9-28.8-12.3-41.5-21.3c-16.5-11.7-29.5-27.5-41.2-43.8c-55-76.8-83.5-177.6-52.7-266.6
					c5.5-15.9,12.9-31.4,23.1-44.9c9.9-13.1,22.2-24.2,34.9-34.6C185.5,169.6,201.9,149.8,227.4,139z"/>
			</defs>
			<clipPath id="SVGID_10_">
				<use xlink:href="#SVGID_9_"  style="overflow:visible;"/>
			</clipPath>
			<path class="st6" d="M226.4,138.5c23.2-9.9,51.4-7.1,72.1,7s33.4,39.2,32.3,64.1c-1.2,25.9-16.3,49.8-36.4,66.5
				s-44.7,27.1-69.6,35.6c-6.1,2.1-12.3,4.1-17.3,8.1c-10.6,8.4-13,23.6-10.7,36.8c4.9,28.5,26.9,51,49.9,69
				c55.9,43.5,124.2,71.2,194.9,79c15.7,1.7,31.4,2.5,47.2,3.3c27.7,1.4,56.2,2.6,82.5-6.1c2.6,15.4-2.9,32.3-13.3,44.1
				c-10.3,11.8-23.9,20.4-37.3,28.8c-18,11.3-35.9,22.5-53.9,33.8c-14.7,9.2-29.8,18.6-46.7,22.7c-11.6,2.8-23.7,2.9-35.6,2.4
				c-49.7-2.3-98.1-16.7-144-35.5c-14.4-5.9-28.8-12.3-41.5-21.3c-16.5-11.7-29.5-27.5-41.2-43.8c-55-76.8-83.5-177.6-52.7-266.6
				c5.5-15.9,12.9-31.4,23.1-44.9c9.9-13.1,22.2-24.2,34.9-34.6C184.5,169.2,201,149.4,226.4,138.5z"/>
		</g>
		<g>
			<defs>
				<path id="SVGID_11_" d="M227.4,139c23.2-9.9,51.4-7.1,72.1,7s33.4,39.2,32.3,64.1c-1.2,25.9-16.3,49.8-36.4,66.5
					s-44.7,27.1-69.6,35.6c-6.1,2.1-12.3,4.1-17.3,8.1c-10.6,8.4-13,23.6-10.7,36.8c4.9,28.5,26.9,51,49.9,69
					c55.9,43.5,124.2,71.2,194.9,79c15.7,1.7,31.4,2.5,47.2,3.3c27.7,1.4,56.2,2.6,82.5-6.1c2.6,15.4-2.9,32.3-13.3,44.1
					c-10.3,11.8-23.9,20.4-37.3,28.8c-18,11.3-35.9,22.5-53.9,33.8c-14.7,9.2-29.8,18.6-46.7,22.7c-11.6,2.8-23.7,2.9-35.6,2.4
					c-49.7-2.3-98.1-16.7-144-35.5c-14.4-5.9-28.8-12.3-41.5-21.3c-16.5-11.7-29.5-27.5-41.2-43.8c-55-76.8-83.5-177.6-52.7-266.6
					c5.5-15.9,12.9-31.4,23.1-44.9c9.9-13.1,22.2-24.2,34.9-34.6C185.5,169.6,201.9,149.8,227.4,139z"/>
			</defs>
			<clipPath id="SVGID_12_">
				<use xlink:href="#SVGID_11_"  style="overflow:visible;"/>
			</clipPath>
			<path class="st7" d="M222.2,537.4c23.8,8.4,49.1,12,74.2,14.3c89.3,8,189.2,0.9,268-41.7c15.8-8.5,26-23.8,26.4-41.8
				c0.5-20.1-19.6-33.8-37.2-43.5c-35.5-19.6-71.3-39.3-110.5-49.8c-20.2-5.4-41-8.3-61.7-11.1c-74-10.2-148.1-20.3-222.1-30.5
				c-15.3-2.1-30.8-4.2-46.1-2.4c-15.3,1.8-30.8,7.8-40.8,19.6C7.9,426.1,170.4,519.2,222.2,537.4z"/>
		</g>
		<g>
			<defs>
				<path id="SVGID_13_" d="M227.4,139c23.2-9.9,51.4-7.1,72.1,7s33.4,39.2,32.3,64.1c-1.2,25.9-16.3,49.8-36.4,66.5
					s-44.7,27.1-69.6,35.6c-6.1,2.1-12.3,4.1-17.3,8.1c-10.6,8.4-13,23.6-10.7,36.8c4.9,28.5,26.9,51,49.9,69
					c55.9,43.5,124.2,71.2,194.9,79c15.7,1.7,31.4,2.5,47.2,3.3c27.7,1.4,56.2,2.6,82.5-6.1c2.6,15.4-2.9,32.3-13.3,44.1
					c-10.3,11.8-23.9,20.4-37.3,28.8c-18,11.3-35.9,22.5-53.9,33.8c-14.7,9.2-29.8,18.6-46.7,22.7c-11.6,2.8-23.7,2.9-35.6,2.4
					c-49.7-2.3-98.1-16.7-144-35.5c-14.4-5.9-28.8-12.3-41.5-21.3c-16.5-11.7-29.5-27.5-41.2-43.8c-55-76.8-83.5-177.6-52.7-266.6
					c5.5-15.9,12.9-31.4,23.1-44.9c9.9-13.1,22.2-24.2,34.9-34.6C185.5,169.6,201.9,149.8,227.4,139z"/>
			</defs>
			<clipPath id="SVGID_14_">
				<use xlink:href="#SVGID_13_"  style="overflow:visible;"/>
			</clipPath>
			<path class="st8" d="M235.9,472.9c-37.2-13.3-69.7-37.7-96.6-66.6c-13.1-14.1-25.2-29.7-32.4-47.6c-10.4-25.8-9.8-54.7-6.5-82.3
				c2.4-20.4,6.4-41,17-58.6c6.2-10.2,14.4-18.9,23-27.2c6.1-5.9,12.7-11.7,20.8-14.3c14.6-4.8,30.8,1.7,42.4,11.7
				c9.1,7.9,16.2,17.8,23.1,27.6c41.4,58.9,80.3,119.7,116.4,182c6.4,11,12.7,22.2,15.5,34.5c2.3,10,4.1,30.3-3.5,38.8
				c-6.2,6.9-23.3,8.5-31.9,10C293.9,486.2,263.6,482.8,235.9,472.9z"/>
		</g>
		<g>
			<defs>
				<path id="SVGID_15_" d="M227.4,139c23.2-9.9,51.4-7.1,72.1,7s33.4,39.2,32.3,64.1c-1.2,25.9-16.3,49.8-36.4,66.5
					s-44.7,27.1-69.6,35.6c-6.1,2.1-12.3,4.1-17.3,8.1c-10.6,8.4-13,23.6-10.7,36.8c4.9,28.5,26.9,51,49.9,69
					c55.9,43.5,124.2,71.2,194.9,79c15.7,1.7,31.4,2.5,47.2,3.3c27.7,1.4,56.2,2.6,82.5-6.1c2.6,15.4-2.9,32.3-13.3,44.1
					c-10.3,11.8-23.9,20.4-37.3,28.8c-18,11.3-35.9,22.5-53.9,33.8c-14.7,9.2-29.8,18.6-46.7,22.7c-11.6,2.8-23.7,2.9-35.6,2.4
					c-49.7-2.3-98.1-16.7-144-35.5c-14.4-5.9-28.8-12.3-41.5-21.3c-16.5-11.7-29.5-27.5-41.2-43.8c-55-76.8-83.5-177.6-52.7-266.6
					c5.5-15.9,12.9-31.4,23.1-44.9c9.9-13.1,22.2-24.2,34.9-34.6C185.5,169.6,201.9,149.8,227.4,139z"/>
			</defs>
			<clipPath id="SVGID_16_">
				<use xlink:href="#SVGID_15_"  style="overflow:visible;"/>
			</clipPath>
			<path class="st9" d="M161.4,297.3c1.2-21.9,9.1-42.9,11.8-64.7c3-25-1.2-50.9-12-73.7c-3-6.4-6.7-13-6.1-20
				c0.5-7,5.1-13,9.7-18.2c23.2-26,56.9-45.3,91.6-42c23.9,2.2,46,15,62.5,32.4s27.8,39.1,35.9,61.7c6.4,17.7,10.9,36.9,6.8,55.3
				c-6.3,27.9-30.8,47.6-54.7,63.5c-10.8,7.2-21.9,14.2-31,23.6c-7.2,7.5-13,16.3-18.4,25.2c-6.1,10-11.9,20.3-17.4,30.7
				c-6,11.5-11.6,27.1-1.2,37.8c-19.4-12.4-39.1-21.2-53.9-39.9C169.1,348.7,160,323,161.4,297.3z"/>
		</g>
	</g>
</g>
<g id="base_blue">
	<polygon class="st10" points="379.6,634.5 397.4,616.8 262.8,482.2 199.8,545.3 282.3,627.8 	"/>
	
		<rect x="154.7" y="423.7" transform="matrix(0.7071 -0.7071 0.7071 0.7071 -228.2251 368.8265)" class="st10" width="352.8" height="72.4"/>
	<path class="st10" d="M585.2,471.3L585.2,471.3c-40.6,82.9-125.8,140-224.4,140C222.9,611.3,111,499.4,111,361.5
		c0-137.7,111.4-249.3,249-249.7l0,0V65.9C197.6,65.9,65.9,197.6,65.9,360S197.6,654.1,360,654.1c115.7,0,215.8-66.8,263.8-164
		L585.2,471.3z"/>
	<g>
		<path class="st10" d="M382.9,273.7c-5.4,7.1-11.3,13.7-17.2,20.3c-6,6.5-12.1,12.9-18.3,19.2l-18.8,18.7
			c-6.3,6.3-12.6,12.4-18.9,18.6s-12.6,12.4-19,18.5s-12.7,12.3-19.1,18.4c-12.8,12.2-25.7,24.4-38.7,36.3c-1.7,1.6-4.4,1.4-5.9-0.3
			c-1.5-1.6-1.4-4.1,0-5.7c12-13.1,24.1-26,36.3-38.7c6.1-6.4,12.3-12.8,18.4-19.1c6.1-6.4,12.3-12.7,18.5-19s12.4-12.6,18.6-18.9
			l18.7-18.8c6.3-6.2,12.7-12.4,19.2-18.3c6.6-5.9,13.2-11.8,20.3-17.2c1.8-1.4,4.5-1.1,5.9,0.8C384.1,270.1,384,272.2,382.9,273.7z
			"/>
	</g>
	<g>
		<path class="st10" d="M408,298.2c-1.9,2.5-3.9,4.9-5.9,7.3l-3,3.6l-3.1,3.5c-4.1,4.7-8.3,9.3-12.6,13.8
			c-8.5,9-17.4,17.7-26.2,26.5l-26.4,26.3l-26.5,26.2c-8.8,8.7-17.7,17.4-26.6,26.1l-26.7,26c-17.8,17.3-35.7,34.5-53.8,51.5
			c-1.7,1.6-4.3,1.5-5.9-0.2c-1.5-1.6-1.5-4.1,0-5.8c17-18.1,34.3-36,51.5-53.8l26-26.7c8.7-8.9,17.3-17.8,26.1-26.6l26.2-26.5
			l26.3-26.4c8.8-8.8,17.4-17.7,26.5-26.2c4.5-4.3,9.1-8.5,13.8-12.6l3.5-3.1l3.6-3c2.4-2,4.8-4,7.3-5.9c1.9-1.4,4.5-1.1,5.9,0.8
			C409.2,294.6,409.1,296.7,408,298.2z"/>
	</g>
</g>
<g id="base_white" class="st4">
	<g class="st5">
		<path class="st11" d="M382.9,273.7c-5.4,7.1-11.3,13.7-17.2,20.3c-6,6.5-12.1,12.9-18.3,19.2l-18.8,18.7
			c-6.3,6.3-12.6,12.4-18.9,18.6s-12.6,12.4-19,18.5s-12.7,12.3-19.1,18.4c-12.8,12.2-25.7,24.4-38.7,36.3c-1.7,1.6-4.4,1.4-5.9-0.3
			c-1.5-1.6-1.4-4.1,0-5.7c12-13.1,24.1-26,36.3-38.7c6.1-6.4,12.3-12.8,18.4-19.1c6.1-6.4,12.3-12.7,18.5-19s12.4-12.6,18.6-18.9
			l18.7-18.8c6.3-6.2,12.7-12.4,19.2-18.3c6.6-5.9,13.2-11.8,20.3-17.2c1.8-1.4,4.5-1.1,5.9,0.8C384.1,270.1,384,272.2,382.9,273.7z
			"/>
	</g>
	<g class="st5">
		<path class="st11" d="M408,298.2c-1.9,2.5-3.9,4.9-5.9,7.3l-3,3.6l-3.1,3.5c-4.1,4.7-8.3,9.3-12.6,13.8
			c-8.5,9-17.4,17.7-26.2,26.5l-26.4,26.3l-26.5,26.2c-8.8,8.7-17.7,17.4-26.6,26.1l-26.7,26c-17.8,17.3-35.7,34.5-53.8,51.5
			c-1.7,1.6-4.3,1.5-5.9-0.2c-1.5-1.6-1.5-4.1,0-5.8c17-18.1,34.3-36,51.5-53.8l26-26.7c8.7-8.9,17.3-17.8,26.1-26.6l26.2-26.5
			l26.3-26.4c8.8-8.8,17.4-17.7,26.5-26.2c4.5-4.3,9.1-8.5,13.8-12.6l3.5-3.1l3.6-3c2.4-2,4.8-4,7.3-5.9c1.9-1.4,4.5-1.1,5.9,0.8
			C409.2,294.6,409.1,296.7,408,298.2z"/>
	</g>
	<polygon class="st12" points="379.6,634.5 397.4,616.8 262.8,482.2 199.8,545.3 282.3,627.8 	"/>
	
		<rect x="154.7" y="423.7" transform="matrix(0.7071 -0.7071 0.7071 0.7071 -228.2251 368.8265)" class="st12" width="352.8" height="72.4"/>
	<path class="st12" d="M585.2,471.3L585.2,471.3c-40.6,82.9-125.8,140-224.4,140C222.9,611.3,111,499.4,111,361.5
		c0-137.7,111.4-249.3,249-249.7l0,0V65.9C197.6,65.9,65.9,197.6,65.9,360S197.6,654.1,360,654.1c115.7,0,215.8-66.8,263.8-164
		L585.2,471.3z"/>
</g>
<g id="plane">
	<polygon class="st13" points="477.1,212.5 474.4,256.5 496.2,234.5 559.5,284.2 595.6,133.7 431.1,175.1 	"/>
	<g>
		<polyline class="st14" points="474.4,256.5 496.2,234.5 595.6,133.7 		"/>
		<line class="st14" x1="477.1" y1="212.5" x2="595.6" y2="133.7"/>
		<line class="st14" x1="431.1" y1="175.1" x2="595.6" y2="133.7"/>
		<line class="st14" x1="477.1" y1="212.5" x2="431.1" y2="175.1"/>
		<polyline class="st14" points="559.5,284.2 496.2,234.5 474.4,256.5 477.1,212.5 		"/>
		<line class="st14" x1="559.5" y1="284.2" x2="595.6" y2="133.7"/>
	</g>
</g>
<g id="plane_white" class="st4">
	<g class="st5">
		<polyline class="st15" points="474.4,256.5 496.2,234.5 595.6,133.7 		"/>
		<line class="st15" x1="477.1" y1="212.5" x2="595.6" y2="133.7"/>
		<line class="st15" x1="431.1" y1="175.1" x2="595.6" y2="133.7"/>
		<line class="st15" x1="477.1" y1="212.5" x2="431.1" y2="175.1"/>
		<polyline class="st15" points="559.5,284.2 496.2,234.5 474.4,256.5 477.1,212.5 		"/>
		<line class="st15" x1="559.5" y1="284.2" x2="595.6" y2="133.7"/>
	</g>
</g>
</svg>
